%TF.GenerationSoftware,KiCad,Pcbnew,9.0.5*%
%TF.CreationDate,2026-01-13T16:05:56+09:00*%
%TF.ProjectId,main-board,6d61696e-2d62-46f6-9172-642e6b696361,rev?*%
%TF.SameCoordinates,Original*%
%TF.FileFunction,Legend,Bot*%
%TF.FilePolarity,Positive*%
%FSLAX46Y46*%
G04 Gerber Fmt 4.6, Leading zero omitted, Abs format (unit mm)*
G04 Created by KiCad (PCBNEW 9.0.5) date 2026-01-13 16:05:56*
%MOMM*%
%LPD*%
G01*
G04 APERTURE LIST*
%ADD10C,0.100000*%
%ADD11C,0.150000*%
%ADD12C,0.120000*%
G04 APERTURE END LIST*
D10*
X136703734Y-82574800D02*
X136560877Y-82622419D01*
X136560877Y-82622419D02*
X136322782Y-82622419D01*
X136322782Y-82622419D02*
X136227544Y-82574800D01*
X136227544Y-82574800D02*
X136179925Y-82527180D01*
X136179925Y-82527180D02*
X136132306Y-82431942D01*
X136132306Y-82431942D02*
X136132306Y-82336704D01*
X136132306Y-82336704D02*
X136179925Y-82241466D01*
X136179925Y-82241466D02*
X136227544Y-82193847D01*
X136227544Y-82193847D02*
X136322782Y-82146228D01*
X136322782Y-82146228D02*
X136513258Y-82098609D01*
X136513258Y-82098609D02*
X136608496Y-82050990D01*
X136608496Y-82050990D02*
X136656115Y-82003371D01*
X136656115Y-82003371D02*
X136703734Y-81908133D01*
X136703734Y-81908133D02*
X136703734Y-81812895D01*
X136703734Y-81812895D02*
X136656115Y-81717657D01*
X136656115Y-81717657D02*
X136608496Y-81670038D01*
X136608496Y-81670038D02*
X136513258Y-81622419D01*
X136513258Y-81622419D02*
X136275163Y-81622419D01*
X136275163Y-81622419D02*
X136132306Y-81670038D01*
X135703734Y-82622419D02*
X135703734Y-81622419D01*
X134703735Y-81670038D02*
X134798973Y-81622419D01*
X134798973Y-81622419D02*
X134941830Y-81622419D01*
X134941830Y-81622419D02*
X135084687Y-81670038D01*
X135084687Y-81670038D02*
X135179925Y-81765276D01*
X135179925Y-81765276D02*
X135227544Y-81860514D01*
X135227544Y-81860514D02*
X135275163Y-82050990D01*
X135275163Y-82050990D02*
X135275163Y-82193847D01*
X135275163Y-82193847D02*
X135227544Y-82384323D01*
X135227544Y-82384323D02*
X135179925Y-82479561D01*
X135179925Y-82479561D02*
X135084687Y-82574800D01*
X135084687Y-82574800D02*
X134941830Y-82622419D01*
X134941830Y-82622419D02*
X134846592Y-82622419D01*
X134846592Y-82622419D02*
X134703735Y-82574800D01*
X134703735Y-82574800D02*
X134656116Y-82527180D01*
X134656116Y-82527180D02*
X134656116Y-82193847D01*
X134656116Y-82193847D02*
X134846592Y-82193847D01*
X131632306Y-81670038D02*
X131727544Y-81622419D01*
X131727544Y-81622419D02*
X131870401Y-81622419D01*
X131870401Y-81622419D02*
X132013258Y-81670038D01*
X132013258Y-81670038D02*
X132108496Y-81765276D01*
X132108496Y-81765276D02*
X132156115Y-81860514D01*
X132156115Y-81860514D02*
X132203734Y-82050990D01*
X132203734Y-82050990D02*
X132203734Y-82193847D01*
X132203734Y-82193847D02*
X132156115Y-82384323D01*
X132156115Y-82384323D02*
X132108496Y-82479561D01*
X132108496Y-82479561D02*
X132013258Y-82574800D01*
X132013258Y-82574800D02*
X131870401Y-82622419D01*
X131870401Y-82622419D02*
X131775163Y-82622419D01*
X131775163Y-82622419D02*
X131632306Y-82574800D01*
X131632306Y-82574800D02*
X131584687Y-82527180D01*
X131584687Y-82527180D02*
X131584687Y-82193847D01*
X131584687Y-82193847D02*
X131775163Y-82193847D01*
X131156115Y-82622419D02*
X131156115Y-81622419D01*
X131156115Y-81622419D02*
X130918020Y-81622419D01*
X130918020Y-81622419D02*
X130775163Y-81670038D01*
X130775163Y-81670038D02*
X130679925Y-81765276D01*
X130679925Y-81765276D02*
X130632306Y-81860514D01*
X130632306Y-81860514D02*
X130584687Y-82050990D01*
X130584687Y-82050990D02*
X130584687Y-82193847D01*
X130584687Y-82193847D02*
X130632306Y-82384323D01*
X130632306Y-82384323D02*
X130679925Y-82479561D01*
X130679925Y-82479561D02*
X130775163Y-82574800D01*
X130775163Y-82574800D02*
X130918020Y-82622419D01*
X130918020Y-82622419D02*
X131156115Y-82622419D01*
X130156115Y-82622419D02*
X130156115Y-81622419D01*
X130156115Y-81622419D02*
X129584687Y-82622419D01*
X129584687Y-82622419D02*
X129584687Y-81622419D01*
D11*
X136358333Y-74004819D02*
X136358333Y-74719104D01*
X136358333Y-74719104D02*
X136405952Y-74861961D01*
X136405952Y-74861961D02*
X136501190Y-74957200D01*
X136501190Y-74957200D02*
X136644047Y-75004819D01*
X136644047Y-75004819D02*
X136739285Y-75004819D01*
X135358333Y-75004819D02*
X135929761Y-75004819D01*
X135644047Y-75004819D02*
X135644047Y-74004819D01*
X135644047Y-74004819D02*
X135739285Y-74147676D01*
X135739285Y-74147676D02*
X135834523Y-74242914D01*
X135834523Y-74242914D02*
X135929761Y-74290533D01*
D12*
%TO.C,J1*%
X134665000Y-76400000D02*
X134665000Y-79100000D01*
X137385000Y-76350000D02*
X137385000Y-76990000D01*
X137385000Y-76990000D02*
X138015000Y-76990000D01*
X137385000Y-79150000D02*
X137385000Y-78510000D01*
%TD*%
M02*
