%TF.GenerationSoftware,KiCad,Pcbnew,9.0.5*%
%TF.CreationDate,2026-01-13T16:05:56+09:00*%
%TF.ProjectId,main-board,6d61696e-2d62-46f6-9172-642e6b696361,rev?*%
%TF.SameCoordinates,Original*%
%TF.FileFunction,Soldermask,Top*%
%TF.FilePolarity,Negative*%
%FSLAX46Y46*%
G04 Gerber Fmt 4.6, Leading zero omitted, Abs format (unit mm)*
G04 Created by KiCad (PCBNEW 9.0.5) date 2026-01-13 16:05:56*
%MOMM*%
%LPD*%
G01*
G04 APERTURE LIST*
G04 Aperture macros list*
%AMRoundRect*
0 Rectangle with rounded corners*
0 $1 Rounding radius*
0 $2 $3 $4 $5 $6 $7 $8 $9 X,Y pos of 4 corners*
0 Add a 4 corners polygon primitive as box body*
4,1,4,$2,$3,$4,$5,$6,$7,$8,$9,$2,$3,0*
0 Add four circle primitives for the rounded corners*
1,1,$1+$1,$2,$3*
1,1,$1+$1,$4,$5*
1,1,$1+$1,$6,$7*
1,1,$1+$1,$8,$9*
0 Add four rect primitives between the rounded corners*
20,1,$1+$1,$2,$3,$4,$5,0*
20,1,$1+$1,$4,$5,$6,$7,0*
20,1,$1+$1,$6,$7,$8,$9,0*
20,1,$1+$1,$8,$9,$2,$3,0*%
G04 Aperture macros list end*
%ADD10C,1.400000*%
%ADD11R,1.700000X1.700000*%
%ADD12C,1.700000*%
%ADD13C,1.600000*%
%ADD14C,2.100000*%
%ADD15RoundRect,0.250000X-0.350000X-0.625000X0.350000X-0.625000X0.350000X0.625000X-0.350000X0.625000X0*%
%ADD16O,1.200000X1.750000*%
%ADD17C,2.500000*%
%ADD18C,2.200000*%
%ADD19R,1.050000X1.500000*%
%ADD20O,1.050000X1.500000*%
%ADD21R,1.800000X1.800000*%
%ADD22C,1.800000*%
G04 APERTURE END LIST*
D10*
%TO.C,R2*%
X138420000Y-104750000D03*
X143500000Y-104750000D03*
%TD*%
D11*
%TO.C,J5*%
X162000000Y-92250000D03*
D12*
X162000000Y-94790000D03*
X162000000Y-97330000D03*
%TD*%
D10*
%TO.C,R1*%
X138500000Y-93000000D03*
X133420000Y-93000000D03*
%TD*%
D13*
%TO.C,C1*%
X132750000Y-88000000D03*
X132750000Y-85500000D03*
%TD*%
D14*
%TO.C,REF\u002A\u002A*%
X128100000Y-120850000D03*
%TD*%
D15*
%TO.C,J3*%
X153500000Y-77250000D03*
D16*
X155500000Y-77250000D03*
%TD*%
D11*
%TO.C,J2*%
X133600000Y-103550000D03*
D12*
X133600000Y-106090000D03*
X133600000Y-108630000D03*
X133600000Y-111170000D03*
X133600000Y-113710000D03*
X133600000Y-116250000D03*
X133600000Y-118790000D03*
X133600000Y-121330000D03*
%TD*%
D17*
%TO.C,REF\u002A\u002A*%
X128500000Y-78550000D03*
%TD*%
D10*
%TO.C,R5*%
X158210000Y-85750000D03*
X163290000Y-85750000D03*
%TD*%
D18*
%TO.C,REF\u002A\u002A*%
X161750000Y-120750000D03*
%TD*%
D11*
%TO.C,J4*%
X156460000Y-103550000D03*
D12*
X156460000Y-106090000D03*
X156460000Y-108630000D03*
X156460000Y-111170000D03*
X156460000Y-113710000D03*
X156460000Y-116250000D03*
X156460000Y-118790000D03*
X156460000Y-121330000D03*
%TD*%
D19*
%TO.C,Q1*%
X150460000Y-87250000D03*
D20*
X151730000Y-87250000D03*
X153000000Y-87250000D03*
%TD*%
D10*
%TO.C,R4*%
X146880000Y-110250000D03*
X151960000Y-110250000D03*
%TD*%
D21*
%TO.C,D1*%
X142920000Y-96750000D03*
D22*
X145460000Y-96750000D03*
X148000000Y-96750000D03*
%TD*%
D10*
%TO.C,R3*%
X146920000Y-104750000D03*
X152000000Y-104750000D03*
%TD*%
D13*
%TO.C,C2A1*%
X139500000Y-87750000D03*
X139500000Y-85250000D03*
%TD*%
D18*
%TO.C,REF\u002A\u002A*%
X161750000Y-78250000D03*
%TD*%
M02*
