M48
; DRILL file {KiCad 9.0.5} date 2026-01-13T16:05:58+0900
; FORMAT={-:-/ absolute / metric / decimal}
; #@! TF.CreationDate,2026-01-13T16:05:58+09:00
; #@! TF.GenerationSoftware,Kicad,Pcbnew,9.0.5
; #@! TF.FileFunction,Plated,1,4,PTH
FMAT,2
METRIC
; #@! TA.AperFunction,Plated,PTH,ComponentDrill
T1C0.700
; #@! TA.AperFunction,Plated,PTH,ComponentDrill
T2C0.750
; #@! TA.AperFunction,Plated,PTH,ComponentDrill
T3C0.800
; #@! TA.AperFunction,Plated,PTH,ComponentDrill
T4C0.900
; #@! TA.AperFunction,Plated,PTH,ComponentDrill
T5C1.000
%
G90
G05
T1
X133.42Y-93.0
X138.42Y-104.75
X138.5Y-93.0
X143.5Y-104.75
X146.88Y-110.25
X146.92Y-104.75
X151.96Y-110.25
X152.0Y-104.75
X158.21Y-85.75
X163.29Y-85.75
T2
X150.46Y-87.25
X151.73Y-87.25
X153.0Y-87.25
X153.5Y-77.25
X155.5Y-77.25
T3
X132.75Y-85.5
X132.75Y-88.0
X139.5Y-85.25
X139.5Y-87.75
T4
X142.92Y-96.75
X145.46Y-96.75
X148.0Y-96.75
T5
X133.6Y-103.55
X133.6Y-106.09
X133.6Y-108.63
X133.6Y-111.17
X133.6Y-113.71
X133.6Y-116.25
X133.6Y-118.79
X133.6Y-121.33
X156.46Y-103.55
X156.46Y-106.09
X156.46Y-108.63
X156.46Y-111.17
X156.46Y-113.71
X156.46Y-116.25
X156.46Y-118.79
X156.46Y-121.33
X162.0Y-92.25
X162.0Y-94.79
X162.0Y-97.33
M30
