%TF.GenerationSoftware,KiCad,Pcbnew,9.0.5*%
%TF.CreationDate,2026-01-12T15:34:45+09:00*%
%TF.ProjectId,main-board,6d61696e-2d62-46f6-9172-642e6b696361,rev?*%
%TF.SameCoordinates,Original*%
%TF.FileFunction,Soldermask,Bot*%
%TF.FilePolarity,Negative*%
%FSLAX46Y46*%
G04 Gerber Fmt 4.6, Leading zero omitted, Abs format (unit mm)*
G04 Created by KiCad (PCBNEW 9.0.5) date 2026-01-12 15:34:45*
%MOMM*%
%LPD*%
G01*
G04 APERTURE LIST*
G04 Aperture macros list*
%AMRoundRect*
0 Rectangle with rounded corners*
0 $1 Rounding radius*
0 $2 $3 $4 $5 $6 $7 $8 $9 X,Y pos of 4 corners*
0 Add a 4 corners polygon primitive as box body*
4,1,4,$2,$3,$4,$5,$6,$7,$8,$9,$2,$3,0*
0 Add four circle primitives for the rounded corners*
1,1,$1+$1,$2,$3*
1,1,$1+$1,$4,$5*
1,1,$1+$1,$6,$7*
1,1,$1+$1,$8,$9*
0 Add four rect primitives between the rounded corners*
20,1,$1+$1,$2,$3,$4,$5,0*
20,1,$1+$1,$4,$5,$6,$7,0*
20,1,$1+$1,$6,$7,$8,$9,0*
20,1,$1+$1,$8,$9,$2,$3,0*%
G04 Aperture macros list end*
%ADD10C,1.600000*%
%ADD11C,2.500000*%
%ADD12C,2.100000*%
%ADD13C,1.400000*%
%ADD14C,2.200000*%
%ADD15R,1.800000X1.800000*%
%ADD16C,1.800000*%
%ADD17R,1.050000X1.500000*%
%ADD18O,1.050000X1.500000*%
%ADD19RoundRect,0.250000X-0.350000X-0.625000X0.350000X-0.625000X0.350000X0.625000X-0.350000X0.625000X0*%
%ADD20O,1.200000X1.750000*%
%ADD21R,1.700000X1.700000*%
%ADD22C,1.700000*%
%ADD23RoundRect,0.250000X0.275000X0.250000X-0.275000X0.250000X-0.275000X-0.250000X0.275000X-0.250000X0*%
%ADD24RoundRect,0.250000X0.850000X0.275000X-0.850000X0.275000X-0.850000X-0.275000X0.850000X-0.275000X0*%
%TA.AperFunction,ComponentPad*%
%ADD25C,1.600000*%
%TD*%
%TA.AperFunction,ComponentPad*%
%ADD26C,1.400000*%
%TD*%
%TA.AperFunction,ComponentPad*%
%ADD27R,1.800000X1.800000*%
%TD*%
%TA.AperFunction,ComponentPad*%
%ADD28C,1.800000*%
%TD*%
%TA.AperFunction,ComponentPad*%
%ADD29R,1.050000X1.500000*%
%TD*%
%TA.AperFunction,ComponentPad*%
%ADD30O,1.050000X1.500000*%
%TD*%
%TA.AperFunction,ComponentPad*%
%ADD31RoundRect,0.250000X-0.350000X-0.625000X0.350000X-0.625000X0.350000X0.625000X-0.350000X0.625000X0*%
%TD*%
%TA.AperFunction,ComponentPad*%
%ADD32O,1.200000X1.750000*%
%TD*%
%TA.AperFunction,ComponentPad*%
%ADD33R,1.700000X1.700000*%
%TD*%
%TA.AperFunction,ComponentPad*%
%ADD34C,1.700000*%
%TD*%
%TA.AperFunction,SMDPad,CuDef*%
%ADD35RoundRect,0.250000X0.275000X0.250000X-0.275000X0.250000X-0.275000X-0.250000X0.275000X-0.250000X0*%
%TD*%
%TA.AperFunction,SMDPad,CuDef*%
%ADD36RoundRect,0.250000X0.850000X0.275000X-0.850000X0.275000X-0.850000X-0.275000X0.850000X-0.275000X0*%
%TD*%
%TA.AperFunction,Conductor*%
%ADD37C,0.200000*%
%TD*%
%ADD38C,0.100000*%
%ADD39C,0.150000*%
%ADD40C,0.120000*%
%TA.AperFunction,NonConductor*%
%ADD41C,0.150000*%
%TD*%
%TA.AperFunction,Profile*%
%ADD42C,0.050000*%
%TD*%
G04 APERTURE END LIST*
%TO.C,J1*%
G36*
X137015000Y-76810000D02*
G01*
X134925000Y-76810000D01*
X134925000Y-78690000D01*
X137015000Y-78690000D01*
X137015000Y-76810000D01*
G37*
%TD*%
D10*
%TO.C,C2A1*%
X139500000Y-87750000D03*
X139500000Y-85250000D03*
%TD*%
D11*
%TO.C,REF\u002A\u002A*%
X128500000Y-78550000D03*
%TD*%
D12*
%TO.C,REF\u002A\u002A*%
X128100000Y-120850000D03*
%TD*%
D13*
%TO.C,R5*%
X158210000Y-85750000D03*
X163290000Y-85750000D03*
%TD*%
D14*
%TO.C,REF\u002A\u002A*%
X161750000Y-78250000D03*
%TD*%
D15*
%TO.C,D1*%
X142920000Y-96750000D03*
D16*
X145460000Y-96750000D03*
X148000000Y-96750000D03*
%TD*%
D17*
%TO.C,Q1*%
X150460000Y-87250000D03*
D18*
X151730000Y-87250000D03*
X153000000Y-87250000D03*
%TD*%
D13*
%TO.C,R2*%
X138420000Y-104750000D03*
X143500000Y-104750000D03*
%TD*%
D19*
%TO.C,J3*%
X153500000Y-77250000D03*
D20*
X155500000Y-77250000D03*
%TD*%
D21*
%TO.C,J5*%
X162000000Y-92250000D03*
D22*
X162000000Y-94790000D03*
X162000000Y-97330000D03*
%TD*%
D13*
%TO.C,R3*%
X146920000Y-104750000D03*
X152000000Y-104750000D03*
%TD*%
%TO.C,R1*%
X138500000Y-93000000D03*
X133420000Y-93000000D03*
%TD*%
D10*
%TO.C,C1*%
X132750000Y-88000000D03*
X132750000Y-85500000D03*
%TD*%
D21*
%TO.C,J4*%
X156460000Y-103550000D03*
D22*
X156460000Y-106090000D03*
X156460000Y-108630000D03*
X156460000Y-111170000D03*
X156460000Y-113710000D03*
X156460000Y-116250000D03*
X156460000Y-118790000D03*
X156460000Y-121330000D03*
%TD*%
D14*
%TO.C,REF\u002A\u002A*%
X161750000Y-120750000D03*
%TD*%
D21*
%TO.C,J2*%
X133600000Y-103550000D03*
D22*
X133600000Y-106090000D03*
X133600000Y-108630000D03*
X133600000Y-111170000D03*
X133600000Y-113710000D03*
X133600000Y-116250000D03*
X133600000Y-118790000D03*
X133600000Y-121330000D03*
%TD*%
D13*
%TO.C,R4*%
X146880000Y-110250000D03*
X151960000Y-110250000D03*
%TD*%
D23*
%TO.C,J1*%
X137550000Y-77750000D03*
D24*
X136025000Y-79225000D03*
X136025000Y-76275000D03*
%TD*%
D25*
%TO.P,C2A1,1*%
%TO.N,Net-(J2-Pin_2)*%
X139500000Y-87750000D03*
%TO.P,C2A1,2*%
%TO.N,GND*%
X139500000Y-85250000D03*
%TD*%
D26*
%TO.P,R5,1*%
%TO.N,Net-(J3-IR_LED+)*%
X158210000Y-85750000D03*
%TO.P,R5,2*%
%TO.N,Net-(J4-Pin_8)*%
X163290000Y-85750000D03*
%TD*%
D27*
%TO.P,D1,1,K1*%
%TO.N,Net-(D1-K1)*%
X142920000Y-96750000D03*
D28*
%TO.P,D1,2,A*%
%TO.N,GND*%
X145460000Y-96750000D03*
%TO.P,D1,3,K2*%
%TO.N,Net-(D1-K2)*%
X148000000Y-96750000D03*
%TD*%
D29*
%TO.P,Q1,1,E*%
%TO.N,GND*%
X150460000Y-87250000D03*
D30*
%TO.P,Q1,2,B*%
%TO.N,Net-(Q1-B)*%
X151730000Y-87250000D03*
%TO.P,Q1,3,C*%
%TO.N,Net-(J3-IR_LED-)*%
X153000000Y-87250000D03*
%TD*%
D26*
%TO.P,R2,1*%
%TO.N,Net-(J2-Pin_4)*%
X138420000Y-104750000D03*
%TO.P,R2,2*%
%TO.N,Net-(Q1-B)*%
X143500000Y-104750000D03*
%TD*%
D31*
%TO.P,J3,1,IR_LED+*%
%TO.N,Net-(J3-IR_LED+)*%
X153500000Y-77250000D03*
D32*
%TO.P,J3,2,IR_LED-*%
%TO.N,Net-(J3-IR_LED-)*%
X155500000Y-77250000D03*
%TD*%
D33*
%TO.P,J5,1,VCC*%
%TO.N,Net-(J4-Pin_8)*%
X162000000Y-92250000D03*
D34*
%TO.P,J5,2,DATA*%
%TO.N,Net-(J4-Pin_3)*%
X162000000Y-94790000D03*
%TO.P,J5,3,GND*%
%TO.N,GND*%
X162000000Y-97330000D03*
%TD*%
D26*
%TO.P,R3,1*%
%TO.N,Net-(J2-Pin_6)*%
X146920000Y-104750000D03*
%TO.P,R3,2*%
%TO.N,Net-(D1-K2)*%
X152000000Y-104750000D03*
%TD*%
%TO.P,R1,1*%
%TO.N,Net-(J1-EMI_SIG)*%
X138500000Y-93000000D03*
%TO.P,R1,2*%
%TO.N,Net-(J2-Pin_2)*%
X133420000Y-93000000D03*
%TD*%
D25*
%TO.P,C1,1*%
%TO.N,Net-(J2-Pin_2)*%
X132750000Y-88000000D03*
%TO.P,C1,2*%
%TO.N,GND*%
X132750000Y-85500000D03*
%TD*%
D33*
%TO.P,J4,1,Pin_1*%
%TO.N,unconnected-(J4-Pin_1-Pad1)*%
X156460000Y-103550000D03*
D34*
%TO.P,J4,2,Pin_2*%
%TO.N,unconnected-(J4-Pin_2-Pad2)*%
X156460000Y-106090000D03*
%TO.P,J4,3,Pin_3*%
%TO.N,Net-(J4-Pin_3)*%
X156460000Y-108630000D03*
%TO.P,J4,4,Pin_4*%
%TO.N,unconnected-(J4-Pin_4-Pad4)*%
X156460000Y-111170000D03*
%TO.P,J4,5,Pin_5*%
%TO.N,unconnected-(J4-Pin_5-Pad5)*%
X156460000Y-113710000D03*
%TO.P,J4,6,Pin_6*%
%TO.N,unconnected-(J4-Pin_6-Pad6)*%
X156460000Y-116250000D03*
%TO.P,J4,7,Pin_7*%
%TO.N,GND*%
X156460000Y-118790000D03*
%TO.P,J4,8,Pin_8*%
%TO.N,Net-(J4-Pin_8)*%
X156460000Y-121330000D03*
%TD*%
D33*
%TO.P,J2,1,Pin_1*%
%TO.N,unconnected-(J2-Pin_1-Pad1)*%
X133600000Y-103550000D03*
D34*
%TO.P,J2,2,Pin_2*%
%TO.N,Net-(J2-Pin_2)*%
X133600000Y-106090000D03*
%TO.P,J2,3,Pin_3*%
%TO.N,unconnected-(J2-Pin_3-Pad3)*%
X133600000Y-108630000D03*
%TO.P,J2,4,Pin_4*%
%TO.N,Net-(J2-Pin_4)*%
X133600000Y-111170000D03*
%TO.P,J2,5,Pin_5*%
%TO.N,Net-(J2-Pin_5)*%
X133600000Y-113710000D03*
%TO.P,J2,6,Pin_6*%
%TO.N,Net-(J2-Pin_6)*%
X133600000Y-116250000D03*
%TO.P,J2,7,Pin_7*%
%TO.N,unconnected-(J2-Pin_7-Pad7)*%
X133600000Y-118790000D03*
%TO.P,J2,8,Pin_8*%
%TO.N,unconnected-(J2-Pin_8-Pad8)*%
X133600000Y-121330000D03*
%TD*%
D26*
%TO.P,R4,1*%
%TO.N,Net-(D1-K1)*%
X146880000Y-110250000D03*
%TO.P,R4,2*%
%TO.N,Net-(J2-Pin_5)*%
X151960000Y-110250000D03*
%TD*%
D35*
%TO.P,J1,1,EMI_SIG*%
%TO.N,Net-(J1-EMI_SIG)*%
X137550000Y-77750000D03*
D36*
%TO.P,J1,2,GND*%
%TO.N,GND*%
X136025000Y-79225000D03*
X136025000Y-76275000D03*
%TD*%
D37*
%TO.N,GND*%
X136025000Y-79225000D02*
X139500000Y-82700000D01*
X139500000Y-82700000D02*
X139500000Y-85250000D01*
%TO.N,Net-(J2-Pin_6)*%
X146920000Y-104750000D02*
X135420000Y-116250000D01*
X135420000Y-116250000D02*
X133600000Y-116250000D01*
%TO.N,Net-(Q1-B)*%
X151730000Y-96520000D02*
X151730000Y-87250000D01*
X143500000Y-104750000D02*
X151730000Y-96520000D01*
%TD*%
D38*
X136703734Y-82574800D02*
X136560877Y-82622419D01*
X136560877Y-82622419D02*
X136322782Y-82622419D01*
X136322782Y-82622419D02*
X136227544Y-82574800D01*
X136227544Y-82574800D02*
X136179925Y-82527180D01*
X136179925Y-82527180D02*
X136132306Y-82431942D01*
X136132306Y-82431942D02*
X136132306Y-82336704D01*
X136132306Y-82336704D02*
X136179925Y-82241466D01*
X136179925Y-82241466D02*
X136227544Y-82193847D01*
X136227544Y-82193847D02*
X136322782Y-82146228D01*
X136322782Y-82146228D02*
X136513258Y-82098609D01*
X136513258Y-82098609D02*
X136608496Y-82050990D01*
X136608496Y-82050990D02*
X136656115Y-82003371D01*
X136656115Y-82003371D02*
X136703734Y-81908133D01*
X136703734Y-81908133D02*
X136703734Y-81812895D01*
X136703734Y-81812895D02*
X136656115Y-81717657D01*
X136656115Y-81717657D02*
X136608496Y-81670038D01*
X136608496Y-81670038D02*
X136513258Y-81622419D01*
X136513258Y-81622419D02*
X136275163Y-81622419D01*
X136275163Y-81622419D02*
X136132306Y-81670038D01*
X135703734Y-82622419D02*
X135703734Y-81622419D01*
X134703735Y-81670038D02*
X134798973Y-81622419D01*
X134798973Y-81622419D02*
X134941830Y-81622419D01*
X134941830Y-81622419D02*
X135084687Y-81670038D01*
X135084687Y-81670038D02*
X135179925Y-81765276D01*
X135179925Y-81765276D02*
X135227544Y-81860514D01*
X135227544Y-81860514D02*
X135275163Y-82050990D01*
X135275163Y-82050990D02*
X135275163Y-82193847D01*
X135275163Y-82193847D02*
X135227544Y-82384323D01*
X135227544Y-82384323D02*
X135179925Y-82479561D01*
X135179925Y-82479561D02*
X135084687Y-82574800D01*
X135084687Y-82574800D02*
X134941830Y-82622419D01*
X134941830Y-82622419D02*
X134846592Y-82622419D01*
X134846592Y-82622419D02*
X134703735Y-82574800D01*
X134703735Y-82574800D02*
X134656116Y-82527180D01*
X134656116Y-82527180D02*
X134656116Y-82193847D01*
X134656116Y-82193847D02*
X134846592Y-82193847D01*
X131632306Y-81670038D02*
X131727544Y-81622419D01*
X131727544Y-81622419D02*
X131870401Y-81622419D01*
X131870401Y-81622419D02*
X132013258Y-81670038D01*
X132013258Y-81670038D02*
X132108496Y-81765276D01*
X132108496Y-81765276D02*
X132156115Y-81860514D01*
X132156115Y-81860514D02*
X132203734Y-82050990D01*
X132203734Y-82050990D02*
X132203734Y-82193847D01*
X132203734Y-82193847D02*
X132156115Y-82384323D01*
X132156115Y-82384323D02*
X132108496Y-82479561D01*
X132108496Y-82479561D02*
X132013258Y-82574800D01*
X132013258Y-82574800D02*
X131870401Y-82622419D01*
X131870401Y-82622419D02*
X131775163Y-82622419D01*
X131775163Y-82622419D02*
X131632306Y-82574800D01*
X131632306Y-82574800D02*
X131584687Y-82527180D01*
X131584687Y-82527180D02*
X131584687Y-82193847D01*
X131584687Y-82193847D02*
X131775163Y-82193847D01*
X131156115Y-82622419D02*
X131156115Y-81622419D01*
X131156115Y-81622419D02*
X130918020Y-81622419D01*
X130918020Y-81622419D02*
X130775163Y-81670038D01*
X130775163Y-81670038D02*
X130679925Y-81765276D01*
X130679925Y-81765276D02*
X130632306Y-81860514D01*
X130632306Y-81860514D02*
X130584687Y-82050990D01*
X130584687Y-82050990D02*
X130584687Y-82193847D01*
X130584687Y-82193847D02*
X130632306Y-82384323D01*
X130632306Y-82384323D02*
X130679925Y-82479561D01*
X130679925Y-82479561D02*
X130775163Y-82574800D01*
X130775163Y-82574800D02*
X130918020Y-82622419D01*
X130918020Y-82622419D02*
X131156115Y-82622419D01*
X130156115Y-82622419D02*
X130156115Y-81622419D01*
X130156115Y-81622419D02*
X129584687Y-82622419D01*
X129584687Y-82622419D02*
X129584687Y-81622419D01*
D39*
X136358333Y-74004819D02*
X136358333Y-74719104D01*
X136358333Y-74719104D02*
X136405952Y-74861961D01*
X136405952Y-74861961D02*
X136501190Y-74957200D01*
X136501190Y-74957200D02*
X136644047Y-75004819D01*
X136644047Y-75004819D02*
X136739285Y-75004819D01*
X135358333Y-75004819D02*
X135929761Y-75004819D01*
X135644047Y-75004819D02*
X135644047Y-74004819D01*
X135644047Y-74004819D02*
X135739285Y-74147676D01*
X135739285Y-74147676D02*
X135834523Y-74242914D01*
X135834523Y-74242914D02*
X135929761Y-74290533D01*
D40*
%TO.C,J1*%
X134665000Y-76400000D02*
X134665000Y-79100000D01*
X137385000Y-76350000D02*
X137385000Y-76990000D01*
X137385000Y-76990000D02*
X138015000Y-76990000D01*
X137385000Y-79150000D02*
X137385000Y-78510000D01*
%TD*%
D39*
D41*
X159193922Y-102350211D02*
X159765350Y-102350211D01*
X159479636Y-103350211D02*
X159479636Y-102350211D01*
X160003446Y-102350211D02*
X160670112Y-103350211D01*
X160670112Y-102350211D02*
X160003446Y-103350211D01*
X159908207Y-104960155D02*
X159574874Y-104483964D01*
X159336779Y-104960155D02*
X159336779Y-103960155D01*
X159336779Y-103960155D02*
X159717731Y-103960155D01*
X159717731Y-103960155D02*
X159812969Y-104007774D01*
X159812969Y-104007774D02*
X159860588Y-104055393D01*
X159860588Y-104055393D02*
X159908207Y-104150631D01*
X159908207Y-104150631D02*
X159908207Y-104293488D01*
X159908207Y-104293488D02*
X159860588Y-104388726D01*
X159860588Y-104388726D02*
X159812969Y-104436345D01*
X159812969Y-104436345D02*
X159717731Y-104483964D01*
X159717731Y-104483964D02*
X159336779Y-104483964D01*
X160241541Y-103960155D02*
X160908207Y-104960155D01*
X160908207Y-103960155D02*
X160241541Y-104960155D01*
X159336779Y-106570099D02*
X159336779Y-105570099D01*
X159336779Y-105570099D02*
X159574874Y-105570099D01*
X159574874Y-105570099D02*
X159717731Y-105617718D01*
X159717731Y-105617718D02*
X159812969Y-105712956D01*
X159812969Y-105712956D02*
X159860588Y-105808194D01*
X159860588Y-105808194D02*
X159908207Y-105998670D01*
X159908207Y-105998670D02*
X159908207Y-106141527D01*
X159908207Y-106141527D02*
X159860588Y-106332003D01*
X159860588Y-106332003D02*
X159812969Y-106427241D01*
X159812969Y-106427241D02*
X159717731Y-106522480D01*
X159717731Y-106522480D02*
X159574874Y-106570099D01*
X159574874Y-106570099D02*
X159336779Y-106570099D01*
X160860588Y-106570099D02*
X160289160Y-106570099D01*
X160574874Y-106570099D02*
X160574874Y-105570099D01*
X160574874Y-105570099D02*
X160479636Y-105712956D01*
X160479636Y-105712956D02*
X160384398Y-105808194D01*
X160384398Y-105808194D02*
X160289160Y-105855813D01*
X159336779Y-108180043D02*
X159336779Y-107180043D01*
X159336779Y-107180043D02*
X159574874Y-107180043D01*
X159574874Y-107180043D02*
X159717731Y-107227662D01*
X159717731Y-107227662D02*
X159812969Y-107322900D01*
X159812969Y-107322900D02*
X159860588Y-107418138D01*
X159860588Y-107418138D02*
X159908207Y-107608614D01*
X159908207Y-107608614D02*
X159908207Y-107751471D01*
X159908207Y-107751471D02*
X159860588Y-107941947D01*
X159860588Y-107941947D02*
X159812969Y-108037185D01*
X159812969Y-108037185D02*
X159717731Y-108132424D01*
X159717731Y-108132424D02*
X159574874Y-108180043D01*
X159574874Y-108180043D02*
X159336779Y-108180043D01*
X160289160Y-107275281D02*
X160336779Y-107227662D01*
X160336779Y-107227662D02*
X160432017Y-107180043D01*
X160432017Y-107180043D02*
X160670112Y-107180043D01*
X160670112Y-107180043D02*
X160765350Y-107227662D01*
X160765350Y-107227662D02*
X160812969Y-107275281D01*
X160812969Y-107275281D02*
X160860588Y-107370519D01*
X160860588Y-107370519D02*
X160860588Y-107465757D01*
X160860588Y-107465757D02*
X160812969Y-107608614D01*
X160812969Y-107608614D02*
X160241541Y-108180043D01*
X160241541Y-108180043D02*
X160860588Y-108180043D01*
X159336779Y-109789987D02*
X159336779Y-108789987D01*
X159336779Y-108789987D02*
X159574874Y-108789987D01*
X159574874Y-108789987D02*
X159717731Y-108837606D01*
X159717731Y-108837606D02*
X159812969Y-108932844D01*
X159812969Y-108932844D02*
X159860588Y-109028082D01*
X159860588Y-109028082D02*
X159908207Y-109218558D01*
X159908207Y-109218558D02*
X159908207Y-109361415D01*
X159908207Y-109361415D02*
X159860588Y-109551891D01*
X159860588Y-109551891D02*
X159812969Y-109647129D01*
X159812969Y-109647129D02*
X159717731Y-109742368D01*
X159717731Y-109742368D02*
X159574874Y-109789987D01*
X159574874Y-109789987D02*
X159336779Y-109789987D01*
X160241541Y-108789987D02*
X160860588Y-108789987D01*
X160860588Y-108789987D02*
X160527255Y-109170939D01*
X160527255Y-109170939D02*
X160670112Y-109170939D01*
X160670112Y-109170939D02*
X160765350Y-109218558D01*
X160765350Y-109218558D02*
X160812969Y-109266177D01*
X160812969Y-109266177D02*
X160860588Y-109361415D01*
X160860588Y-109361415D02*
X160860588Y-109599510D01*
X160860588Y-109599510D02*
X160812969Y-109694748D01*
X160812969Y-109694748D02*
X160765350Y-109742368D01*
X160765350Y-109742368D02*
X160670112Y-109789987D01*
X160670112Y-109789987D02*
X160384398Y-109789987D01*
X160384398Y-109789987D02*
X160289160Y-109742368D01*
X160289160Y-109742368D02*
X160241541Y-109694748D01*
X159336779Y-111399931D02*
X159336779Y-110399931D01*
X159336779Y-110399931D02*
X159574874Y-110399931D01*
X159574874Y-110399931D02*
X159717731Y-110447550D01*
X159717731Y-110447550D02*
X159812969Y-110542788D01*
X159812969Y-110542788D02*
X159860588Y-110638026D01*
X159860588Y-110638026D02*
X159908207Y-110828502D01*
X159908207Y-110828502D02*
X159908207Y-110971359D01*
X159908207Y-110971359D02*
X159860588Y-111161835D01*
X159860588Y-111161835D02*
X159812969Y-111257073D01*
X159812969Y-111257073D02*
X159717731Y-111352312D01*
X159717731Y-111352312D02*
X159574874Y-111399931D01*
X159574874Y-111399931D02*
X159336779Y-111399931D01*
X160765350Y-110733264D02*
X160765350Y-111399931D01*
X160527255Y-110352312D02*
X160289160Y-111066597D01*
X160289160Y-111066597D02*
X160908207Y-111066597D01*
X159860588Y-112057494D02*
X159765350Y-112009875D01*
X159765350Y-112009875D02*
X159622493Y-112009875D01*
X159622493Y-112009875D02*
X159479636Y-112057494D01*
X159479636Y-112057494D02*
X159384398Y-112152732D01*
X159384398Y-112152732D02*
X159336779Y-112247970D01*
X159336779Y-112247970D02*
X159289160Y-112438446D01*
X159289160Y-112438446D02*
X159289160Y-112581303D01*
X159289160Y-112581303D02*
X159336779Y-112771779D01*
X159336779Y-112771779D02*
X159384398Y-112867017D01*
X159384398Y-112867017D02*
X159479636Y-112962256D01*
X159479636Y-112962256D02*
X159622493Y-113009875D01*
X159622493Y-113009875D02*
X159717731Y-113009875D01*
X159717731Y-113009875D02*
X159860588Y-112962256D01*
X159860588Y-112962256D02*
X159908207Y-112914636D01*
X159908207Y-112914636D02*
X159908207Y-112581303D01*
X159908207Y-112581303D02*
X159717731Y-112581303D01*
X160336779Y-113009875D02*
X160336779Y-112009875D01*
X160336779Y-112009875D02*
X160908207Y-113009875D01*
X160908207Y-113009875D02*
X160908207Y-112009875D01*
X161384398Y-113009875D02*
X161384398Y-112009875D01*
X161384398Y-112009875D02*
X161622493Y-112009875D01*
X161622493Y-112009875D02*
X161765350Y-112057494D01*
X161765350Y-112057494D02*
X161860588Y-112152732D01*
X161860588Y-112152732D02*
X161908207Y-112247970D01*
X161908207Y-112247970D02*
X161955826Y-112438446D01*
X161955826Y-112438446D02*
X161955826Y-112581303D01*
X161955826Y-112581303D02*
X161908207Y-112771779D01*
X161908207Y-112771779D02*
X161860588Y-112867017D01*
X161860588Y-112867017D02*
X161765350Y-112962256D01*
X161765350Y-112962256D02*
X161622493Y-113009875D01*
X161622493Y-113009875D02*
X161384398Y-113009875D01*
X159812969Y-113619819D02*
X159336779Y-113619819D01*
X159336779Y-113619819D02*
X159289160Y-114096009D01*
X159289160Y-114096009D02*
X159336779Y-114048390D01*
X159336779Y-114048390D02*
X159432017Y-114000771D01*
X159432017Y-114000771D02*
X159670112Y-114000771D01*
X159670112Y-114000771D02*
X159765350Y-114048390D01*
X159765350Y-114048390D02*
X159812969Y-114096009D01*
X159812969Y-114096009D02*
X159860588Y-114191247D01*
X159860588Y-114191247D02*
X159860588Y-114429342D01*
X159860588Y-114429342D02*
X159812969Y-114524580D01*
X159812969Y-114524580D02*
X159765350Y-114572200D01*
X159765350Y-114572200D02*
X159670112Y-114619819D01*
X159670112Y-114619819D02*
X159432017Y-114619819D01*
X159432017Y-114619819D02*
X159336779Y-114572200D01*
X159336779Y-114572200D02*
X159289160Y-114524580D01*
X160146303Y-113619819D02*
X160479636Y-114619819D01*
X160479636Y-114619819D02*
X160812969Y-113619819D01*
D25*
%TO.P,C2A1,1*%
%TO.N,Net-(J2-Pin_2)*%
X139500000Y-87750000D03*
%TO.P,C2A1,2*%
%TO.N,GND*%
X139500000Y-85250000D03*
%TD*%
D26*
%TO.P,R5,1*%
%TO.N,Net-(J3-IR_LED+)*%
X158210000Y-85750000D03*
%TO.P,R5,2*%
%TO.N,Net-(J4-Pin_8)*%
X163290000Y-85750000D03*
%TD*%
D27*
%TO.P,D1,1,K1*%
%TO.N,Net-(D1-K1)*%
X142920000Y-96750000D03*
D28*
%TO.P,D1,2,A*%
%TO.N,GND*%
X145460000Y-96750000D03*
%TO.P,D1,3,K2*%
%TO.N,Net-(D1-K2)*%
X148000000Y-96750000D03*
%TD*%
D29*
%TO.P,Q1,1,E*%
%TO.N,GND*%
X150460000Y-87250000D03*
D30*
%TO.P,Q1,2,B*%
%TO.N,Net-(Q1-B)*%
X151730000Y-87250000D03*
%TO.P,Q1,3,C*%
%TO.N,Net-(J3-IR_LED-)*%
X153000000Y-87250000D03*
%TD*%
D26*
%TO.P,R2,1*%
%TO.N,Net-(J2-Pin_4)*%
X138420000Y-104750000D03*
%TO.P,R2,2*%
%TO.N,Net-(Q1-B)*%
X143500000Y-104750000D03*
%TD*%
D31*
%TO.P,J3,1,IR_LED+*%
%TO.N,Net-(J3-IR_LED+)*%
X153500000Y-77250000D03*
D32*
%TO.P,J3,2,IR_LED-*%
%TO.N,Net-(J3-IR_LED-)*%
X155500000Y-77250000D03*
%TD*%
D33*
%TO.P,J5,1,VCC*%
%TO.N,Net-(J4-Pin_8)*%
X162000000Y-92250000D03*
D34*
%TO.P,J5,2,DATA*%
%TO.N,Net-(J4-Pin_3)*%
X162000000Y-94790000D03*
%TO.P,J5,3,GND*%
%TO.N,GND*%
X162000000Y-97330000D03*
%TD*%
D26*
%TO.P,R3,1*%
%TO.N,Net-(J2-Pin_6)*%
X146920000Y-104750000D03*
%TO.P,R3,2*%
%TO.N,Net-(D1-K2)*%
X152000000Y-104750000D03*
%TD*%
%TO.P,R1,1*%
%TO.N,Net-(J1-EMI_SIG)*%
X138500000Y-93000000D03*
%TO.P,R1,2*%
%TO.N,Net-(J2-Pin_2)*%
X133420000Y-93000000D03*
%TD*%
D25*
%TO.P,C1,1*%
%TO.N,Net-(J2-Pin_2)*%
X132750000Y-88000000D03*
%TO.P,C1,2*%
%TO.N,GND*%
X132750000Y-85500000D03*
%TD*%
D33*
%TO.P,J4,1,Pin_1*%
%TO.N,unconnected-(J4-Pin_1-Pad1)*%
X156460000Y-103550000D03*
D34*
%TO.P,J4,2,Pin_2*%
%TO.N,unconnected-(J4-Pin_2-Pad2)*%
X156460000Y-106090000D03*
%TO.P,J4,3,Pin_3*%
%TO.N,Net-(J4-Pin_3)*%
X156460000Y-108630000D03*
%TO.P,J4,4,Pin_4*%
%TO.N,unconnected-(J4-Pin_4-Pad4)*%
X156460000Y-111170000D03*
%TO.P,J4,5,Pin_5*%
%TO.N,unconnected-(J4-Pin_5-Pad5)*%
X156460000Y-113710000D03*
%TO.P,J4,6,Pin_6*%
%TO.N,unconnected-(J4-Pin_6-Pad6)*%
X156460000Y-116250000D03*
%TO.P,J4,7,Pin_7*%
%TO.N,GND*%
X156460000Y-118790000D03*
%TO.P,J4,8,Pin_8*%
%TO.N,Net-(J4-Pin_8)*%
X156460000Y-121330000D03*
%TD*%
D33*
%TO.P,J2,1,Pin_1*%
%TO.N,unconnected-(J2-Pin_1-Pad1)*%
X133600000Y-103550000D03*
D34*
%TO.P,J2,2,Pin_2*%
%TO.N,Net-(J2-Pin_2)*%
X133600000Y-106090000D03*
%TO.P,J2,3,Pin_3*%
%TO.N,unconnected-(J2-Pin_3-Pad3)*%
X133600000Y-108630000D03*
%TO.P,J2,4,Pin_4*%
%TO.N,Net-(J2-Pin_4)*%
X133600000Y-111170000D03*
%TO.P,J2,5,Pin_5*%
%TO.N,Net-(J2-Pin_5)*%
X133600000Y-113710000D03*
%TO.P,J2,6,Pin_6*%
%TO.N,Net-(J2-Pin_6)*%
X133600000Y-116250000D03*
%TO.P,J2,7,Pin_7*%
%TO.N,unconnected-(J2-Pin_7-Pad7)*%
X133600000Y-118790000D03*
%TO.P,J2,8,Pin_8*%
%TO.N,unconnected-(J2-Pin_8-Pad8)*%
X133600000Y-121330000D03*
%TD*%
D26*
%TO.P,R4,1*%
%TO.N,Net-(D1-K1)*%
X146880000Y-110250000D03*
%TO.P,R4,2*%
%TO.N,Net-(J2-Pin_5)*%
X151960000Y-110250000D03*
%TD*%
D37*
%TO.N,Net-(J2-Pin_2)*%
X132449000Y-93971000D02*
X132449000Y-104939000D01*
X132750000Y-92000000D02*
X132750000Y-88000000D01*
X133420000Y-92670000D02*
X132750000Y-92000000D01*
X139250000Y-88000000D02*
X139500000Y-87750000D01*
X132750000Y-88000000D02*
X139250000Y-88000000D01*
X133420000Y-93000000D02*
X132449000Y-93971000D01*
X132449000Y-104939000D02*
X133600000Y-106090000D01*
X133420000Y-93000000D02*
X133420000Y-92670000D01*
%TO.N,Net-(J2-Pin_5)*%
X148500000Y-113710000D02*
X133600000Y-113710000D01*
X151960000Y-110250000D02*
X148500000Y-113710000D01*
%TO.N,Net-(J2-Pin_4)*%
X138420000Y-104750000D02*
X138420000Y-106350000D01*
X138420000Y-106350000D02*
X133600000Y-111170000D01*
%TO.N,Net-(J4-Pin_3)*%
X162000000Y-94790000D02*
X158812922Y-97977078D01*
X158812922Y-97977078D02*
X158812922Y-106277078D01*
X158812922Y-106277078D02*
X156460000Y-108630000D01*
%TO.N,Net-(D1-K1)*%
X142499000Y-97171000D02*
X142499000Y-105869000D01*
X142920000Y-96750000D02*
X142499000Y-97171000D01*
X142499000Y-105869000D02*
X146880000Y-110250000D01*
%TD*%
D10*
%TO.C,C2A1*%
X139500000Y-87750000D03*
X139500000Y-85250000D03*
%TD*%
D11*
%TO.C,REF\u002A\u002A*%
X128500000Y-78550000D03*
%TD*%
D12*
%TO.C,REF\u002A\u002A*%
X128100000Y-120850000D03*
%TD*%
D13*
%TO.C,R5*%
X158210000Y-85750000D03*
X163290000Y-85750000D03*
%TD*%
D14*
%TO.C,REF\u002A\u002A*%
X161750000Y-78250000D03*
%TD*%
D15*
%TO.C,D1*%
X142920000Y-96750000D03*
D16*
X145460000Y-96750000D03*
X148000000Y-96750000D03*
%TD*%
D17*
%TO.C,Q1*%
X150460000Y-87250000D03*
D18*
X151730000Y-87250000D03*
X153000000Y-87250000D03*
%TD*%
D13*
%TO.C,R2*%
X138420000Y-104750000D03*
X143500000Y-104750000D03*
%TD*%
D19*
%TO.C,J3*%
X153500000Y-77250000D03*
D20*
X155500000Y-77250000D03*
%TD*%
D21*
%TO.C,J5*%
X162000000Y-92250000D03*
D22*
X162000000Y-94790000D03*
X162000000Y-97330000D03*
%TD*%
D13*
%TO.C,R3*%
X146920000Y-104750000D03*
X152000000Y-104750000D03*
%TD*%
%TO.C,R1*%
X138500000Y-93000000D03*
X133420000Y-93000000D03*
%TD*%
D10*
%TO.C,C1*%
X132750000Y-88000000D03*
X132750000Y-85500000D03*
%TD*%
D21*
%TO.C,J4*%
X156460000Y-103550000D03*
D22*
X156460000Y-106090000D03*
X156460000Y-108630000D03*
X156460000Y-111170000D03*
X156460000Y-113710000D03*
X156460000Y-116250000D03*
X156460000Y-118790000D03*
X156460000Y-121330000D03*
%TD*%
D14*
%TO.C,REF\u002A\u002A*%
X161750000Y-120750000D03*
%TD*%
D21*
%TO.C,J2*%
X133600000Y-103550000D03*
D22*
X133600000Y-106090000D03*
X133600000Y-108630000D03*
X133600000Y-111170000D03*
X133600000Y-113710000D03*
X133600000Y-116250000D03*
X133600000Y-118790000D03*
X133600000Y-121330000D03*
%TD*%
D13*
%TO.C,R4*%
X146880000Y-110250000D03*
X151960000Y-110250000D03*
%TD*%
D38*
X151288884Y-80741466D02*
X152050789Y-80741466D01*
X151669836Y-81122419D02*
X151669836Y-80360514D01*
X151168646Y-101622419D02*
X151787693Y-101622419D01*
X151787693Y-101622419D02*
X151454360Y-102003371D01*
X151454360Y-102003371D02*
X151597217Y-102003371D01*
X151597217Y-102003371D02*
X151692455Y-102050990D01*
X151692455Y-102050990D02*
X151740074Y-102098609D01*
X151740074Y-102098609D02*
X151787693Y-102193847D01*
X151787693Y-102193847D02*
X151787693Y-102431942D01*
X151787693Y-102431942D02*
X151740074Y-102527180D01*
X151740074Y-102527180D02*
X151692455Y-102574800D01*
X151692455Y-102574800D02*
X151597217Y-102622419D01*
X151597217Y-102622419D02*
X151311503Y-102622419D01*
X151311503Y-102622419D02*
X151216265Y-102574800D01*
X151216265Y-102574800D02*
X151168646Y-102527180D01*
X152121027Y-101622419D02*
X152740074Y-101622419D01*
X152740074Y-101622419D02*
X152406741Y-102003371D01*
X152406741Y-102003371D02*
X152549598Y-102003371D01*
X152549598Y-102003371D02*
X152644836Y-102050990D01*
X152644836Y-102050990D02*
X152692455Y-102098609D01*
X152692455Y-102098609D02*
X152740074Y-102193847D01*
X152740074Y-102193847D02*
X152740074Y-102431942D01*
X152740074Y-102431942D02*
X152692455Y-102527180D01*
X152692455Y-102527180D02*
X152644836Y-102574800D01*
X152644836Y-102574800D02*
X152549598Y-102622419D01*
X152549598Y-102622419D02*
X152263884Y-102622419D01*
X152263884Y-102622419D02*
X152168646Y-102574800D01*
X152168646Y-102574800D02*
X152121027Y-102527180D01*
X153359122Y-101622419D02*
X153454360Y-101622419D01*
X153454360Y-101622419D02*
X153549598Y-101670038D01*
X153549598Y-101670038D02*
X153597217Y-101717657D01*
X153597217Y-101717657D02*
X153644836Y-101812895D01*
X153644836Y-101812895D02*
X153692455Y-102003371D01*
X153692455Y-102003371D02*
X153692455Y-102241466D01*
X153692455Y-102241466D02*
X153644836Y-102431942D01*
X153644836Y-102431942D02*
X153597217Y-102527180D01*
X153597217Y-102527180D02*
X153549598Y-102574800D01*
X153549598Y-102574800D02*
X153454360Y-102622419D01*
X153454360Y-102622419D02*
X153359122Y-102622419D01*
X153359122Y-102622419D02*
X153263884Y-102574800D01*
X153263884Y-102574800D02*
X153216265Y-102527180D01*
X153216265Y-102527180D02*
X153168646Y-102431942D01*
X153168646Y-102431942D02*
X153121027Y-102241466D01*
X153121027Y-102241466D02*
X153121027Y-102003371D01*
X153121027Y-102003371D02*
X153168646Y-101812895D01*
X153168646Y-101812895D02*
X153216265Y-101717657D01*
X153216265Y-101717657D02*
X153263884Y-101670038D01*
X153263884Y-101670038D02*
X153359122Y-101622419D01*
X159053884Y-92521578D02*
X159815789Y-92521578D01*
X159434836Y-92902531D02*
X159434836Y-92140626D01*
X159053884Y-94512475D02*
X159053884Y-93512475D01*
X159053884Y-93512475D02*
X159291979Y-93512475D01*
X159291979Y-93512475D02*
X159434836Y-93560094D01*
X159434836Y-93560094D02*
X159530074Y-93655332D01*
X159530074Y-93655332D02*
X159577693Y-93750570D01*
X159577693Y-93750570D02*
X159625312Y-93941046D01*
X159625312Y-93941046D02*
X159625312Y-94083903D01*
X159625312Y-94083903D02*
X159577693Y-94274379D01*
X159577693Y-94274379D02*
X159530074Y-94369617D01*
X159530074Y-94369617D02*
X159434836Y-94464856D01*
X159434836Y-94464856D02*
X159291979Y-94512475D01*
X159291979Y-94512475D02*
X159053884Y-94512475D01*
X159053884Y-95741466D02*
X159815789Y-95741466D01*
X143160859Y-103040081D02*
X142589431Y-103040081D01*
X142875145Y-103040081D02*
X142875145Y-102040081D01*
X142875145Y-102040081D02*
X142779907Y-102182938D01*
X142779907Y-102182938D02*
X142684669Y-102278176D01*
X142684669Y-102278176D02*
X142589431Y-102325795D01*
X143589431Y-103040081D02*
X143589431Y-102040081D01*
X143684669Y-102659128D02*
X143970383Y-103040081D01*
X143970383Y-102373414D02*
X143589431Y-102754366D01*
X151548646Y-108202419D02*
X152167693Y-108202419D01*
X152167693Y-108202419D02*
X151834360Y-108583371D01*
X151834360Y-108583371D02*
X151977217Y-108583371D01*
X151977217Y-108583371D02*
X152072455Y-108630990D01*
X152072455Y-108630990D02*
X152120074Y-108678609D01*
X152120074Y-108678609D02*
X152167693Y-108773847D01*
X152167693Y-108773847D02*
X152167693Y-109011942D01*
X152167693Y-109011942D02*
X152120074Y-109107180D01*
X152120074Y-109107180D02*
X152072455Y-109154800D01*
X152072455Y-109154800D02*
X151977217Y-109202419D01*
X151977217Y-109202419D02*
X151691503Y-109202419D01*
X151691503Y-109202419D02*
X151596265Y-109154800D01*
X151596265Y-109154800D02*
X151548646Y-109107180D01*
X152501027Y-108202419D02*
X153120074Y-108202419D01*
X153120074Y-108202419D02*
X152786741Y-108583371D01*
X152786741Y-108583371D02*
X152929598Y-108583371D01*
X152929598Y-108583371D02*
X153024836Y-108630990D01*
X153024836Y-108630990D02*
X153072455Y-108678609D01*
X153072455Y-108678609D02*
X153120074Y-108773847D01*
X153120074Y-108773847D02*
X153120074Y-109011942D01*
X153120074Y-109011942D02*
X153072455Y-109107180D01*
X153072455Y-109107180D02*
X153024836Y-109154800D01*
X153024836Y-109154800D02*
X152929598Y-109202419D01*
X152929598Y-109202419D02*
X152643884Y-109202419D01*
X152643884Y-109202419D02*
X152548646Y-109154800D01*
X152548646Y-109154800D02*
X152501027Y-109107180D01*
X153739122Y-108202419D02*
X153834360Y-108202419D01*
X153834360Y-108202419D02*
X153929598Y-108250038D01*
X153929598Y-108250038D02*
X153977217Y-108297657D01*
X153977217Y-108297657D02*
X154024836Y-108392895D01*
X154024836Y-108392895D02*
X154072455Y-108583371D01*
X154072455Y-108583371D02*
X154072455Y-108821466D01*
X154072455Y-108821466D02*
X154024836Y-109011942D01*
X154024836Y-109011942D02*
X153977217Y-109107180D01*
X153977217Y-109107180D02*
X153929598Y-109154800D01*
X153929598Y-109154800D02*
X153834360Y-109202419D01*
X153834360Y-109202419D02*
X153739122Y-109202419D01*
X153739122Y-109202419D02*
X153643884Y-109154800D01*
X153643884Y-109154800D02*
X153596265Y-109107180D01*
X153596265Y-109107180D02*
X153548646Y-109011942D01*
X153548646Y-109011942D02*
X153501027Y-108821466D01*
X153501027Y-108821466D02*
X153501027Y-108583371D01*
X153501027Y-108583371D02*
X153548646Y-108392895D01*
X153548646Y-108392895D02*
X153596265Y-108297657D01*
X153596265Y-108297657D02*
X153643884Y-108250038D01*
X153643884Y-108250038D02*
X153739122Y-108202419D01*
X134827693Y-91372419D02*
X134256265Y-91372419D01*
X134541979Y-91372419D02*
X134541979Y-90372419D01*
X134541979Y-90372419D02*
X134446741Y-90515276D01*
X134446741Y-90515276D02*
X134351503Y-90610514D01*
X134351503Y-90610514D02*
X134256265Y-90658133D01*
X135446741Y-90372419D02*
X135541979Y-90372419D01*
X135541979Y-90372419D02*
X135637217Y-90420038D01*
X135637217Y-90420038D02*
X135684836Y-90467657D01*
X135684836Y-90467657D02*
X135732455Y-90562895D01*
X135732455Y-90562895D02*
X135780074Y-90753371D01*
X135780074Y-90753371D02*
X135780074Y-90991466D01*
X135780074Y-90991466D02*
X135732455Y-91181942D01*
X135732455Y-91181942D02*
X135684836Y-91277180D01*
X135684836Y-91277180D02*
X135637217Y-91324800D01*
X135637217Y-91324800D02*
X135541979Y-91372419D01*
X135541979Y-91372419D02*
X135446741Y-91372419D01*
X135446741Y-91372419D02*
X135351503Y-91324800D01*
X135351503Y-91324800D02*
X135303884Y-91277180D01*
X135303884Y-91277180D02*
X135256265Y-91181942D01*
X135256265Y-91181942D02*
X135208646Y-90991466D01*
X135208646Y-90991466D02*
X135208646Y-90753371D01*
X135208646Y-90753371D02*
X135256265Y-90562895D01*
X135256265Y-90562895D02*
X135303884Y-90467657D01*
X135303884Y-90467657D02*
X135351503Y-90420038D01*
X135351503Y-90420038D02*
X135446741Y-90372419D01*
X136399122Y-90372419D02*
X136494360Y-90372419D01*
X136494360Y-90372419D02*
X136589598Y-90420038D01*
X136589598Y-90420038D02*
X136637217Y-90467657D01*
X136637217Y-90467657D02*
X136684836Y-90562895D01*
X136684836Y-90562895D02*
X136732455Y-90753371D01*
X136732455Y-90753371D02*
X136732455Y-90991466D01*
X136732455Y-90991466D02*
X136684836Y-91181942D01*
X136684836Y-91181942D02*
X136637217Y-91277180D01*
X136637217Y-91277180D02*
X136589598Y-91324800D01*
X136589598Y-91324800D02*
X136494360Y-91372419D01*
X136494360Y-91372419D02*
X136399122Y-91372419D01*
X136399122Y-91372419D02*
X136303884Y-91324800D01*
X136303884Y-91324800D02*
X136256265Y-91277180D01*
X136256265Y-91277180D02*
X136208646Y-91181942D01*
X136208646Y-91181942D02*
X136161027Y-90991466D01*
X136161027Y-90991466D02*
X136161027Y-90753371D01*
X136161027Y-90753371D02*
X136208646Y-90562895D01*
X136208646Y-90562895D02*
X136256265Y-90467657D01*
X136256265Y-90467657D02*
X136303884Y-90420038D01*
X136303884Y-90420038D02*
X136399122Y-90372419D01*
X137161027Y-91372419D02*
X137161027Y-90372419D01*
X137732455Y-91372419D02*
X137303884Y-90800990D01*
X137732455Y-90372419D02*
X137161027Y-90943847D01*
X139625312Y-97372419D02*
X139291979Y-96896228D01*
X139053884Y-97372419D02*
X139053884Y-96372419D01*
X139053884Y-96372419D02*
X139434836Y-96372419D01*
X139434836Y-96372419D02*
X139530074Y-96420038D01*
X139530074Y-96420038D02*
X139577693Y-96467657D01*
X139577693Y-96467657D02*
X139625312Y-96562895D01*
X139625312Y-96562895D02*
X139625312Y-96705752D01*
X139625312Y-96705752D02*
X139577693Y-96800990D01*
X139577693Y-96800990D02*
X139530074Y-96848609D01*
X139530074Y-96848609D02*
X139434836Y-96896228D01*
X139434836Y-96896228D02*
X139053884Y-96896228D01*
X140053884Y-96848609D02*
X140387217Y-96848609D01*
X140530074Y-97372419D02*
X140053884Y-97372419D01*
X140053884Y-97372419D02*
X140053884Y-96372419D01*
X140053884Y-96372419D02*
X140530074Y-96372419D01*
X140958646Y-97372419D02*
X140958646Y-96372419D01*
X140958646Y-96372419D02*
X141196741Y-96372419D01*
X141196741Y-96372419D02*
X141339598Y-96420038D01*
X141339598Y-96420038D02*
X141434836Y-96515276D01*
X141434836Y-96515276D02*
X141482455Y-96610514D01*
X141482455Y-96610514D02*
X141530074Y-96800990D01*
X141530074Y-96800990D02*
X141530074Y-96943847D01*
X141530074Y-96943847D02*
X141482455Y-97134323D01*
X141482455Y-97134323D02*
X141434836Y-97229561D01*
X141434836Y-97229561D02*
X141339598Y-97324800D01*
X141339598Y-97324800D02*
X141196741Y-97372419D01*
X141196741Y-97372419D02*
X140958646Y-97372419D01*
X155263884Y-80741466D02*
X156025789Y-80741466D01*
X154375312Y-84777180D02*
X154327693Y-84824800D01*
X154327693Y-84824800D02*
X154184836Y-84872419D01*
X154184836Y-84872419D02*
X154089598Y-84872419D01*
X154089598Y-84872419D02*
X153946741Y-84824800D01*
X153946741Y-84824800D02*
X153851503Y-84729561D01*
X153851503Y-84729561D02*
X153803884Y-84634323D01*
X153803884Y-84634323D02*
X153756265Y-84443847D01*
X153756265Y-84443847D02*
X153756265Y-84300990D01*
X153756265Y-84300990D02*
X153803884Y-84110514D01*
X153803884Y-84110514D02*
X153851503Y-84015276D01*
X153851503Y-84015276D02*
X153946741Y-83920038D01*
X153946741Y-83920038D02*
X154089598Y-83872419D01*
X154089598Y-83872419D02*
X154184836Y-83872419D01*
X154184836Y-83872419D02*
X154327693Y-83920038D01*
X154327693Y-83920038D02*
X154375312Y-83967657D01*
X149827693Y-95920038D02*
X149732455Y-95872419D01*
X149732455Y-95872419D02*
X149589598Y-95872419D01*
X149589598Y-95872419D02*
X149446741Y-95920038D01*
X149446741Y-95920038D02*
X149351503Y-96015276D01*
X149351503Y-96015276D02*
X149303884Y-96110514D01*
X149303884Y-96110514D02*
X149256265Y-96300990D01*
X149256265Y-96300990D02*
X149256265Y-96443847D01*
X149256265Y-96443847D02*
X149303884Y-96634323D01*
X149303884Y-96634323D02*
X149351503Y-96729561D01*
X149351503Y-96729561D02*
X149446741Y-96824800D01*
X149446741Y-96824800D02*
X149589598Y-96872419D01*
X149589598Y-96872419D02*
X149684836Y-96872419D01*
X149684836Y-96872419D02*
X149827693Y-96824800D01*
X149827693Y-96824800D02*
X149875312Y-96777180D01*
X149875312Y-96777180D02*
X149875312Y-96443847D01*
X149875312Y-96443847D02*
X149684836Y-96443847D01*
X150303884Y-96872419D02*
X150303884Y-96205752D01*
X150303884Y-96396228D02*
X150351503Y-96300990D01*
X150351503Y-96300990D02*
X150399122Y-96253371D01*
X150399122Y-96253371D02*
X150494360Y-96205752D01*
X150494360Y-96205752D02*
X150589598Y-96205752D01*
X151303884Y-96824800D02*
X151208646Y-96872419D01*
X151208646Y-96872419D02*
X151018170Y-96872419D01*
X151018170Y-96872419D02*
X150922932Y-96824800D01*
X150922932Y-96824800D02*
X150875313Y-96729561D01*
X150875313Y-96729561D02*
X150875313Y-96348609D01*
X150875313Y-96348609D02*
X150922932Y-96253371D01*
X150922932Y-96253371D02*
X151018170Y-96205752D01*
X151018170Y-96205752D02*
X151208646Y-96205752D01*
X151208646Y-96205752D02*
X151303884Y-96253371D01*
X151303884Y-96253371D02*
X151351503Y-96348609D01*
X151351503Y-96348609D02*
X151351503Y-96443847D01*
X151351503Y-96443847D02*
X150875313Y-96539085D01*
X152161027Y-96824800D02*
X152065789Y-96872419D01*
X152065789Y-96872419D02*
X151875313Y-96872419D01*
X151875313Y-96872419D02*
X151780075Y-96824800D01*
X151780075Y-96824800D02*
X151732456Y-96729561D01*
X151732456Y-96729561D02*
X151732456Y-96348609D01*
X151732456Y-96348609D02*
X151780075Y-96253371D01*
X151780075Y-96253371D02*
X151875313Y-96205752D01*
X151875313Y-96205752D02*
X152065789Y-96205752D01*
X152065789Y-96205752D02*
X152161027Y-96253371D01*
X152161027Y-96253371D02*
X152208646Y-96348609D01*
X152208646Y-96348609D02*
X152208646Y-96443847D01*
X152208646Y-96443847D02*
X151732456Y-96539085D01*
X152637218Y-96205752D02*
X152637218Y-96872419D01*
X152637218Y-96300990D02*
X152684837Y-96253371D01*
X152684837Y-96253371D02*
X152780075Y-96205752D01*
X152780075Y-96205752D02*
X152922932Y-96205752D01*
X152922932Y-96205752D02*
X153018170Y-96253371D01*
X153018170Y-96253371D02*
X153065789Y-96348609D01*
X153065789Y-96348609D02*
X153065789Y-96872419D01*
X149303884Y-84348609D02*
X149637217Y-84348609D01*
X149780074Y-84872419D02*
X149303884Y-84872419D01*
X149303884Y-84872419D02*
X149303884Y-83872419D01*
X149303884Y-83872419D02*
X149780074Y-83872419D01*
D39*
X128908207Y-103350211D02*
X128574874Y-102874020D01*
X128336779Y-103350211D02*
X128336779Y-102350211D01*
X128336779Y-102350211D02*
X128717731Y-102350211D01*
X128717731Y-102350211D02*
X128812969Y-102397830D01*
X128812969Y-102397830D02*
X128860588Y-102445449D01*
X128860588Y-102445449D02*
X128908207Y-102540687D01*
X128908207Y-102540687D02*
X128908207Y-102683544D01*
X128908207Y-102683544D02*
X128860588Y-102778782D01*
X128860588Y-102778782D02*
X128812969Y-102826401D01*
X128812969Y-102826401D02*
X128717731Y-102874020D01*
X128717731Y-102874020D02*
X128336779Y-102874020D01*
X129289160Y-103302592D02*
X129432017Y-103350211D01*
X129432017Y-103350211D02*
X129670112Y-103350211D01*
X129670112Y-103350211D02*
X129765350Y-103302592D01*
X129765350Y-103302592D02*
X129812969Y-103254972D01*
X129812969Y-103254972D02*
X129860588Y-103159734D01*
X129860588Y-103159734D02*
X129860588Y-103064496D01*
X129860588Y-103064496D02*
X129812969Y-102969258D01*
X129812969Y-102969258D02*
X129765350Y-102921639D01*
X129765350Y-102921639D02*
X129670112Y-102874020D01*
X129670112Y-102874020D02*
X129479636Y-102826401D01*
X129479636Y-102826401D02*
X129384398Y-102778782D01*
X129384398Y-102778782D02*
X129336779Y-102731163D01*
X129336779Y-102731163D02*
X129289160Y-102635925D01*
X129289160Y-102635925D02*
X129289160Y-102540687D01*
X129289160Y-102540687D02*
X129336779Y-102445449D01*
X129336779Y-102445449D02*
X129384398Y-102397830D01*
X129384398Y-102397830D02*
X129479636Y-102350211D01*
X129479636Y-102350211D02*
X129717731Y-102350211D01*
X129717731Y-102350211D02*
X129860588Y-102397830D01*
X130146303Y-102350211D02*
X130717731Y-102350211D01*
X130432017Y-103350211D02*
X130432017Y-102350211D01*
X128289160Y-104674440D02*
X128765350Y-104674440D01*
X128193922Y-104960155D02*
X128527255Y-103960155D01*
X128527255Y-103960155D02*
X128860588Y-104960155D01*
X129384398Y-103960155D02*
X129479636Y-103960155D01*
X129479636Y-103960155D02*
X129574874Y-104007774D01*
X129574874Y-104007774D02*
X129622493Y-104055393D01*
X129622493Y-104055393D02*
X129670112Y-104150631D01*
X129670112Y-104150631D02*
X129717731Y-104341107D01*
X129717731Y-104341107D02*
X129717731Y-104579202D01*
X129717731Y-104579202D02*
X129670112Y-104769678D01*
X129670112Y-104769678D02*
X129622493Y-104864916D01*
X129622493Y-104864916D02*
X129574874Y-104912536D01*
X129574874Y-104912536D02*
X129479636Y-104960155D01*
X129479636Y-104960155D02*
X129384398Y-104960155D01*
X129384398Y-104960155D02*
X129289160Y-104912536D01*
X129289160Y-104912536D02*
X129241541Y-104864916D01*
X129241541Y-104864916D02*
X129193922Y-104769678D01*
X129193922Y-104769678D02*
X129146303Y-104579202D01*
X129146303Y-104579202D02*
X129146303Y-104341107D01*
X129146303Y-104341107D02*
X129193922Y-104150631D01*
X129193922Y-104150631D02*
X129241541Y-104055393D01*
X129241541Y-104055393D02*
X129289160Y-104007774D01*
X129289160Y-104007774D02*
X129384398Y-103960155D01*
X128336779Y-106570099D02*
X128336779Y-105570099D01*
X128336779Y-105570099D02*
X128574874Y-105570099D01*
X128574874Y-105570099D02*
X128717731Y-105617718D01*
X128717731Y-105617718D02*
X128812969Y-105712956D01*
X128812969Y-105712956D02*
X128860588Y-105808194D01*
X128860588Y-105808194D02*
X128908207Y-105998670D01*
X128908207Y-105998670D02*
X128908207Y-106141527D01*
X128908207Y-106141527D02*
X128860588Y-106332003D01*
X128860588Y-106332003D02*
X128812969Y-106427241D01*
X128812969Y-106427241D02*
X128717731Y-106522480D01*
X128717731Y-106522480D02*
X128574874Y-106570099D01*
X128574874Y-106570099D02*
X128336779Y-106570099D01*
X129527255Y-105570099D02*
X129622493Y-105570099D01*
X129622493Y-105570099D02*
X129717731Y-105617718D01*
X129717731Y-105617718D02*
X129765350Y-105665337D01*
X129765350Y-105665337D02*
X129812969Y-105760575D01*
X129812969Y-105760575D02*
X129860588Y-105951051D01*
X129860588Y-105951051D02*
X129860588Y-106189146D01*
X129860588Y-106189146D02*
X129812969Y-106379622D01*
X129812969Y-106379622D02*
X129765350Y-106474860D01*
X129765350Y-106474860D02*
X129717731Y-106522480D01*
X129717731Y-106522480D02*
X129622493Y-106570099D01*
X129622493Y-106570099D02*
X129527255Y-106570099D01*
X129527255Y-106570099D02*
X129432017Y-106522480D01*
X129432017Y-106522480D02*
X129384398Y-106474860D01*
X129384398Y-106474860D02*
X129336779Y-106379622D01*
X129336779Y-106379622D02*
X129289160Y-106189146D01*
X129289160Y-106189146D02*
X129289160Y-105951051D01*
X129289160Y-105951051D02*
X129336779Y-105760575D01*
X129336779Y-105760575D02*
X129384398Y-105665337D01*
X129384398Y-105665337D02*
X129432017Y-105617718D01*
X129432017Y-105617718D02*
X129527255Y-105570099D01*
X128336779Y-108180043D02*
X128336779Y-107180043D01*
X128336779Y-107180043D02*
X128574874Y-107180043D01*
X128574874Y-107180043D02*
X128717731Y-107227662D01*
X128717731Y-107227662D02*
X128812969Y-107322900D01*
X128812969Y-107322900D02*
X128860588Y-107418138D01*
X128860588Y-107418138D02*
X128908207Y-107608614D01*
X128908207Y-107608614D02*
X128908207Y-107751471D01*
X128908207Y-107751471D02*
X128860588Y-107941947D01*
X128860588Y-107941947D02*
X128812969Y-108037185D01*
X128812969Y-108037185D02*
X128717731Y-108132424D01*
X128717731Y-108132424D02*
X128574874Y-108180043D01*
X128574874Y-108180043D02*
X128336779Y-108180043D01*
X129812969Y-107180043D02*
X129336779Y-107180043D01*
X129336779Y-107180043D02*
X129289160Y-107656233D01*
X129289160Y-107656233D02*
X129336779Y-107608614D01*
X129336779Y-107608614D02*
X129432017Y-107560995D01*
X129432017Y-107560995D02*
X129670112Y-107560995D01*
X129670112Y-107560995D02*
X129765350Y-107608614D01*
X129765350Y-107608614D02*
X129812969Y-107656233D01*
X129812969Y-107656233D02*
X129860588Y-107751471D01*
X129860588Y-107751471D02*
X129860588Y-107989566D01*
X129860588Y-107989566D02*
X129812969Y-108084804D01*
X129812969Y-108084804D02*
X129765350Y-108132424D01*
X129765350Y-108132424D02*
X129670112Y-108180043D01*
X129670112Y-108180043D02*
X129432017Y-108180043D01*
X129432017Y-108180043D02*
X129336779Y-108132424D01*
X129336779Y-108132424D02*
X129289160Y-108084804D01*
X128336779Y-109789987D02*
X128336779Y-108789987D01*
X128336779Y-108789987D02*
X128574874Y-108789987D01*
X128574874Y-108789987D02*
X128717731Y-108837606D01*
X128717731Y-108837606D02*
X128812969Y-108932844D01*
X128812969Y-108932844D02*
X128860588Y-109028082D01*
X128860588Y-109028082D02*
X128908207Y-109218558D01*
X128908207Y-109218558D02*
X128908207Y-109361415D01*
X128908207Y-109361415D02*
X128860588Y-109551891D01*
X128860588Y-109551891D02*
X128812969Y-109647129D01*
X128812969Y-109647129D02*
X128717731Y-109742368D01*
X128717731Y-109742368D02*
X128574874Y-109789987D01*
X128574874Y-109789987D02*
X128336779Y-109789987D01*
X129765350Y-108789987D02*
X129574874Y-108789987D01*
X129574874Y-108789987D02*
X129479636Y-108837606D01*
X129479636Y-108837606D02*
X129432017Y-108885225D01*
X129432017Y-108885225D02*
X129336779Y-109028082D01*
X129336779Y-109028082D02*
X129289160Y-109218558D01*
X129289160Y-109218558D02*
X129289160Y-109599510D01*
X129289160Y-109599510D02*
X129336779Y-109694748D01*
X129336779Y-109694748D02*
X129384398Y-109742368D01*
X129384398Y-109742368D02*
X129479636Y-109789987D01*
X129479636Y-109789987D02*
X129670112Y-109789987D01*
X129670112Y-109789987D02*
X129765350Y-109742368D01*
X129765350Y-109742368D02*
X129812969Y-109694748D01*
X129812969Y-109694748D02*
X129860588Y-109599510D01*
X129860588Y-109599510D02*
X129860588Y-109361415D01*
X129860588Y-109361415D02*
X129812969Y-109266177D01*
X129812969Y-109266177D02*
X129765350Y-109218558D01*
X129765350Y-109218558D02*
X129670112Y-109170939D01*
X129670112Y-109170939D02*
X129479636Y-109170939D01*
X129479636Y-109170939D02*
X129384398Y-109218558D01*
X129384398Y-109218558D02*
X129336779Y-109266177D01*
X129336779Y-109266177D02*
X129289160Y-109361415D01*
X128336779Y-111399931D02*
X128336779Y-110399931D01*
X128336779Y-110399931D02*
X128574874Y-110399931D01*
X128574874Y-110399931D02*
X128717731Y-110447550D01*
X128717731Y-110447550D02*
X128812969Y-110542788D01*
X128812969Y-110542788D02*
X128860588Y-110638026D01*
X128860588Y-110638026D02*
X128908207Y-110828502D01*
X128908207Y-110828502D02*
X128908207Y-110971359D01*
X128908207Y-110971359D02*
X128860588Y-111161835D01*
X128860588Y-111161835D02*
X128812969Y-111257073D01*
X128812969Y-111257073D02*
X128717731Y-111352312D01*
X128717731Y-111352312D02*
X128574874Y-111399931D01*
X128574874Y-111399931D02*
X128336779Y-111399931D01*
X129241541Y-110399931D02*
X129908207Y-110399931D01*
X129908207Y-110399931D02*
X129479636Y-111399931D01*
X128336779Y-113009875D02*
X128336779Y-112009875D01*
X128336779Y-112009875D02*
X128574874Y-112009875D01*
X128574874Y-112009875D02*
X128717731Y-112057494D01*
X128717731Y-112057494D02*
X128812969Y-112152732D01*
X128812969Y-112152732D02*
X128860588Y-112247970D01*
X128860588Y-112247970D02*
X128908207Y-112438446D01*
X128908207Y-112438446D02*
X128908207Y-112581303D01*
X128908207Y-112581303D02*
X128860588Y-112771779D01*
X128860588Y-112771779D02*
X128812969Y-112867017D01*
X128812969Y-112867017D02*
X128717731Y-112962256D01*
X128717731Y-112962256D02*
X128574874Y-113009875D01*
X128574874Y-113009875D02*
X128336779Y-113009875D01*
X129479636Y-112438446D02*
X129384398Y-112390827D01*
X129384398Y-112390827D02*
X129336779Y-112343208D01*
X129336779Y-112343208D02*
X129289160Y-112247970D01*
X129289160Y-112247970D02*
X129289160Y-112200351D01*
X129289160Y-112200351D02*
X129336779Y-112105113D01*
X129336779Y-112105113D02*
X129384398Y-112057494D01*
X129384398Y-112057494D02*
X129479636Y-112009875D01*
X129479636Y-112009875D02*
X129670112Y-112009875D01*
X129670112Y-112009875D02*
X129765350Y-112057494D01*
X129765350Y-112057494D02*
X129812969Y-112105113D01*
X129812969Y-112105113D02*
X129860588Y-112200351D01*
X129860588Y-112200351D02*
X129860588Y-112247970D01*
X129860588Y-112247970D02*
X129812969Y-112343208D01*
X129812969Y-112343208D02*
X129765350Y-112390827D01*
X129765350Y-112390827D02*
X129670112Y-112438446D01*
X129670112Y-112438446D02*
X129479636Y-112438446D01*
X129479636Y-112438446D02*
X129384398Y-112486065D01*
X129384398Y-112486065D02*
X129336779Y-112533684D01*
X129336779Y-112533684D02*
X129289160Y-112628922D01*
X129289160Y-112628922D02*
X129289160Y-112819398D01*
X129289160Y-112819398D02*
X129336779Y-112914636D01*
X129336779Y-112914636D02*
X129384398Y-112962256D01*
X129384398Y-112962256D02*
X129479636Y-113009875D01*
X129479636Y-113009875D02*
X129670112Y-113009875D01*
X129670112Y-113009875D02*
X129765350Y-112962256D01*
X129765350Y-112962256D02*
X129812969Y-112914636D01*
X129812969Y-112914636D02*
X129860588Y-112819398D01*
X129860588Y-112819398D02*
X129860588Y-112628922D01*
X129860588Y-112628922D02*
X129812969Y-112533684D01*
X129812969Y-112533684D02*
X129765350Y-112486065D01*
X129765350Y-112486065D02*
X129670112Y-112438446D01*
X128241541Y-113619819D02*
X128860588Y-113619819D01*
X128860588Y-113619819D02*
X128527255Y-114000771D01*
X128527255Y-114000771D02*
X128670112Y-114000771D01*
X128670112Y-114000771D02*
X128765350Y-114048390D01*
X128765350Y-114048390D02*
X128812969Y-114096009D01*
X128812969Y-114096009D02*
X128860588Y-114191247D01*
X128860588Y-114191247D02*
X128860588Y-114429342D01*
X128860588Y-114429342D02*
X128812969Y-114524580D01*
X128812969Y-114524580D02*
X128765350Y-114572200D01*
X128765350Y-114572200D02*
X128670112Y-114619819D01*
X128670112Y-114619819D02*
X128384398Y-114619819D01*
X128384398Y-114619819D02*
X128289160Y-114572200D01*
X128289160Y-114572200D02*
X128241541Y-114524580D01*
X129146303Y-113619819D02*
X129479636Y-114619819D01*
X129479636Y-114619819D02*
X129812969Y-113619819D01*
X130051065Y-113619819D02*
X130670112Y-113619819D01*
X130670112Y-113619819D02*
X130336779Y-114000771D01*
X130336779Y-114000771D02*
X130479636Y-114000771D01*
X130479636Y-114000771D02*
X130574874Y-114048390D01*
X130574874Y-114048390D02*
X130622493Y-114096009D01*
X130622493Y-114096009D02*
X130670112Y-114191247D01*
X130670112Y-114191247D02*
X130670112Y-114429342D01*
X130670112Y-114429342D02*
X130622493Y-114524580D01*
X130622493Y-114524580D02*
X130574874Y-114572200D01*
X130574874Y-114572200D02*
X130479636Y-114619819D01*
X130479636Y-114619819D02*
X130193922Y-114619819D01*
X130193922Y-114619819D02*
X130098684Y-114572200D01*
X130098684Y-114572200D02*
X130051065Y-114524580D01*
X137359580Y-87571428D02*
X137407200Y-87619047D01*
X137407200Y-87619047D02*
X137454819Y-87761904D01*
X137454819Y-87761904D02*
X137454819Y-87857142D01*
X137454819Y-87857142D02*
X137407200Y-87999999D01*
X137407200Y-87999999D02*
X137311961Y-88095237D01*
X137311961Y-88095237D02*
X137216723Y-88142856D01*
X137216723Y-88142856D02*
X137026247Y-88190475D01*
X137026247Y-88190475D02*
X136883390Y-88190475D01*
X136883390Y-88190475D02*
X136692914Y-88142856D01*
X136692914Y-88142856D02*
X136597676Y-88095237D01*
X136597676Y-88095237D02*
X136502438Y-87999999D01*
X136502438Y-87999999D02*
X136454819Y-87857142D01*
X136454819Y-87857142D02*
X136454819Y-87761904D01*
X136454819Y-87761904D02*
X136502438Y-87619047D01*
X136502438Y-87619047D02*
X136550057Y-87571428D01*
X136550057Y-87190475D02*
X136502438Y-87142856D01*
X136502438Y-87142856D02*
X136454819Y-87047618D01*
X136454819Y-87047618D02*
X136454819Y-86809523D01*
X136454819Y-86809523D02*
X136502438Y-86714285D01*
X136502438Y-86714285D02*
X136550057Y-86666666D01*
X136550057Y-86666666D02*
X136645295Y-86619047D01*
X136645295Y-86619047D02*
X136740533Y-86619047D01*
X136740533Y-86619047D02*
X136883390Y-86666666D01*
X136883390Y-86666666D02*
X137454819Y-87238094D01*
X137454819Y-87238094D02*
X137454819Y-86619047D01*
X137169104Y-86238094D02*
X137169104Y-85761904D01*
X137454819Y-86333332D02*
X136454819Y-85999999D01*
X136454819Y-85999999D02*
X137454819Y-85666666D01*
X137454819Y-84809523D02*
X137454819Y-85380951D01*
X137454819Y-85095237D02*
X136454819Y-85095237D01*
X136454819Y-85095237D02*
X136597676Y-85190475D01*
X136597676Y-85190475D02*
X136692914Y-85285713D01*
X136692914Y-85285713D02*
X136740533Y-85380951D01*
X127166666Y-75554819D02*
X126833333Y-75078628D01*
X126595238Y-75554819D02*
X126595238Y-74554819D01*
X126595238Y-74554819D02*
X126976190Y-74554819D01*
X126976190Y-74554819D02*
X127071428Y-74602438D01*
X127071428Y-74602438D02*
X127119047Y-74650057D01*
X127119047Y-74650057D02*
X127166666Y-74745295D01*
X127166666Y-74745295D02*
X127166666Y-74888152D01*
X127166666Y-74888152D02*
X127119047Y-74983390D01*
X127119047Y-74983390D02*
X127071428Y-75031009D01*
X127071428Y-75031009D02*
X126976190Y-75078628D01*
X126976190Y-75078628D02*
X126595238Y-75078628D01*
X127595238Y-75031009D02*
X127928571Y-75031009D01*
X128071428Y-75554819D02*
X127595238Y-75554819D01*
X127595238Y-75554819D02*
X127595238Y-74554819D01*
X127595238Y-74554819D02*
X128071428Y-74554819D01*
X128833333Y-75031009D02*
X128500000Y-75031009D01*
X128500000Y-75554819D02*
X128500000Y-74554819D01*
X128500000Y-74554819D02*
X128976190Y-74554819D01*
X129500000Y-74554819D02*
X129500000Y-74792914D01*
X129261905Y-74697676D02*
X129500000Y-74792914D01*
X129500000Y-74792914D02*
X129738095Y-74697676D01*
X129357143Y-74983390D02*
X129500000Y-74792914D01*
X129500000Y-74792914D02*
X129642857Y-74983390D01*
X130261905Y-74554819D02*
X130261905Y-74792914D01*
X130023810Y-74697676D02*
X130261905Y-74792914D01*
X130261905Y-74792914D02*
X130500000Y-74697676D01*
X130119048Y-74983390D02*
X130261905Y-74792914D01*
X130261905Y-74792914D02*
X130404762Y-74983390D01*
X126766666Y-118254819D02*
X126433333Y-117778628D01*
X126195238Y-118254819D02*
X126195238Y-117254819D01*
X126195238Y-117254819D02*
X126576190Y-117254819D01*
X126576190Y-117254819D02*
X126671428Y-117302438D01*
X126671428Y-117302438D02*
X126719047Y-117350057D01*
X126719047Y-117350057D02*
X126766666Y-117445295D01*
X126766666Y-117445295D02*
X126766666Y-117588152D01*
X126766666Y-117588152D02*
X126719047Y-117683390D01*
X126719047Y-117683390D02*
X126671428Y-117731009D01*
X126671428Y-117731009D02*
X126576190Y-117778628D01*
X126576190Y-117778628D02*
X126195238Y-117778628D01*
X127195238Y-117731009D02*
X127528571Y-117731009D01*
X127671428Y-118254819D02*
X127195238Y-118254819D01*
X127195238Y-118254819D02*
X127195238Y-117254819D01*
X127195238Y-117254819D02*
X127671428Y-117254819D01*
X128433333Y-117731009D02*
X128100000Y-117731009D01*
X128100000Y-118254819D02*
X128100000Y-117254819D01*
X128100000Y-117254819D02*
X128576190Y-117254819D01*
X129100000Y-117254819D02*
X129100000Y-117492914D01*
X128861905Y-117397676D02*
X129100000Y-117492914D01*
X129100000Y-117492914D02*
X129338095Y-117397676D01*
X128957143Y-117683390D02*
X129100000Y-117492914D01*
X129100000Y-117492914D02*
X129242857Y-117683390D01*
X129861905Y-117254819D02*
X129861905Y-117492914D01*
X129623810Y-117397676D02*
X129861905Y-117492914D01*
X129861905Y-117492914D02*
X130100000Y-117397676D01*
X129719048Y-117683390D02*
X129861905Y-117492914D01*
X129861905Y-117492914D02*
X130004762Y-117683390D01*
X160583333Y-88704819D02*
X160250000Y-88228628D01*
X160011905Y-88704819D02*
X160011905Y-87704819D01*
X160011905Y-87704819D02*
X160392857Y-87704819D01*
X160392857Y-87704819D02*
X160488095Y-87752438D01*
X160488095Y-87752438D02*
X160535714Y-87800057D01*
X160535714Y-87800057D02*
X160583333Y-87895295D01*
X160583333Y-87895295D02*
X160583333Y-88038152D01*
X160583333Y-88038152D02*
X160535714Y-88133390D01*
X160535714Y-88133390D02*
X160488095Y-88181009D01*
X160488095Y-88181009D02*
X160392857Y-88228628D01*
X160392857Y-88228628D02*
X160011905Y-88228628D01*
X161488095Y-87704819D02*
X161011905Y-87704819D01*
X161011905Y-87704819D02*
X160964286Y-88181009D01*
X160964286Y-88181009D02*
X161011905Y-88133390D01*
X161011905Y-88133390D02*
X161107143Y-88085771D01*
X161107143Y-88085771D02*
X161345238Y-88085771D01*
X161345238Y-88085771D02*
X161440476Y-88133390D01*
X161440476Y-88133390D02*
X161488095Y-88181009D01*
X161488095Y-88181009D02*
X161535714Y-88276247D01*
X161535714Y-88276247D02*
X161535714Y-88514342D01*
X161535714Y-88514342D02*
X161488095Y-88609580D01*
X161488095Y-88609580D02*
X161440476Y-88657200D01*
X161440476Y-88657200D02*
X161345238Y-88704819D01*
X161345238Y-88704819D02*
X161107143Y-88704819D01*
X161107143Y-88704819D02*
X161011905Y-88657200D01*
X161011905Y-88657200D02*
X160964286Y-88609580D01*
X160416666Y-75554819D02*
X160083333Y-75078628D01*
X159845238Y-75554819D02*
X159845238Y-74554819D01*
X159845238Y-74554819D02*
X160226190Y-74554819D01*
X160226190Y-74554819D02*
X160321428Y-74602438D01*
X160321428Y-74602438D02*
X160369047Y-74650057D01*
X160369047Y-74650057D02*
X160416666Y-74745295D01*
X160416666Y-74745295D02*
X160416666Y-74888152D01*
X160416666Y-74888152D02*
X160369047Y-74983390D01*
X160369047Y-74983390D02*
X160321428Y-75031009D01*
X160321428Y-75031009D02*
X160226190Y-75078628D01*
X160226190Y-75078628D02*
X159845238Y-75078628D01*
X160845238Y-75031009D02*
X161178571Y-75031009D01*
X161321428Y-75554819D02*
X160845238Y-75554819D01*
X160845238Y-75554819D02*
X160845238Y-74554819D01*
X160845238Y-74554819D02*
X161321428Y-74554819D01*
X162083333Y-75031009D02*
X161750000Y-75031009D01*
X161750000Y-75554819D02*
X161750000Y-74554819D01*
X161750000Y-74554819D02*
X162226190Y-74554819D01*
X162750000Y-74554819D02*
X162750000Y-74792914D01*
X162511905Y-74697676D02*
X162750000Y-74792914D01*
X162750000Y-74792914D02*
X162988095Y-74697676D01*
X162607143Y-74983390D02*
X162750000Y-74792914D01*
X162750000Y-74792914D02*
X162892857Y-74983390D01*
X163511905Y-74554819D02*
X163511905Y-74792914D01*
X163273810Y-74697676D02*
X163511905Y-74792914D01*
X163511905Y-74792914D02*
X163750000Y-74697676D01*
X163369048Y-74983390D02*
X163511905Y-74792914D01*
X163511905Y-74792914D02*
X163654762Y-74983390D01*
X144721905Y-93244819D02*
X144721905Y-92244819D01*
X144721905Y-92244819D02*
X144960000Y-92244819D01*
X144960000Y-92244819D02*
X145102857Y-92292438D01*
X145102857Y-92292438D02*
X145198095Y-92387676D01*
X145198095Y-92387676D02*
X145245714Y-92482914D01*
X145245714Y-92482914D02*
X145293333Y-92673390D01*
X145293333Y-92673390D02*
X145293333Y-92816247D01*
X145293333Y-92816247D02*
X145245714Y-93006723D01*
X145245714Y-93006723D02*
X145198095Y-93101961D01*
X145198095Y-93101961D02*
X145102857Y-93197200D01*
X145102857Y-93197200D02*
X144960000Y-93244819D01*
X144960000Y-93244819D02*
X144721905Y-93244819D01*
X146245714Y-93244819D02*
X145674286Y-93244819D01*
X145960000Y-93244819D02*
X145960000Y-92244819D01*
X145960000Y-92244819D02*
X145864762Y-92387676D01*
X145864762Y-92387676D02*
X145769524Y-92482914D01*
X145769524Y-92482914D02*
X145674286Y-92530533D01*
X151634761Y-84240057D02*
X151539523Y-84192438D01*
X151539523Y-84192438D02*
X151444285Y-84097200D01*
X151444285Y-84097200D02*
X151301428Y-83954342D01*
X151301428Y-83954342D02*
X151206190Y-83906723D01*
X151206190Y-83906723D02*
X151110952Y-83906723D01*
X151158571Y-84144819D02*
X151063333Y-84097200D01*
X151063333Y-84097200D02*
X150968095Y-84001961D01*
X150968095Y-84001961D02*
X150920476Y-83811485D01*
X150920476Y-83811485D02*
X150920476Y-83478152D01*
X150920476Y-83478152D02*
X150968095Y-83287676D01*
X150968095Y-83287676D02*
X151063333Y-83192438D01*
X151063333Y-83192438D02*
X151158571Y-83144819D01*
X151158571Y-83144819D02*
X151349047Y-83144819D01*
X151349047Y-83144819D02*
X151444285Y-83192438D01*
X151444285Y-83192438D02*
X151539523Y-83287676D01*
X151539523Y-83287676D02*
X151587142Y-83478152D01*
X151587142Y-83478152D02*
X151587142Y-83811485D01*
X151587142Y-83811485D02*
X151539523Y-84001961D01*
X151539523Y-84001961D02*
X151444285Y-84097200D01*
X151444285Y-84097200D02*
X151349047Y-84144819D01*
X151349047Y-84144819D02*
X151158571Y-84144819D01*
X152539523Y-84144819D02*
X151968095Y-84144819D01*
X152253809Y-84144819D02*
X152253809Y-83144819D01*
X152253809Y-83144819D02*
X152158571Y-83287676D01*
X152158571Y-83287676D02*
X152063333Y-83382914D01*
X152063333Y-83382914D02*
X151968095Y-83430533D01*
X140793333Y-103284819D02*
X140460000Y-102808628D01*
X140221905Y-103284819D02*
X140221905Y-102284819D01*
X140221905Y-102284819D02*
X140602857Y-102284819D01*
X140602857Y-102284819D02*
X140698095Y-102332438D01*
X140698095Y-102332438D02*
X140745714Y-102380057D01*
X140745714Y-102380057D02*
X140793333Y-102475295D01*
X140793333Y-102475295D02*
X140793333Y-102618152D01*
X140793333Y-102618152D02*
X140745714Y-102713390D01*
X140745714Y-102713390D02*
X140698095Y-102761009D01*
X140698095Y-102761009D02*
X140602857Y-102808628D01*
X140602857Y-102808628D02*
X140221905Y-102808628D01*
X141174286Y-102380057D02*
X141221905Y-102332438D01*
X141221905Y-102332438D02*
X141317143Y-102284819D01*
X141317143Y-102284819D02*
X141555238Y-102284819D01*
X141555238Y-102284819D02*
X141650476Y-102332438D01*
X141650476Y-102332438D02*
X141698095Y-102380057D01*
X141698095Y-102380057D02*
X141745714Y-102475295D01*
X141745714Y-102475295D02*
X141745714Y-102570533D01*
X141745714Y-102570533D02*
X141698095Y-102713390D01*
X141698095Y-102713390D02*
X141126667Y-103284819D01*
X141126667Y-103284819D02*
X141745714Y-103284819D01*
X154166666Y-73804819D02*
X154166666Y-74519104D01*
X154166666Y-74519104D02*
X154119047Y-74661961D01*
X154119047Y-74661961D02*
X154023809Y-74757200D01*
X154023809Y-74757200D02*
X153880952Y-74804819D01*
X153880952Y-74804819D02*
X153785714Y-74804819D01*
X154547619Y-73804819D02*
X155166666Y-73804819D01*
X155166666Y-73804819D02*
X154833333Y-74185771D01*
X154833333Y-74185771D02*
X154976190Y-74185771D01*
X154976190Y-74185771D02*
X155071428Y-74233390D01*
X155071428Y-74233390D02*
X155119047Y-74281009D01*
X155119047Y-74281009D02*
X155166666Y-74376247D01*
X155166666Y-74376247D02*
X155166666Y-74614342D01*
X155166666Y-74614342D02*
X155119047Y-74709580D01*
X155119047Y-74709580D02*
X155071428Y-74757200D01*
X155071428Y-74757200D02*
X154976190Y-74804819D01*
X154976190Y-74804819D02*
X154690476Y-74804819D01*
X154690476Y-74804819D02*
X154595238Y-74757200D01*
X154595238Y-74757200D02*
X154547619Y-74709580D01*
X161666666Y-89324819D02*
X161666666Y-90039104D01*
X161666666Y-90039104D02*
X161619047Y-90181961D01*
X161619047Y-90181961D02*
X161523809Y-90277200D01*
X161523809Y-90277200D02*
X161380952Y-90324819D01*
X161380952Y-90324819D02*
X161285714Y-90324819D01*
X162619047Y-89324819D02*
X162142857Y-89324819D01*
X162142857Y-89324819D02*
X162095238Y-89801009D01*
X162095238Y-89801009D02*
X162142857Y-89753390D01*
X162142857Y-89753390D02*
X162238095Y-89705771D01*
X162238095Y-89705771D02*
X162476190Y-89705771D01*
X162476190Y-89705771D02*
X162571428Y-89753390D01*
X162571428Y-89753390D02*
X162619047Y-89801009D01*
X162619047Y-89801009D02*
X162666666Y-89896247D01*
X162666666Y-89896247D02*
X162666666Y-90134342D01*
X162666666Y-90134342D02*
X162619047Y-90229580D01*
X162619047Y-90229580D02*
X162571428Y-90277200D01*
X162571428Y-90277200D02*
X162476190Y-90324819D01*
X162476190Y-90324819D02*
X162238095Y-90324819D01*
X162238095Y-90324819D02*
X162142857Y-90277200D01*
X162142857Y-90277200D02*
X162095238Y-90229580D01*
X149293333Y-103284819D02*
X148960000Y-102808628D01*
X148721905Y-103284819D02*
X148721905Y-102284819D01*
X148721905Y-102284819D02*
X149102857Y-102284819D01*
X149102857Y-102284819D02*
X149198095Y-102332438D01*
X149198095Y-102332438D02*
X149245714Y-102380057D01*
X149245714Y-102380057D02*
X149293333Y-102475295D01*
X149293333Y-102475295D02*
X149293333Y-102618152D01*
X149293333Y-102618152D02*
X149245714Y-102713390D01*
X149245714Y-102713390D02*
X149198095Y-102761009D01*
X149198095Y-102761009D02*
X149102857Y-102808628D01*
X149102857Y-102808628D02*
X148721905Y-102808628D01*
X149626667Y-102284819D02*
X150245714Y-102284819D01*
X150245714Y-102284819D02*
X149912381Y-102665771D01*
X149912381Y-102665771D02*
X150055238Y-102665771D01*
X150055238Y-102665771D02*
X150150476Y-102713390D01*
X150150476Y-102713390D02*
X150198095Y-102761009D01*
X150198095Y-102761009D02*
X150245714Y-102856247D01*
X150245714Y-102856247D02*
X150245714Y-103094342D01*
X150245714Y-103094342D02*
X150198095Y-103189580D01*
X150198095Y-103189580D02*
X150150476Y-103237200D01*
X150150476Y-103237200D02*
X150055238Y-103284819D01*
X150055238Y-103284819D02*
X149769524Y-103284819D01*
X149769524Y-103284819D02*
X149674286Y-103237200D01*
X149674286Y-103237200D02*
X149626667Y-103189580D01*
X135793333Y-95374819D02*
X135460000Y-94898628D01*
X135221905Y-95374819D02*
X135221905Y-94374819D01*
X135221905Y-94374819D02*
X135602857Y-94374819D01*
X135602857Y-94374819D02*
X135698095Y-94422438D01*
X135698095Y-94422438D02*
X135745714Y-94470057D01*
X135745714Y-94470057D02*
X135793333Y-94565295D01*
X135793333Y-94565295D02*
X135793333Y-94708152D01*
X135793333Y-94708152D02*
X135745714Y-94803390D01*
X135745714Y-94803390D02*
X135698095Y-94851009D01*
X135698095Y-94851009D02*
X135602857Y-94898628D01*
X135602857Y-94898628D02*
X135221905Y-94898628D01*
X136745714Y-95374819D02*
X136174286Y-95374819D01*
X136460000Y-95374819D02*
X136460000Y-94374819D01*
X136460000Y-94374819D02*
X136364762Y-94517676D01*
X136364762Y-94517676D02*
X136269524Y-94612914D01*
X136269524Y-94612914D02*
X136174286Y-94660533D01*
X130609580Y-86916666D02*
X130657200Y-86964285D01*
X130657200Y-86964285D02*
X130704819Y-87107142D01*
X130704819Y-87107142D02*
X130704819Y-87202380D01*
X130704819Y-87202380D02*
X130657200Y-87345237D01*
X130657200Y-87345237D02*
X130561961Y-87440475D01*
X130561961Y-87440475D02*
X130466723Y-87488094D01*
X130466723Y-87488094D02*
X130276247Y-87535713D01*
X130276247Y-87535713D02*
X130133390Y-87535713D01*
X130133390Y-87535713D02*
X129942914Y-87488094D01*
X129942914Y-87488094D02*
X129847676Y-87440475D01*
X129847676Y-87440475D02*
X129752438Y-87345237D01*
X129752438Y-87345237D02*
X129704819Y-87202380D01*
X129704819Y-87202380D02*
X129704819Y-87107142D01*
X129704819Y-87107142D02*
X129752438Y-86964285D01*
X129752438Y-86964285D02*
X129800057Y-86916666D01*
X130704819Y-85964285D02*
X130704819Y-86535713D01*
X130704819Y-86249999D02*
X129704819Y-86249999D01*
X129704819Y-86249999D02*
X129847676Y-86345237D01*
X129847676Y-86345237D02*
X129942914Y-86440475D01*
X129942914Y-86440475D02*
X129990533Y-86535713D01*
X156126666Y-100624819D02*
X156126666Y-101339104D01*
X156126666Y-101339104D02*
X156079047Y-101481961D01*
X156079047Y-101481961D02*
X155983809Y-101577200D01*
X155983809Y-101577200D02*
X155840952Y-101624819D01*
X155840952Y-101624819D02*
X155745714Y-101624819D01*
X157031428Y-100958152D02*
X157031428Y-101624819D01*
X156793333Y-100577200D02*
X156555238Y-101291485D01*
X156555238Y-101291485D02*
X157174285Y-101291485D01*
X160416666Y-118054819D02*
X160083333Y-117578628D01*
X159845238Y-118054819D02*
X159845238Y-117054819D01*
X159845238Y-117054819D02*
X160226190Y-117054819D01*
X160226190Y-117054819D02*
X160321428Y-117102438D01*
X160321428Y-117102438D02*
X160369047Y-117150057D01*
X160369047Y-117150057D02*
X160416666Y-117245295D01*
X160416666Y-117245295D02*
X160416666Y-117388152D01*
X160416666Y-117388152D02*
X160369047Y-117483390D01*
X160369047Y-117483390D02*
X160321428Y-117531009D01*
X160321428Y-117531009D02*
X160226190Y-117578628D01*
X160226190Y-117578628D02*
X159845238Y-117578628D01*
X160845238Y-117531009D02*
X161178571Y-117531009D01*
X161321428Y-118054819D02*
X160845238Y-118054819D01*
X160845238Y-118054819D02*
X160845238Y-117054819D01*
X160845238Y-117054819D02*
X161321428Y-117054819D01*
X162083333Y-117531009D02*
X161750000Y-117531009D01*
X161750000Y-118054819D02*
X161750000Y-117054819D01*
X161750000Y-117054819D02*
X162226190Y-117054819D01*
X162750000Y-117054819D02*
X162750000Y-117292914D01*
X162511905Y-117197676D02*
X162750000Y-117292914D01*
X162750000Y-117292914D02*
X162988095Y-117197676D01*
X162607143Y-117483390D02*
X162750000Y-117292914D01*
X162750000Y-117292914D02*
X162892857Y-117483390D01*
X163511905Y-117054819D02*
X163511905Y-117292914D01*
X163273810Y-117197676D02*
X163511905Y-117292914D01*
X163511905Y-117292914D02*
X163750000Y-117197676D01*
X163369048Y-117483390D02*
X163511905Y-117292914D01*
X163511905Y-117292914D02*
X163654762Y-117483390D01*
X133266666Y-100624819D02*
X133266666Y-101339104D01*
X133266666Y-101339104D02*
X133219047Y-101481961D01*
X133219047Y-101481961D02*
X133123809Y-101577200D01*
X133123809Y-101577200D02*
X132980952Y-101624819D01*
X132980952Y-101624819D02*
X132885714Y-101624819D01*
X133695238Y-100720057D02*
X133742857Y-100672438D01*
X133742857Y-100672438D02*
X133838095Y-100624819D01*
X133838095Y-100624819D02*
X134076190Y-100624819D01*
X134076190Y-100624819D02*
X134171428Y-100672438D01*
X134171428Y-100672438D02*
X134219047Y-100720057D01*
X134219047Y-100720057D02*
X134266666Y-100815295D01*
X134266666Y-100815295D02*
X134266666Y-100910533D01*
X134266666Y-100910533D02*
X134219047Y-101053390D01*
X134219047Y-101053390D02*
X133647619Y-101624819D01*
X133647619Y-101624819D02*
X134266666Y-101624819D01*
X149253333Y-108784819D02*
X148920000Y-108308628D01*
X148681905Y-108784819D02*
X148681905Y-107784819D01*
X148681905Y-107784819D02*
X149062857Y-107784819D01*
X149062857Y-107784819D02*
X149158095Y-107832438D01*
X149158095Y-107832438D02*
X149205714Y-107880057D01*
X149205714Y-107880057D02*
X149253333Y-107975295D01*
X149253333Y-107975295D02*
X149253333Y-108118152D01*
X149253333Y-108118152D02*
X149205714Y-108213390D01*
X149205714Y-108213390D02*
X149158095Y-108261009D01*
X149158095Y-108261009D02*
X149062857Y-108308628D01*
X149062857Y-108308628D02*
X148681905Y-108308628D01*
X150110476Y-108118152D02*
X150110476Y-108784819D01*
X149872381Y-107737200D02*
X149634286Y-108451485D01*
X149634286Y-108451485D02*
X150253333Y-108451485D01*
D40*
%TO.C,C2A1*%
X138130000Y-83880000D02*
X140870000Y-83880000D01*
X138130000Y-89120000D02*
X138130000Y-83880000D01*
X140870000Y-83880000D02*
X140870000Y-89120000D01*
X140870000Y-89120000D02*
X138130000Y-89120000D01*
%TO.C,R5*%
X158830000Y-84830000D02*
X162670000Y-84830000D01*
X158830000Y-86670000D02*
X162670000Y-86670000D01*
%TO.C,D1*%
X142900000Y-95205000D02*
X142900000Y-95670000D01*
X142900000Y-97830000D02*
X142900000Y-98295000D01*
X142900000Y-95205170D02*
G75*
G02*
X148248136Y-95670000I2560000J-1544830D01*
G01*
X143205316Y-95670000D02*
G75*
G02*
X147714684Y-95670000I2254684J-1080000D01*
G01*
X147714684Y-97830000D02*
G75*
G02*
X143205316Y-97830000I-2254684J1080000D01*
G01*
X148248136Y-97830000D02*
G75*
G02*
X142900000Y-98294830I-2788136J1080000D01*
G01*
%TO.C,Q1*%
X149930000Y-89100000D02*
X153530000Y-89100000D01*
X149891522Y-89088478D02*
G75*
G02*
X151730000Y-84649999I1838478J1838478D01*
G01*
X151730000Y-84650000D02*
G75*
G02*
X153568478Y-89088478I0J-2600000D01*
G01*
%TO.C,R2*%
X139040000Y-103830000D02*
X142880000Y-103830000D01*
X139040000Y-105670000D02*
X142880000Y-105670000D01*
%TO.C,J3*%
X151140000Y-75140000D02*
X151140000Y-76390000D01*
X151440000Y-75440000D02*
X151440000Y-80160000D01*
X151440000Y-76750000D02*
X152050000Y-76750000D01*
X151440000Y-78050000D02*
X152050000Y-78050000D01*
X151440000Y-80160000D02*
X157560000Y-80160000D01*
X152050000Y-76050000D02*
X152050000Y-79550000D01*
X152050000Y-79550000D02*
X156950000Y-79550000D01*
X152390000Y-75140000D02*
X151140000Y-75140000D01*
X152900000Y-75240000D02*
X152900000Y-75440000D01*
X153200000Y-75240000D02*
X152900000Y-75240000D01*
X153200000Y-75340000D02*
X152900000Y-75340000D01*
X153200000Y-75440000D02*
X153200000Y-75240000D01*
X154000000Y-75440000D02*
X154000000Y-76050000D01*
X154000000Y-76050000D02*
X152050000Y-76050000D01*
X154400000Y-79050000D02*
X154600000Y-79050000D01*
X154400000Y-79550000D02*
X154400000Y-79050000D01*
X154500000Y-79550000D02*
X154500000Y-79050000D01*
X154600000Y-79050000D02*
X154600000Y-79550000D01*
X155000000Y-76050000D02*
X155000000Y-75440000D01*
X156950000Y-76050000D02*
X155000000Y-76050000D01*
X156950000Y-79550000D02*
X156950000Y-76050000D01*
X157560000Y-75440000D02*
X151440000Y-75440000D01*
X157560000Y-76750000D02*
X156950000Y-76750000D01*
X157560000Y-78050000D02*
X156950000Y-78050000D01*
X157560000Y-80160000D02*
X157560000Y-75440000D01*
%TO.C,J5*%
X160620000Y-90870000D02*
X162000000Y-90870000D01*
X160620000Y-92250000D02*
X160620000Y-90870000D01*
X160620000Y-93520000D02*
X160620000Y-98710000D01*
X160620000Y-93520000D02*
X163380000Y-93520000D01*
X160620000Y-98710000D02*
X163380000Y-98710000D01*
X163380000Y-93520000D02*
X163380000Y-98710000D01*
%TO.C,R3*%
X147540000Y-103830000D02*
X151380000Y-103830000D01*
X147540000Y-105670000D02*
X151380000Y-105670000D01*
%TO.C,R1*%
X137880000Y-92080000D02*
X134040000Y-92080000D01*
X137880000Y-93920000D02*
X134040000Y-93920000D01*
%TO.C,C1*%
X131380000Y-84130000D02*
X134120000Y-84130000D01*
X131380000Y-89370000D02*
X131380000Y-84130000D01*
X134120000Y-84130000D02*
X134120000Y-89370000D01*
X134120000Y-89370000D02*
X131380000Y-89370000D01*
%TO.C,J4*%
X155080000Y-102170000D02*
X156460000Y-102170000D01*
X155080000Y-103550000D02*
X155080000Y-102170000D01*
X155080000Y-104820000D02*
X155080000Y-122710000D01*
X155080000Y-104820000D02*
X157840000Y-104820000D01*
X155080000Y-122710000D02*
X157840000Y-122710000D01*
X157840000Y-104820000D02*
X157840000Y-122710000D01*
%TO.C,J2*%
X132220000Y-102170000D02*
X133600000Y-102170000D01*
X132220000Y-103550000D02*
X132220000Y-102170000D01*
X132220000Y-104820000D02*
X132220000Y-122710000D01*
X132220000Y-104820000D02*
X134980000Y-104820000D01*
X132220000Y-122710000D02*
X134980000Y-122710000D01*
X134980000Y-104820000D02*
X134980000Y-122710000D01*
%TO.C,R4*%
X147500000Y-109330000D02*
X151340000Y-109330000D01*
X147500000Y-111170000D02*
X151340000Y-111170000D01*
%TD*%
D42*
X124750000Y-125250000D02*
X165250000Y-125250000D01*
X124750000Y-72750000D02*
X124750000Y-125250415D01*
X165000000Y-72750000D02*
X165000000Y-125250000D01*
X124750000Y-72750000D02*
X165000776Y-72750000D01*
M02*
