%TF.GenerationSoftware,KiCad,Pcbnew,9.0.5*%
%TF.CreationDate,2026-01-13T16:05:56+09:00*%
%TF.ProjectId,main-board,6d61696e-2d62-46f6-9172-642e6b696361,rev?*%
%TF.SameCoordinates,Original*%
%TF.FileFunction,Copper,L3,Inr*%
%TF.FilePolarity,Positive*%
%FSLAX46Y46*%
G04 Gerber Fmt 4.6, Leading zero omitted, Abs format (unit mm)*
G04 Created by KiCad (PCBNEW 9.0.5) date 2026-01-13 16:05:56*
%MOMM*%
%LPD*%
G01*
G04 APERTURE LIST*
G04 Aperture macros list*
%AMRoundRect*
0 Rectangle with rounded corners*
0 $1 Rounding radius*
0 $2 $3 $4 $5 $6 $7 $8 $9 X,Y pos of 4 corners*
0 Add a 4 corners polygon primitive as box body*
4,1,4,$2,$3,$4,$5,$6,$7,$8,$9,$2,$3,0*
0 Add four circle primitives for the rounded corners*
1,1,$1+$1,$2,$3*
1,1,$1+$1,$4,$5*
1,1,$1+$1,$6,$7*
1,1,$1+$1,$8,$9*
0 Add four rect primitives between the rounded corners*
20,1,$1+$1,$2,$3,$4,$5,0*
20,1,$1+$1,$4,$5,$6,$7,0*
20,1,$1+$1,$6,$7,$8,$9,0*
20,1,$1+$1,$8,$9,$2,$3,0*%
G04 Aperture macros list end*
%TA.AperFunction,ComponentPad*%
%ADD10C,1.400000*%
%TD*%
%TA.AperFunction,ComponentPad*%
%ADD11R,1.700000X1.700000*%
%TD*%
%TA.AperFunction,ComponentPad*%
%ADD12C,1.700000*%
%TD*%
%TA.AperFunction,ComponentPad*%
%ADD13C,1.600000*%
%TD*%
%TA.AperFunction,ComponentPad*%
%ADD14RoundRect,0.250000X-0.350000X-0.625000X0.350000X-0.625000X0.350000X0.625000X-0.350000X0.625000X0*%
%TD*%
%TA.AperFunction,ComponentPad*%
%ADD15O,1.200000X1.750000*%
%TD*%
%TA.AperFunction,ComponentPad*%
%ADD16R,1.050000X1.500000*%
%TD*%
%TA.AperFunction,ComponentPad*%
%ADD17O,1.050000X1.500000*%
%TD*%
%TA.AperFunction,ComponentPad*%
%ADD18R,1.800000X1.800000*%
%TD*%
%TA.AperFunction,ComponentPad*%
%ADD19C,1.800000*%
%TD*%
%TA.AperFunction,Conductor*%
%ADD20C,0.200000*%
%TD*%
G04 APERTURE END LIST*
D10*
%TO.N,Net-(J2-Pin_4)*%
%TO.C,R2*%
X138420000Y-104750000D03*
%TO.N,Net-(Q1-B)*%
X143500000Y-104750000D03*
%TD*%
D11*
%TO.N,Net-(J4-Pin_8)*%
%TO.C,J5*%
X162000000Y-92250000D03*
D12*
%TO.N,Net-(J4-Pin_3)*%
X162000000Y-94790000D03*
%TO.N,GND*%
X162000000Y-97330000D03*
%TD*%
D10*
%TO.N,Net-(J1-EMI_SIG)*%
%TO.C,R1*%
X138500000Y-93000000D03*
%TO.N,Net-(J2-Pin_2)*%
X133420000Y-93000000D03*
%TD*%
D13*
%TO.N,Net-(J2-Pin_2)*%
%TO.C,C1*%
X132750000Y-88000000D03*
%TO.N,GND*%
X132750000Y-85500000D03*
%TD*%
D14*
%TO.N,Net-(J3-IR_LED+)*%
%TO.C,J3*%
X153500000Y-77250000D03*
D15*
%TO.N,Net-(J3-IR_LED-)*%
X155500000Y-77250000D03*
%TD*%
D11*
%TO.N,unconnected-(J2-Pin_1-Pad1)*%
%TO.C,J2*%
X133600000Y-103550000D03*
D12*
%TO.N,Net-(J2-Pin_2)*%
X133600000Y-106090000D03*
%TO.N,unconnected-(J2-Pin_3-Pad3)*%
X133600000Y-108630000D03*
%TO.N,Net-(J2-Pin_4)*%
X133600000Y-111170000D03*
%TO.N,Net-(J2-Pin_5)*%
X133600000Y-113710000D03*
%TO.N,Net-(J2-Pin_6)*%
X133600000Y-116250000D03*
%TO.N,unconnected-(J2-Pin_7-Pad7)*%
X133600000Y-118790000D03*
%TO.N,unconnected-(J2-Pin_8-Pad8)*%
X133600000Y-121330000D03*
%TD*%
D10*
%TO.N,Net-(J3-IR_LED+)*%
%TO.C,R5*%
X158210000Y-85750000D03*
%TO.N,Net-(J4-Pin_8)*%
X163290000Y-85750000D03*
%TD*%
D11*
%TO.N,unconnected-(J4-Pin_1-Pad1)*%
%TO.C,J4*%
X156460000Y-103550000D03*
D12*
%TO.N,unconnected-(J4-Pin_2-Pad2)*%
X156460000Y-106090000D03*
%TO.N,Net-(J4-Pin_3)*%
X156460000Y-108630000D03*
%TO.N,unconnected-(J4-Pin_4-Pad4)*%
X156460000Y-111170000D03*
%TO.N,unconnected-(J4-Pin_5-Pad5)*%
X156460000Y-113710000D03*
%TO.N,unconnected-(J4-Pin_6-Pad6)*%
X156460000Y-116250000D03*
%TO.N,GND*%
X156460000Y-118790000D03*
%TO.N,Net-(J4-Pin_8)*%
X156460000Y-121330000D03*
%TD*%
D16*
%TO.N,GND*%
%TO.C,Q1*%
X150460000Y-87250000D03*
D17*
%TO.N,Net-(Q1-B)*%
X151730000Y-87250000D03*
%TO.N,Net-(J3-IR_LED-)*%
X153000000Y-87250000D03*
%TD*%
D10*
%TO.N,Net-(D1-K1)*%
%TO.C,R4*%
X146880000Y-110250000D03*
%TO.N,Net-(J2-Pin_5)*%
X151960000Y-110250000D03*
%TD*%
D18*
%TO.N,Net-(D1-K1)*%
%TO.C,D1*%
X142920000Y-96750000D03*
D19*
%TO.N,GND*%
X145460000Y-96750000D03*
%TO.N,Net-(D1-K2)*%
X148000000Y-96750000D03*
%TD*%
D10*
%TO.N,Net-(J2-Pin_6)*%
%TO.C,R3*%
X146920000Y-104750000D03*
%TO.N,Net-(D1-K2)*%
X152000000Y-104750000D03*
%TD*%
D13*
%TO.N,Net-(J2-Pin_2)*%
%TO.C,C2A1*%
X139500000Y-87750000D03*
%TO.N,GND*%
X139500000Y-85250000D03*
%TD*%
D20*
%TO.N,GND*%
X139250000Y-85500000D02*
X139500000Y-85250000D01*
%TO.N,Net-(J2-Pin_6)*%
X146920000Y-104750000D02*
X147000000Y-104750000D01*
%TO.N,Net-(J3-IR_LED-)*%
X152599000Y-86849000D02*
X153000000Y-87250000D01*
%TO.N,GND*%
X156460000Y-118790000D02*
X156460000Y-118296372D01*
%TO.N,Net-(J2-Pin_6)*%
X147000000Y-104750000D02*
X147250000Y-104500000D01*
%TD*%
%TA.AperFunction,Conductor*%
%TO.N,GND*%
G36*
X164442539Y-73270185D02*
G01*
X164488294Y-73322989D01*
X164499500Y-73374500D01*
X164499500Y-124625500D01*
X164479815Y-124692539D01*
X164427011Y-124738294D01*
X164375500Y-124749500D01*
X125374500Y-124749500D01*
X125307461Y-124729815D01*
X125261706Y-124677011D01*
X125250500Y-124625500D01*
X125250500Y-120747648D01*
X126799500Y-120747648D01*
X126799500Y-120952351D01*
X126831522Y-121154534D01*
X126894781Y-121349223D01*
X126987715Y-121531613D01*
X127108028Y-121697213D01*
X127252786Y-121841971D01*
X127407749Y-121954556D01*
X127418390Y-121962287D01*
X127491729Y-121999655D01*
X127600776Y-122055218D01*
X127600778Y-122055218D01*
X127600781Y-122055220D01*
X127705137Y-122089127D01*
X127795465Y-122118477D01*
X127896557Y-122134488D01*
X127997648Y-122150500D01*
X127997649Y-122150500D01*
X128202351Y-122150500D01*
X128202352Y-122150500D01*
X128404534Y-122118477D01*
X128599219Y-122055220D01*
X128781610Y-121962287D01*
X128874590Y-121894732D01*
X128947213Y-121841971D01*
X128947215Y-121841968D01*
X128947219Y-121841966D01*
X129091966Y-121697219D01*
X129091968Y-121697215D01*
X129091971Y-121697213D01*
X129144732Y-121624590D01*
X129212287Y-121531610D01*
X129305220Y-121349219D01*
X129335981Y-121254544D01*
X129345084Y-121226530D01*
X132549500Y-121226530D01*
X132549500Y-121433469D01*
X132589868Y-121636412D01*
X132589870Y-121636420D01*
X132669059Y-121827598D01*
X132678663Y-121841971D01*
X132784024Y-121999657D01*
X132930342Y-122145975D01*
X132930345Y-122145977D01*
X133102402Y-122260941D01*
X133293580Y-122340130D01*
X133496530Y-122380499D01*
X133496534Y-122380500D01*
X133496535Y-122380500D01*
X133703466Y-122380500D01*
X133703467Y-122380499D01*
X133906420Y-122340130D01*
X134097598Y-122260941D01*
X134269655Y-122145977D01*
X134415977Y-121999655D01*
X134530941Y-121827598D01*
X134610130Y-121636420D01*
X134650500Y-121433465D01*
X134650500Y-121226535D01*
X134610130Y-121023580D01*
X134530941Y-120832402D01*
X134415977Y-120660345D01*
X134415975Y-120660342D01*
X134269657Y-120514024D01*
X134149532Y-120433760D01*
X134097598Y-120399059D01*
X134097593Y-120399057D01*
X133906420Y-120319870D01*
X133906412Y-120319868D01*
X133703469Y-120279500D01*
X133703465Y-120279500D01*
X133496535Y-120279500D01*
X133496530Y-120279500D01*
X133293587Y-120319868D01*
X133293579Y-120319870D01*
X133102403Y-120399058D01*
X132930342Y-120514024D01*
X132784024Y-120660342D01*
X132669058Y-120832403D01*
X132589870Y-121023579D01*
X132589868Y-121023587D01*
X132549500Y-121226530D01*
X129345084Y-121226530D01*
X129359513Y-121182124D01*
X129359514Y-121182122D01*
X129368475Y-121154542D01*
X129368475Y-121154538D01*
X129368477Y-121154534D01*
X129400500Y-120952352D01*
X129400500Y-120747648D01*
X129368477Y-120545466D01*
X129305220Y-120350781D01*
X129305218Y-120350778D01*
X129305218Y-120350776D01*
X129244488Y-120231588D01*
X129212287Y-120168390D01*
X129190048Y-120137780D01*
X129091971Y-120002786D01*
X128947213Y-119858028D01*
X128781613Y-119737715D01*
X128781612Y-119737714D01*
X128781610Y-119737713D01*
X128724653Y-119708691D01*
X128599223Y-119644781D01*
X128404534Y-119581522D01*
X128216343Y-119551716D01*
X128202352Y-119549500D01*
X127997648Y-119549500D01*
X127983657Y-119551716D01*
X127795465Y-119581522D01*
X127600776Y-119644781D01*
X127418386Y-119737715D01*
X127252786Y-119858028D01*
X127108028Y-120002786D01*
X126987715Y-120168386D01*
X126894781Y-120350776D01*
X126831522Y-120545465D01*
X126799500Y-120747648D01*
X125250500Y-120747648D01*
X125250500Y-118686530D01*
X132549500Y-118686530D01*
X132549500Y-118893469D01*
X132589868Y-119096412D01*
X132589870Y-119096420D01*
X132669058Y-119287596D01*
X132784024Y-119459657D01*
X132930342Y-119605975D01*
X132930345Y-119605977D01*
X133102402Y-119720941D01*
X133293580Y-119800130D01*
X133496530Y-119840499D01*
X133496534Y-119840500D01*
X133496535Y-119840500D01*
X133703466Y-119840500D01*
X133703467Y-119840499D01*
X133906420Y-119800130D01*
X134097598Y-119720941D01*
X134269655Y-119605977D01*
X134415977Y-119459655D01*
X134530941Y-119287598D01*
X134610130Y-119096420D01*
X134650500Y-118893465D01*
X134650500Y-118686535D01*
X134650500Y-118686532D01*
X134650499Y-118686531D01*
X134650499Y-118686530D01*
X134649947Y-118683753D01*
X155110000Y-118683753D01*
X155110000Y-118896246D01*
X155143242Y-119106127D01*
X155143242Y-119106130D01*
X155208904Y-119308217D01*
X155305375Y-119497550D01*
X155344728Y-119551716D01*
X155977037Y-118919408D01*
X155994075Y-118982993D01*
X156059901Y-119097007D01*
X156152993Y-119190099D01*
X156267007Y-119255925D01*
X156330590Y-119272962D01*
X155698282Y-119905269D01*
X155698282Y-119905270D01*
X155752449Y-119944624D01*
X155941782Y-120041095D01*
X156117973Y-120098343D01*
X156175648Y-120137780D01*
X156202847Y-120202139D01*
X156190932Y-120270985D01*
X156143688Y-120322461D01*
X156127108Y-120330835D01*
X155962403Y-120399057D01*
X155790342Y-120514024D01*
X155644024Y-120660342D01*
X155529058Y-120832403D01*
X155449870Y-121023579D01*
X155449868Y-121023587D01*
X155409500Y-121226530D01*
X155409500Y-121433469D01*
X155449868Y-121636412D01*
X155449870Y-121636420D01*
X155529059Y-121827598D01*
X155538663Y-121841971D01*
X155644024Y-121999657D01*
X155790342Y-122145975D01*
X155790345Y-122145977D01*
X155962402Y-122260941D01*
X156153580Y-122340130D01*
X156356530Y-122380499D01*
X156356534Y-122380500D01*
X156356535Y-122380500D01*
X156563466Y-122380500D01*
X156563467Y-122380499D01*
X156766420Y-122340130D01*
X156957598Y-122260941D01*
X157129655Y-122145977D01*
X157275977Y-121999655D01*
X157390941Y-121827598D01*
X157470130Y-121636420D01*
X157510500Y-121433465D01*
X157510500Y-121226535D01*
X157470130Y-121023580D01*
X157390941Y-120832402D01*
X157275977Y-120660345D01*
X157275975Y-120660342D01*
X157259346Y-120643713D01*
X160399500Y-120643713D01*
X160399500Y-120856286D01*
X160425996Y-121023579D01*
X160432754Y-121066243D01*
X160484836Y-121226535D01*
X160498444Y-121268414D01*
X160594951Y-121457820D01*
X160719890Y-121629786D01*
X160870213Y-121780109D01*
X161042179Y-121905048D01*
X161042181Y-121905049D01*
X161042184Y-121905051D01*
X161231588Y-122001557D01*
X161433757Y-122067246D01*
X161643713Y-122100500D01*
X161643714Y-122100500D01*
X161856286Y-122100500D01*
X161856287Y-122100500D01*
X162066243Y-122067246D01*
X162268412Y-122001557D01*
X162457816Y-121905051D01*
X162564422Y-121827598D01*
X162629786Y-121780109D01*
X162629788Y-121780106D01*
X162629792Y-121780104D01*
X162780104Y-121629792D01*
X162780106Y-121629788D01*
X162780109Y-121629786D01*
X162905048Y-121457820D01*
X162905047Y-121457820D01*
X162905051Y-121457816D01*
X163001557Y-121268412D01*
X163067246Y-121066243D01*
X163100500Y-120856287D01*
X163100500Y-120643713D01*
X163067246Y-120433757D01*
X163001557Y-120231588D01*
X162905051Y-120042184D01*
X162905049Y-120042181D01*
X162905048Y-120042179D01*
X162780109Y-119870213D01*
X162629786Y-119719890D01*
X162457820Y-119594951D01*
X162268414Y-119498444D01*
X162268413Y-119498443D01*
X162268412Y-119498443D01*
X162066243Y-119432754D01*
X162066241Y-119432753D01*
X162066240Y-119432753D01*
X161904957Y-119407208D01*
X161856287Y-119399500D01*
X161643713Y-119399500D01*
X161595042Y-119407208D01*
X161433760Y-119432753D01*
X161231585Y-119498444D01*
X161042179Y-119594951D01*
X160870213Y-119719890D01*
X160719890Y-119870213D01*
X160594951Y-120042179D01*
X160498444Y-120231585D01*
X160432753Y-120433760D01*
X160399500Y-120643713D01*
X157259346Y-120643713D01*
X157129657Y-120514024D01*
X157009532Y-120433760D01*
X156957598Y-120399059D01*
X156957593Y-120399057D01*
X156841033Y-120350776D01*
X156792890Y-120330834D01*
X156738488Y-120286994D01*
X156716423Y-120220700D01*
X156733702Y-120153001D01*
X156784839Y-120105390D01*
X156802026Y-120098343D01*
X156978217Y-120041095D01*
X157167554Y-119944622D01*
X157221716Y-119905270D01*
X157221717Y-119905270D01*
X156589408Y-119272962D01*
X156652993Y-119255925D01*
X156767007Y-119190099D01*
X156860099Y-119097007D01*
X156925925Y-118982993D01*
X156942962Y-118919408D01*
X157575270Y-119551717D01*
X157575270Y-119551716D01*
X157614622Y-119497554D01*
X157711095Y-119308217D01*
X157776757Y-119106130D01*
X157776757Y-119106127D01*
X157810000Y-118896246D01*
X157810000Y-118683753D01*
X157776757Y-118473872D01*
X157776757Y-118473869D01*
X157711095Y-118271782D01*
X157614624Y-118082449D01*
X157575270Y-118028282D01*
X157575269Y-118028282D01*
X156942962Y-118660590D01*
X156925925Y-118597007D01*
X156860099Y-118482993D01*
X156767007Y-118389901D01*
X156652993Y-118324075D01*
X156589409Y-118307037D01*
X157221716Y-117674728D01*
X157167550Y-117635375D01*
X156978216Y-117538904D01*
X156802026Y-117481656D01*
X156744350Y-117442218D01*
X156717152Y-117377860D01*
X156729067Y-117309013D01*
X156776311Y-117257538D01*
X156792882Y-117249168D01*
X156957598Y-117180941D01*
X157129655Y-117065977D01*
X157275977Y-116919655D01*
X157390941Y-116747598D01*
X157470130Y-116556420D01*
X157510500Y-116353465D01*
X157510500Y-116146535D01*
X157470130Y-115943580D01*
X157390941Y-115752402D01*
X157275977Y-115580345D01*
X157275975Y-115580342D01*
X157129657Y-115434024D01*
X157043626Y-115376541D01*
X156957598Y-115319059D01*
X156766420Y-115239870D01*
X156766412Y-115239868D01*
X156563469Y-115199500D01*
X156563465Y-115199500D01*
X156356535Y-115199500D01*
X156356530Y-115199500D01*
X156153587Y-115239868D01*
X156153579Y-115239870D01*
X155962403Y-115319058D01*
X155790342Y-115434024D01*
X155644024Y-115580342D01*
X155529058Y-115752403D01*
X155449870Y-115943579D01*
X155449868Y-115943587D01*
X155409500Y-116146530D01*
X155409500Y-116353469D01*
X155449868Y-116556412D01*
X155449870Y-116556420D01*
X155529058Y-116747596D01*
X155644024Y-116919657D01*
X155790342Y-117065975D01*
X155962405Y-117180943D01*
X156065043Y-117223456D01*
X156127108Y-117249164D01*
X156181511Y-117293005D01*
X156203576Y-117359299D01*
X156186297Y-117426998D01*
X156135160Y-117474609D01*
X156117974Y-117481656D01*
X155941781Y-117538905D01*
X155752439Y-117635380D01*
X155698282Y-117674727D01*
X155698282Y-117674728D01*
X156330591Y-118307037D01*
X156267007Y-118324075D01*
X156152993Y-118389901D01*
X156059901Y-118482993D01*
X155994075Y-118597007D01*
X155977037Y-118660591D01*
X155344728Y-118028282D01*
X155344727Y-118028282D01*
X155305380Y-118082439D01*
X155208904Y-118271782D01*
X155143242Y-118473869D01*
X155143242Y-118473872D01*
X155110000Y-118683753D01*
X134649947Y-118683753D01*
X134610130Y-118483580D01*
X134530941Y-118292402D01*
X134415977Y-118120345D01*
X134415975Y-118120342D01*
X134269657Y-117974024D01*
X134183626Y-117916541D01*
X134097598Y-117859059D01*
X133906420Y-117779870D01*
X133906412Y-117779868D01*
X133703469Y-117739500D01*
X133703465Y-117739500D01*
X133496535Y-117739500D01*
X133496530Y-117739500D01*
X133293587Y-117779868D01*
X133293579Y-117779870D01*
X133102403Y-117859058D01*
X132930342Y-117974024D01*
X132784024Y-118120342D01*
X132669058Y-118292403D01*
X132589870Y-118483579D01*
X132589868Y-118483587D01*
X132549500Y-118686530D01*
X125250500Y-118686530D01*
X125250500Y-116146530D01*
X132549500Y-116146530D01*
X132549500Y-116353469D01*
X132589868Y-116556412D01*
X132589870Y-116556420D01*
X132669058Y-116747596D01*
X132784024Y-116919657D01*
X132930342Y-117065975D01*
X132930345Y-117065977D01*
X133102402Y-117180941D01*
X133293580Y-117260130D01*
X133458855Y-117293005D01*
X133496530Y-117300499D01*
X133496534Y-117300500D01*
X133496535Y-117300500D01*
X133703466Y-117300500D01*
X133703467Y-117300499D01*
X133906420Y-117260130D01*
X134097598Y-117180941D01*
X134269655Y-117065977D01*
X134415977Y-116919655D01*
X134530941Y-116747598D01*
X134610130Y-116556420D01*
X134650500Y-116353465D01*
X134650500Y-116146535D01*
X134610130Y-115943580D01*
X134530941Y-115752402D01*
X134415977Y-115580345D01*
X134415975Y-115580342D01*
X134269657Y-115434024D01*
X134183626Y-115376541D01*
X134097598Y-115319059D01*
X133906420Y-115239870D01*
X133906412Y-115239868D01*
X133703469Y-115199500D01*
X133703465Y-115199500D01*
X133496535Y-115199500D01*
X133496530Y-115199500D01*
X133293587Y-115239868D01*
X133293579Y-115239870D01*
X133102403Y-115319058D01*
X132930342Y-115434024D01*
X132784024Y-115580342D01*
X132669058Y-115752403D01*
X132589870Y-115943579D01*
X132589868Y-115943587D01*
X132549500Y-116146530D01*
X125250500Y-116146530D01*
X125250500Y-113606530D01*
X132549500Y-113606530D01*
X132549500Y-113813469D01*
X132589868Y-114016412D01*
X132589870Y-114016420D01*
X132669058Y-114207596D01*
X132784024Y-114379657D01*
X132930342Y-114525975D01*
X132930345Y-114525977D01*
X133102402Y-114640941D01*
X133293580Y-114720130D01*
X133496530Y-114760499D01*
X133496534Y-114760500D01*
X133496535Y-114760500D01*
X133703466Y-114760500D01*
X133703467Y-114760499D01*
X133906420Y-114720130D01*
X134097598Y-114640941D01*
X134269655Y-114525977D01*
X134415977Y-114379655D01*
X134530941Y-114207598D01*
X134610130Y-114016420D01*
X134650500Y-113813465D01*
X134650500Y-113606535D01*
X134650499Y-113606530D01*
X155409500Y-113606530D01*
X155409500Y-113813469D01*
X155449868Y-114016412D01*
X155449870Y-114016420D01*
X155529058Y-114207596D01*
X155644024Y-114379657D01*
X155790342Y-114525975D01*
X155790345Y-114525977D01*
X155962402Y-114640941D01*
X156153580Y-114720130D01*
X156356530Y-114760499D01*
X156356534Y-114760500D01*
X156356535Y-114760500D01*
X156563466Y-114760500D01*
X156563467Y-114760499D01*
X156766420Y-114720130D01*
X156957598Y-114640941D01*
X157129655Y-114525977D01*
X157275977Y-114379655D01*
X157390941Y-114207598D01*
X157470130Y-114016420D01*
X157510500Y-113813465D01*
X157510500Y-113606535D01*
X157470130Y-113403580D01*
X157390941Y-113212402D01*
X157275977Y-113040345D01*
X157275975Y-113040342D01*
X157129657Y-112894024D01*
X157043626Y-112836541D01*
X156957598Y-112779059D01*
X156766420Y-112699870D01*
X156766412Y-112699868D01*
X156563469Y-112659500D01*
X156563465Y-112659500D01*
X156356535Y-112659500D01*
X156356530Y-112659500D01*
X156153587Y-112699868D01*
X156153579Y-112699870D01*
X155962403Y-112779058D01*
X155790342Y-112894024D01*
X155644024Y-113040342D01*
X155529058Y-113212403D01*
X155449870Y-113403579D01*
X155449868Y-113403587D01*
X155409500Y-113606530D01*
X134650499Y-113606530D01*
X134610130Y-113403580D01*
X134530941Y-113212402D01*
X134415977Y-113040345D01*
X134415975Y-113040342D01*
X134269657Y-112894024D01*
X134183626Y-112836541D01*
X134097598Y-112779059D01*
X133906420Y-112699870D01*
X133906412Y-112699868D01*
X133703469Y-112659500D01*
X133703465Y-112659500D01*
X133496535Y-112659500D01*
X133496530Y-112659500D01*
X133293587Y-112699868D01*
X133293579Y-112699870D01*
X133102403Y-112779058D01*
X132930342Y-112894024D01*
X132784024Y-113040342D01*
X132669058Y-113212403D01*
X132589870Y-113403579D01*
X132589868Y-113403587D01*
X132549500Y-113606530D01*
X125250500Y-113606530D01*
X125250500Y-111066530D01*
X132549500Y-111066530D01*
X132549500Y-111273469D01*
X132589868Y-111476412D01*
X132589870Y-111476420D01*
X132669058Y-111667596D01*
X132784024Y-111839657D01*
X132930342Y-111985975D01*
X132930345Y-111985977D01*
X133102402Y-112100941D01*
X133293580Y-112180130D01*
X133496530Y-112220499D01*
X133496534Y-112220500D01*
X133496535Y-112220500D01*
X133703466Y-112220500D01*
X133703467Y-112220499D01*
X133906420Y-112180130D01*
X134097598Y-112100941D01*
X134269655Y-111985977D01*
X134415977Y-111839655D01*
X134530941Y-111667598D01*
X134610130Y-111476420D01*
X134650500Y-111273465D01*
X134650500Y-111066535D01*
X134610130Y-110863580D01*
X134530941Y-110672402D01*
X134415977Y-110500345D01*
X134415975Y-110500342D01*
X134269657Y-110354024D01*
X134126424Y-110258320D01*
X134097598Y-110239059D01*
X133909882Y-110161304D01*
X145979500Y-110161304D01*
X145979500Y-110338695D01*
X146014103Y-110512658D01*
X146014106Y-110512667D01*
X146081983Y-110676540D01*
X146081990Y-110676553D01*
X146180535Y-110824034D01*
X146180538Y-110824038D01*
X146305961Y-110949461D01*
X146305965Y-110949464D01*
X146453446Y-111048009D01*
X146453459Y-111048016D01*
X146576363Y-111098923D01*
X146617334Y-111115894D01*
X146617336Y-111115894D01*
X146617341Y-111115896D01*
X146791304Y-111150499D01*
X146791307Y-111150500D01*
X146791309Y-111150500D01*
X146968693Y-111150500D01*
X146968694Y-111150499D01*
X147026682Y-111138964D01*
X147142658Y-111115896D01*
X147142661Y-111115894D01*
X147142666Y-111115894D01*
X147306547Y-111048013D01*
X147454035Y-110949464D01*
X147579464Y-110824035D01*
X147678013Y-110676547D01*
X147679730Y-110672403D01*
X147687958Y-110652535D01*
X147745894Y-110512666D01*
X147748346Y-110500342D01*
X147780499Y-110338695D01*
X147780500Y-110338693D01*
X147780500Y-110161306D01*
X147780499Y-110161304D01*
X151059500Y-110161304D01*
X151059500Y-110338695D01*
X151094103Y-110512658D01*
X151094106Y-110512667D01*
X151161983Y-110676540D01*
X151161990Y-110676553D01*
X151260535Y-110824034D01*
X151260538Y-110824038D01*
X151385961Y-110949461D01*
X151385965Y-110949464D01*
X151533446Y-111048009D01*
X151533459Y-111048016D01*
X151656363Y-111098923D01*
X151697334Y-111115894D01*
X151697336Y-111115894D01*
X151697341Y-111115896D01*
X151871304Y-111150499D01*
X151871307Y-111150500D01*
X151871309Y-111150500D01*
X152048693Y-111150500D01*
X152048694Y-111150499D01*
X152106682Y-111138964D01*
X152222658Y-111115896D01*
X152222661Y-111115894D01*
X152222666Y-111115894D01*
X152341843Y-111066530D01*
X155409500Y-111066530D01*
X155409500Y-111273469D01*
X155449868Y-111476412D01*
X155449870Y-111476420D01*
X155529058Y-111667596D01*
X155644024Y-111839657D01*
X155790342Y-111985975D01*
X155790345Y-111985977D01*
X155962402Y-112100941D01*
X156153580Y-112180130D01*
X156356530Y-112220499D01*
X156356534Y-112220500D01*
X156356535Y-112220500D01*
X156563466Y-112220500D01*
X156563467Y-112220499D01*
X156766420Y-112180130D01*
X156957598Y-112100941D01*
X157129655Y-111985977D01*
X157275977Y-111839655D01*
X157390941Y-111667598D01*
X157470130Y-111476420D01*
X157510500Y-111273465D01*
X157510500Y-111066535D01*
X157470130Y-110863580D01*
X157390941Y-110672402D01*
X157275977Y-110500345D01*
X157275975Y-110500342D01*
X157129657Y-110354024D01*
X156986424Y-110258320D01*
X156957598Y-110239059D01*
X156766420Y-110159870D01*
X156766412Y-110159868D01*
X156563469Y-110119500D01*
X156563465Y-110119500D01*
X156356535Y-110119500D01*
X156356530Y-110119500D01*
X156153587Y-110159868D01*
X156153579Y-110159870D01*
X155962403Y-110239058D01*
X155790342Y-110354024D01*
X155644024Y-110500342D01*
X155529058Y-110672403D01*
X155449870Y-110863579D01*
X155449868Y-110863587D01*
X155409500Y-111066530D01*
X152341843Y-111066530D01*
X152386547Y-111048013D01*
X152386553Y-111048009D01*
X152522247Y-110957341D01*
X152527032Y-110954142D01*
X152534035Y-110949464D01*
X152659464Y-110824035D01*
X152758013Y-110676547D01*
X152759730Y-110672403D01*
X152767958Y-110652535D01*
X152825894Y-110512666D01*
X152828346Y-110500342D01*
X152860499Y-110338695D01*
X152860500Y-110338693D01*
X152860500Y-110161306D01*
X152860499Y-110161304D01*
X152825896Y-109987341D01*
X152825893Y-109987332D01*
X152758016Y-109823459D01*
X152758009Y-109823446D01*
X152659464Y-109675965D01*
X152659461Y-109675961D01*
X152534038Y-109550538D01*
X152534034Y-109550535D01*
X152386553Y-109451990D01*
X152386540Y-109451983D01*
X152222667Y-109384106D01*
X152222658Y-109384103D01*
X152048694Y-109349500D01*
X152048691Y-109349500D01*
X151871309Y-109349500D01*
X151871306Y-109349500D01*
X151697341Y-109384103D01*
X151697332Y-109384106D01*
X151533459Y-109451983D01*
X151533446Y-109451990D01*
X151385965Y-109550535D01*
X151385961Y-109550538D01*
X151260538Y-109675961D01*
X151260535Y-109675965D01*
X151161990Y-109823446D01*
X151161983Y-109823459D01*
X151094106Y-109987332D01*
X151094103Y-109987341D01*
X151059500Y-110161304D01*
X147780499Y-110161304D01*
X147745896Y-109987341D01*
X147745893Y-109987332D01*
X147678016Y-109823459D01*
X147678009Y-109823446D01*
X147579464Y-109675965D01*
X147579461Y-109675961D01*
X147454038Y-109550538D01*
X147454034Y-109550535D01*
X147306553Y-109451990D01*
X147306540Y-109451983D01*
X147142667Y-109384106D01*
X147142658Y-109384103D01*
X146968694Y-109349500D01*
X146968691Y-109349500D01*
X146791309Y-109349500D01*
X146791306Y-109349500D01*
X146617341Y-109384103D01*
X146617332Y-109384106D01*
X146453459Y-109451983D01*
X146453446Y-109451990D01*
X146305965Y-109550535D01*
X146305961Y-109550538D01*
X146180538Y-109675961D01*
X146180535Y-109675965D01*
X146081990Y-109823446D01*
X146081983Y-109823459D01*
X146014106Y-109987332D01*
X146014103Y-109987341D01*
X145979500Y-110161304D01*
X133909882Y-110161304D01*
X133906420Y-110159870D01*
X133906412Y-110159868D01*
X133703469Y-110119500D01*
X133703465Y-110119500D01*
X133496535Y-110119500D01*
X133496530Y-110119500D01*
X133293587Y-110159868D01*
X133293579Y-110159870D01*
X133102403Y-110239058D01*
X132930342Y-110354024D01*
X132784024Y-110500342D01*
X132669058Y-110672403D01*
X132589870Y-110863579D01*
X132589868Y-110863587D01*
X132549500Y-111066530D01*
X125250500Y-111066530D01*
X125250500Y-108526530D01*
X132549500Y-108526530D01*
X132549500Y-108733469D01*
X132589868Y-108936412D01*
X132589870Y-108936420D01*
X132669058Y-109127596D01*
X132784024Y-109299657D01*
X132930342Y-109445975D01*
X132930345Y-109445977D01*
X133102402Y-109560941D01*
X133293580Y-109640130D01*
X133473716Y-109675961D01*
X133496530Y-109680499D01*
X133496534Y-109680500D01*
X133496535Y-109680500D01*
X133703466Y-109680500D01*
X133703467Y-109680499D01*
X133906420Y-109640130D01*
X134097598Y-109560941D01*
X134269655Y-109445977D01*
X134415977Y-109299655D01*
X134530941Y-109127598D01*
X134610130Y-108936420D01*
X134650500Y-108733465D01*
X134650500Y-108526535D01*
X134650499Y-108526530D01*
X155409500Y-108526530D01*
X155409500Y-108733469D01*
X155449868Y-108936412D01*
X155449870Y-108936420D01*
X155529058Y-109127596D01*
X155644024Y-109299657D01*
X155790342Y-109445975D01*
X155790345Y-109445977D01*
X155962402Y-109560941D01*
X156153580Y-109640130D01*
X156333716Y-109675961D01*
X156356530Y-109680499D01*
X156356534Y-109680500D01*
X156356535Y-109680500D01*
X156563466Y-109680500D01*
X156563467Y-109680499D01*
X156766420Y-109640130D01*
X156957598Y-109560941D01*
X157129655Y-109445977D01*
X157275977Y-109299655D01*
X157390941Y-109127598D01*
X157470130Y-108936420D01*
X157510500Y-108733465D01*
X157510500Y-108526535D01*
X157470130Y-108323580D01*
X157390941Y-108132402D01*
X157275977Y-107960345D01*
X157275975Y-107960342D01*
X157129657Y-107814024D01*
X157043626Y-107756541D01*
X156957598Y-107699059D01*
X156766420Y-107619870D01*
X156766412Y-107619868D01*
X156563469Y-107579500D01*
X156563465Y-107579500D01*
X156356535Y-107579500D01*
X156356530Y-107579500D01*
X156153587Y-107619868D01*
X156153579Y-107619870D01*
X155962403Y-107699058D01*
X155790342Y-107814024D01*
X155644024Y-107960342D01*
X155529058Y-108132403D01*
X155449870Y-108323579D01*
X155449868Y-108323587D01*
X155409500Y-108526530D01*
X134650499Y-108526530D01*
X134610130Y-108323580D01*
X134530941Y-108132402D01*
X134415977Y-107960345D01*
X134415975Y-107960342D01*
X134269657Y-107814024D01*
X134183626Y-107756541D01*
X134097598Y-107699059D01*
X133906420Y-107619870D01*
X133906412Y-107619868D01*
X133703469Y-107579500D01*
X133703465Y-107579500D01*
X133496535Y-107579500D01*
X133496530Y-107579500D01*
X133293587Y-107619868D01*
X133293579Y-107619870D01*
X133102403Y-107699058D01*
X132930342Y-107814024D01*
X132784024Y-107960342D01*
X132669058Y-108132403D01*
X132589870Y-108323579D01*
X132589868Y-108323587D01*
X132549500Y-108526530D01*
X125250500Y-108526530D01*
X125250500Y-105986530D01*
X132549500Y-105986530D01*
X132549500Y-106193469D01*
X132589868Y-106396412D01*
X132589870Y-106396420D01*
X132669058Y-106587596D01*
X132784024Y-106759657D01*
X132930342Y-106905975D01*
X132930345Y-106905977D01*
X133102402Y-107020941D01*
X133293580Y-107100130D01*
X133496530Y-107140499D01*
X133496534Y-107140500D01*
X133496535Y-107140500D01*
X133703466Y-107140500D01*
X133703467Y-107140499D01*
X133906420Y-107100130D01*
X134097598Y-107020941D01*
X134269655Y-106905977D01*
X134415977Y-106759655D01*
X134530941Y-106587598D01*
X134610130Y-106396420D01*
X134650500Y-106193465D01*
X134650500Y-105986535D01*
X134650499Y-105986530D01*
X155409500Y-105986530D01*
X155409500Y-106193469D01*
X155449868Y-106396412D01*
X155449870Y-106396420D01*
X155529058Y-106587596D01*
X155644024Y-106759657D01*
X155790342Y-106905975D01*
X155790345Y-106905977D01*
X155962402Y-107020941D01*
X156153580Y-107100130D01*
X156356530Y-107140499D01*
X156356534Y-107140500D01*
X156356535Y-107140500D01*
X156563466Y-107140500D01*
X156563467Y-107140499D01*
X156766420Y-107100130D01*
X156957598Y-107020941D01*
X157129655Y-106905977D01*
X157275977Y-106759655D01*
X157390941Y-106587598D01*
X157470130Y-106396420D01*
X157510500Y-106193465D01*
X157510500Y-105986535D01*
X157470130Y-105783580D01*
X157390941Y-105592402D01*
X157275977Y-105420345D01*
X157275975Y-105420342D01*
X157129657Y-105274024D01*
X157043626Y-105216541D01*
X156957598Y-105159059D01*
X156766420Y-105079870D01*
X156766412Y-105079868D01*
X156563469Y-105039500D01*
X156563465Y-105039500D01*
X156356535Y-105039500D01*
X156356530Y-105039500D01*
X156153587Y-105079868D01*
X156153579Y-105079870D01*
X155962403Y-105159058D01*
X155790342Y-105274024D01*
X155644024Y-105420342D01*
X155529058Y-105592403D01*
X155449870Y-105783579D01*
X155449868Y-105783587D01*
X155409500Y-105986530D01*
X134650499Y-105986530D01*
X134610130Y-105783580D01*
X134530941Y-105592402D01*
X134415977Y-105420345D01*
X134415975Y-105420342D01*
X134269657Y-105274024D01*
X134183626Y-105216541D01*
X134097598Y-105159059D01*
X133906420Y-105079870D01*
X133906412Y-105079868D01*
X133703469Y-105039500D01*
X133703465Y-105039500D01*
X133496535Y-105039500D01*
X133496530Y-105039500D01*
X133293587Y-105079868D01*
X133293579Y-105079870D01*
X133102403Y-105159058D01*
X132930342Y-105274024D01*
X132784024Y-105420342D01*
X132669058Y-105592403D01*
X132589870Y-105783579D01*
X132589868Y-105783587D01*
X132549500Y-105986530D01*
X125250500Y-105986530D01*
X125250500Y-104661304D01*
X137519500Y-104661304D01*
X137519500Y-104838695D01*
X137554103Y-105012658D01*
X137554106Y-105012667D01*
X137621983Y-105176540D01*
X137621990Y-105176553D01*
X137720535Y-105324034D01*
X137720538Y-105324038D01*
X137845961Y-105449461D01*
X137845965Y-105449464D01*
X137993446Y-105548009D01*
X137993459Y-105548016D01*
X138100619Y-105592402D01*
X138157334Y-105615894D01*
X138157336Y-105615894D01*
X138157341Y-105615896D01*
X138331304Y-105650499D01*
X138331307Y-105650500D01*
X138331309Y-105650500D01*
X138508693Y-105650500D01*
X138508694Y-105650499D01*
X138566682Y-105638964D01*
X138682658Y-105615896D01*
X138682661Y-105615894D01*
X138682666Y-105615894D01*
X138846547Y-105548013D01*
X138994035Y-105449464D01*
X139119464Y-105324035D01*
X139218013Y-105176547D01*
X139285894Y-105012666D01*
X139320500Y-104838691D01*
X139320500Y-104661309D01*
X139320500Y-104661306D01*
X139320499Y-104661304D01*
X142599500Y-104661304D01*
X142599500Y-104838695D01*
X142634103Y-105012658D01*
X142634106Y-105012667D01*
X142701983Y-105176540D01*
X142701990Y-105176553D01*
X142800535Y-105324034D01*
X142800538Y-105324038D01*
X142925961Y-105449461D01*
X142925965Y-105449464D01*
X143073446Y-105548009D01*
X143073459Y-105548016D01*
X143180619Y-105592402D01*
X143237334Y-105615894D01*
X143237336Y-105615894D01*
X143237341Y-105615896D01*
X143411304Y-105650499D01*
X143411307Y-105650500D01*
X143411309Y-105650500D01*
X143588693Y-105650500D01*
X143588694Y-105650499D01*
X143646682Y-105638964D01*
X143762658Y-105615896D01*
X143762661Y-105615894D01*
X143762666Y-105615894D01*
X143926547Y-105548013D01*
X144074035Y-105449464D01*
X144199464Y-105324035D01*
X144298013Y-105176547D01*
X144365894Y-105012666D01*
X144400500Y-104838691D01*
X144400500Y-104661309D01*
X144400500Y-104661306D01*
X144400499Y-104661304D01*
X146019500Y-104661304D01*
X146019500Y-104838695D01*
X146054103Y-105012658D01*
X146054106Y-105012667D01*
X146121983Y-105176540D01*
X146121990Y-105176553D01*
X146220535Y-105324034D01*
X146220538Y-105324038D01*
X146345961Y-105449461D01*
X146345965Y-105449464D01*
X146493446Y-105548009D01*
X146493459Y-105548016D01*
X146600619Y-105592402D01*
X146657334Y-105615894D01*
X146657336Y-105615894D01*
X146657341Y-105615896D01*
X146831304Y-105650499D01*
X146831307Y-105650500D01*
X146831309Y-105650500D01*
X147008693Y-105650500D01*
X147008694Y-105650499D01*
X147066682Y-105638964D01*
X147182658Y-105615896D01*
X147182661Y-105615894D01*
X147182666Y-105615894D01*
X147346547Y-105548013D01*
X147494035Y-105449464D01*
X147619464Y-105324035D01*
X147718013Y-105176547D01*
X147785894Y-105012666D01*
X147820500Y-104838691D01*
X147820500Y-104661309D01*
X147820500Y-104661306D01*
X147820499Y-104661304D01*
X151099500Y-104661304D01*
X151099500Y-104838695D01*
X151134103Y-105012658D01*
X151134106Y-105012667D01*
X151201983Y-105176540D01*
X151201990Y-105176553D01*
X151300535Y-105324034D01*
X151300538Y-105324038D01*
X151425961Y-105449461D01*
X151425965Y-105449464D01*
X151573446Y-105548009D01*
X151573459Y-105548016D01*
X151680619Y-105592402D01*
X151737334Y-105615894D01*
X151737336Y-105615894D01*
X151737341Y-105615896D01*
X151911304Y-105650499D01*
X151911307Y-105650500D01*
X151911309Y-105650500D01*
X152088693Y-105650500D01*
X152088694Y-105650499D01*
X152146682Y-105638964D01*
X152262658Y-105615896D01*
X152262661Y-105615894D01*
X152262666Y-105615894D01*
X152426547Y-105548013D01*
X152574035Y-105449464D01*
X152699464Y-105324035D01*
X152798013Y-105176547D01*
X152865894Y-105012666D01*
X152900500Y-104838691D01*
X152900500Y-104661309D01*
X152900500Y-104661306D01*
X152900499Y-104661304D01*
X152865896Y-104487341D01*
X152865893Y-104487332D01*
X152862122Y-104478229D01*
X152837899Y-104419748D01*
X152798016Y-104323459D01*
X152798009Y-104323446D01*
X152699464Y-104175965D01*
X152699461Y-104175961D01*
X152574038Y-104050538D01*
X152574034Y-104050535D01*
X152426553Y-103951990D01*
X152426540Y-103951983D01*
X152262667Y-103884106D01*
X152262658Y-103884103D01*
X152088694Y-103849500D01*
X152088691Y-103849500D01*
X151911309Y-103849500D01*
X151911306Y-103849500D01*
X151737341Y-103884103D01*
X151737332Y-103884106D01*
X151573459Y-103951983D01*
X151573446Y-103951990D01*
X151425965Y-104050535D01*
X151425961Y-104050538D01*
X151300538Y-104175961D01*
X151300535Y-104175965D01*
X151201990Y-104323446D01*
X151201983Y-104323459D01*
X151134106Y-104487332D01*
X151134103Y-104487341D01*
X151099500Y-104661304D01*
X147820499Y-104661304D01*
X147785896Y-104487341D01*
X147785893Y-104487332D01*
X147782122Y-104478229D01*
X147757899Y-104419748D01*
X147718016Y-104323459D01*
X147718009Y-104323446D01*
X147619464Y-104175965D01*
X147619461Y-104175961D01*
X147494038Y-104050538D01*
X147494034Y-104050535D01*
X147346553Y-103951990D01*
X147346540Y-103951983D01*
X147182667Y-103884106D01*
X147182658Y-103884103D01*
X147008694Y-103849500D01*
X147008691Y-103849500D01*
X146831309Y-103849500D01*
X146831306Y-103849500D01*
X146657341Y-103884103D01*
X146657332Y-103884106D01*
X146493459Y-103951983D01*
X146493446Y-103951990D01*
X146345965Y-104050535D01*
X146345961Y-104050538D01*
X146220538Y-104175961D01*
X146220535Y-104175965D01*
X146121990Y-104323446D01*
X146121983Y-104323459D01*
X146054106Y-104487332D01*
X146054103Y-104487341D01*
X146019500Y-104661304D01*
X144400499Y-104661304D01*
X144365896Y-104487341D01*
X144365893Y-104487332D01*
X144362122Y-104478229D01*
X144337899Y-104419748D01*
X144298016Y-104323459D01*
X144298009Y-104323446D01*
X144199464Y-104175965D01*
X144199461Y-104175961D01*
X144074038Y-104050538D01*
X144074034Y-104050535D01*
X143926553Y-103951990D01*
X143926540Y-103951983D01*
X143762667Y-103884106D01*
X143762658Y-103884103D01*
X143588694Y-103849500D01*
X143588691Y-103849500D01*
X143411309Y-103849500D01*
X143411306Y-103849500D01*
X143237341Y-103884103D01*
X143237332Y-103884106D01*
X143073459Y-103951983D01*
X143073446Y-103951990D01*
X142925965Y-104050535D01*
X142925961Y-104050538D01*
X142800538Y-104175961D01*
X142800535Y-104175965D01*
X142701990Y-104323446D01*
X142701983Y-104323459D01*
X142634106Y-104487332D01*
X142634103Y-104487341D01*
X142599500Y-104661304D01*
X139320499Y-104661304D01*
X139285896Y-104487341D01*
X139285893Y-104487332D01*
X139282122Y-104478229D01*
X139257899Y-104419748D01*
X139218016Y-104323459D01*
X139218009Y-104323446D01*
X139119464Y-104175965D01*
X139119461Y-104175961D01*
X138994038Y-104050538D01*
X138994034Y-104050535D01*
X138846553Y-103951990D01*
X138846540Y-103951983D01*
X138682667Y-103884106D01*
X138682658Y-103884103D01*
X138508694Y-103849500D01*
X138508691Y-103849500D01*
X138331309Y-103849500D01*
X138331306Y-103849500D01*
X138157341Y-103884103D01*
X138157332Y-103884106D01*
X137993459Y-103951983D01*
X137993446Y-103951990D01*
X137845965Y-104050535D01*
X137845961Y-104050538D01*
X137720538Y-104175961D01*
X137720535Y-104175965D01*
X137621990Y-104323446D01*
X137621983Y-104323459D01*
X137554106Y-104487332D01*
X137554103Y-104487341D01*
X137519500Y-104661304D01*
X125250500Y-104661304D01*
X125250500Y-102680247D01*
X132549500Y-102680247D01*
X132549500Y-104419752D01*
X132561131Y-104478229D01*
X132561132Y-104478230D01*
X132605447Y-104544552D01*
X132671769Y-104588867D01*
X132671770Y-104588868D01*
X132730247Y-104600499D01*
X132730250Y-104600500D01*
X132730252Y-104600500D01*
X134469750Y-104600500D01*
X134469751Y-104600499D01*
X134484568Y-104597552D01*
X134528229Y-104588868D01*
X134528229Y-104588867D01*
X134528231Y-104588867D01*
X134561680Y-104566516D01*
X134583234Y-104552115D01*
X134594552Y-104544552D01*
X134638867Y-104478231D01*
X134638867Y-104478229D01*
X134638868Y-104478229D01*
X134650499Y-104419752D01*
X134650500Y-104419750D01*
X134650500Y-102680249D01*
X134650499Y-102680247D01*
X155409500Y-102680247D01*
X155409500Y-104419752D01*
X155421131Y-104478229D01*
X155421132Y-104478230D01*
X155465447Y-104544552D01*
X155531769Y-104588867D01*
X155531770Y-104588868D01*
X155590247Y-104600499D01*
X155590250Y-104600500D01*
X155590252Y-104600500D01*
X157329750Y-104600500D01*
X157329751Y-104600499D01*
X157344568Y-104597552D01*
X157388229Y-104588868D01*
X157388229Y-104588867D01*
X157388231Y-104588867D01*
X157454552Y-104544552D01*
X157498867Y-104478231D01*
X157498867Y-104478229D01*
X157498868Y-104478229D01*
X157510499Y-104419752D01*
X157510500Y-104419750D01*
X157510500Y-102680249D01*
X157510499Y-102680247D01*
X157498868Y-102621770D01*
X157498867Y-102621769D01*
X157454552Y-102555447D01*
X157388230Y-102511132D01*
X157388229Y-102511131D01*
X157329752Y-102499500D01*
X157329748Y-102499500D01*
X155590252Y-102499500D01*
X155590247Y-102499500D01*
X155531770Y-102511131D01*
X155531769Y-102511132D01*
X155465447Y-102555447D01*
X155421132Y-102621769D01*
X155421131Y-102621770D01*
X155409500Y-102680247D01*
X134650499Y-102680247D01*
X134638868Y-102621770D01*
X134638867Y-102621769D01*
X134594552Y-102555447D01*
X134528230Y-102511132D01*
X134528229Y-102511131D01*
X134469752Y-102499500D01*
X134469748Y-102499500D01*
X132730252Y-102499500D01*
X132730247Y-102499500D01*
X132671770Y-102511131D01*
X132671769Y-102511132D01*
X132605447Y-102555447D01*
X132561132Y-102621769D01*
X132561131Y-102621770D01*
X132549500Y-102680247D01*
X125250500Y-102680247D01*
X125250500Y-95830247D01*
X141819500Y-95830247D01*
X141819500Y-97669752D01*
X141831131Y-97728229D01*
X141831132Y-97728230D01*
X141875447Y-97794552D01*
X141941769Y-97838867D01*
X141941770Y-97838868D01*
X142000247Y-97850499D01*
X142000250Y-97850500D01*
X142000252Y-97850500D01*
X143839750Y-97850500D01*
X143839751Y-97850499D01*
X143854568Y-97847552D01*
X143898229Y-97838868D01*
X143898229Y-97838867D01*
X143898231Y-97838867D01*
X143964552Y-97794552D01*
X144008867Y-97728231D01*
X144008867Y-97728229D01*
X144008868Y-97728229D01*
X144020499Y-97669752D01*
X144020500Y-97669750D01*
X144020500Y-97525084D01*
X144040185Y-97458045D01*
X144092989Y-97412290D01*
X144162147Y-97402346D01*
X144225703Y-97431371D01*
X144254985Y-97468789D01*
X144262611Y-97483756D01*
X144308932Y-97547513D01*
X145017861Y-96838584D01*
X145040667Y-96923694D01*
X145099910Y-97026306D01*
X145183694Y-97110090D01*
X145286306Y-97169333D01*
X145371414Y-97192137D01*
X144662485Y-97901065D01*
X144662485Y-97901066D01*
X144726243Y-97947388D01*
X144922589Y-98047432D01*
X145132164Y-98115526D01*
X145349819Y-98150000D01*
X145570181Y-98150000D01*
X145787835Y-98115526D01*
X145997410Y-98047432D01*
X146193760Y-97947386D01*
X146257513Y-97901066D01*
X146257514Y-97901066D01*
X145548585Y-97192138D01*
X145633694Y-97169333D01*
X145736306Y-97110090D01*
X145820090Y-97026306D01*
X145879333Y-96923694D01*
X145902137Y-96838585D01*
X146611066Y-97547514D01*
X146611066Y-97547513D01*
X146657386Y-97483760D01*
X146757433Y-97287408D01*
X146774447Y-97235045D01*
X146813884Y-97177369D01*
X146878242Y-97150170D01*
X146947089Y-97162084D01*
X146998565Y-97209328D01*
X147002863Y-97217068D01*
X147058766Y-97326786D01*
X147089357Y-97368890D01*
X147160586Y-97466928D01*
X147283072Y-97589414D01*
X147423212Y-97691232D01*
X147577555Y-97769873D01*
X147742299Y-97823402D01*
X147913389Y-97850500D01*
X147913390Y-97850500D01*
X148086610Y-97850500D01*
X148086611Y-97850500D01*
X148257701Y-97823402D01*
X148422445Y-97769873D01*
X148576788Y-97691232D01*
X148716928Y-97589414D01*
X148839414Y-97466928D01*
X148941232Y-97326788D01*
X148993730Y-97223753D01*
X160650000Y-97223753D01*
X160650000Y-97436246D01*
X160683242Y-97646127D01*
X160683242Y-97646130D01*
X160748904Y-97848217D01*
X160845375Y-98037550D01*
X160884728Y-98091716D01*
X161517036Y-97459407D01*
X161534075Y-97522993D01*
X161599901Y-97637007D01*
X161692993Y-97730099D01*
X161807007Y-97795925D01*
X161870590Y-97812962D01*
X161238282Y-98445269D01*
X161238282Y-98445270D01*
X161292449Y-98484624D01*
X161481782Y-98581095D01*
X161683870Y-98646757D01*
X161893754Y-98680000D01*
X162106246Y-98680000D01*
X162316127Y-98646757D01*
X162316130Y-98646757D01*
X162518217Y-98581095D01*
X162707554Y-98484622D01*
X162761716Y-98445270D01*
X162761717Y-98445270D01*
X162129408Y-97812962D01*
X162192993Y-97795925D01*
X162307007Y-97730099D01*
X162400099Y-97637007D01*
X162465925Y-97522993D01*
X162482962Y-97459408D01*
X163115270Y-98091717D01*
X163115270Y-98091716D01*
X163154622Y-98037554D01*
X163251095Y-97848217D01*
X163316757Y-97646130D01*
X163316757Y-97646127D01*
X163350000Y-97436246D01*
X163350000Y-97223753D01*
X163316757Y-97013872D01*
X163316757Y-97013869D01*
X163251095Y-96811782D01*
X163154624Y-96622449D01*
X163115270Y-96568282D01*
X163115269Y-96568282D01*
X162482962Y-97200590D01*
X162465925Y-97137007D01*
X162400099Y-97022993D01*
X162307007Y-96929901D01*
X162192993Y-96864075D01*
X162129409Y-96847037D01*
X162761716Y-96214728D01*
X162707550Y-96175375D01*
X162518216Y-96078904D01*
X162342026Y-96021656D01*
X162284350Y-95982218D01*
X162257152Y-95917860D01*
X162269067Y-95849013D01*
X162316311Y-95797538D01*
X162332882Y-95789168D01*
X162497598Y-95720941D01*
X162669655Y-95605977D01*
X162815977Y-95459655D01*
X162930941Y-95287598D01*
X163010130Y-95096420D01*
X163050500Y-94893465D01*
X163050500Y-94686535D01*
X163010130Y-94483580D01*
X162930941Y-94292402D01*
X162815977Y-94120345D01*
X162815975Y-94120342D01*
X162669657Y-93974024D01*
X162507827Y-93865894D01*
X162497598Y-93859059D01*
X162306420Y-93779870D01*
X162306412Y-93779868D01*
X162103469Y-93739500D01*
X162103465Y-93739500D01*
X161896535Y-93739500D01*
X161896530Y-93739500D01*
X161693587Y-93779868D01*
X161693579Y-93779870D01*
X161502403Y-93859058D01*
X161330342Y-93974024D01*
X161184024Y-94120342D01*
X161069058Y-94292403D01*
X160989870Y-94483579D01*
X160989868Y-94483587D01*
X160949500Y-94686530D01*
X160949500Y-94893469D01*
X160989868Y-95096412D01*
X160989870Y-95096420D01*
X161069058Y-95287596D01*
X161184024Y-95459657D01*
X161330342Y-95605975D01*
X161502405Y-95720943D01*
X161605043Y-95763456D01*
X161667108Y-95789164D01*
X161721511Y-95833005D01*
X161743576Y-95899299D01*
X161726297Y-95966998D01*
X161675160Y-96014609D01*
X161657974Y-96021656D01*
X161481781Y-96078905D01*
X161292439Y-96175380D01*
X161238282Y-96214727D01*
X161238282Y-96214728D01*
X161870591Y-96847037D01*
X161807007Y-96864075D01*
X161692993Y-96929901D01*
X161599901Y-97022993D01*
X161534075Y-97137007D01*
X161517037Y-97200591D01*
X160884728Y-96568282D01*
X160884727Y-96568282D01*
X160845380Y-96622439D01*
X160748904Y-96811782D01*
X160683242Y-97013869D01*
X160683242Y-97013872D01*
X160650000Y-97223753D01*
X148993730Y-97223753D01*
X149019873Y-97172445D01*
X149073402Y-97007701D01*
X149100500Y-96836611D01*
X149100500Y-96663389D01*
X149073402Y-96492299D01*
X149019873Y-96327555D01*
X148941232Y-96173212D01*
X148839414Y-96033072D01*
X148716928Y-95910586D01*
X148576788Y-95808768D01*
X148422445Y-95730127D01*
X148257701Y-95676598D01*
X148257699Y-95676597D01*
X148257698Y-95676597D01*
X148126271Y-95655781D01*
X148086611Y-95649500D01*
X147913389Y-95649500D01*
X147873728Y-95655781D01*
X147742302Y-95676597D01*
X147577552Y-95730128D01*
X147423211Y-95808768D01*
X147343256Y-95866859D01*
X147283072Y-95910586D01*
X147283070Y-95910588D01*
X147283069Y-95910588D01*
X147160588Y-96033069D01*
X147160588Y-96033070D01*
X147160586Y-96033072D01*
X147129206Y-96076263D01*
X147058768Y-96173211D01*
X147002863Y-96282932D01*
X146954888Y-96333728D01*
X146887067Y-96350523D01*
X146820933Y-96327986D01*
X146777481Y-96273271D01*
X146774447Y-96264955D01*
X146757432Y-96212589D01*
X146657388Y-96016243D01*
X146611066Y-95952485D01*
X146611065Y-95952485D01*
X145902137Y-96661413D01*
X145879333Y-96576306D01*
X145820090Y-96473694D01*
X145736306Y-96389910D01*
X145633694Y-96330667D01*
X145548583Y-96307861D01*
X146257513Y-95598932D01*
X146193756Y-95552611D01*
X145997410Y-95452567D01*
X145787835Y-95384473D01*
X145570181Y-95350000D01*
X145349819Y-95350000D01*
X145132164Y-95384473D01*
X144922589Y-95452567D01*
X144726233Y-95552616D01*
X144662485Y-95598931D01*
X144662485Y-95598932D01*
X145371414Y-96307861D01*
X145286306Y-96330667D01*
X145183694Y-96389910D01*
X145099910Y-96473694D01*
X145040667Y-96576306D01*
X145017861Y-96661414D01*
X144308932Y-95952485D01*
X144308931Y-95952485D01*
X144262616Y-96016233D01*
X144254984Y-96031213D01*
X144207008Y-96082008D01*
X144139187Y-96098802D01*
X144073052Y-96076263D01*
X144029602Y-96021547D01*
X144020500Y-95974916D01*
X144020500Y-95830249D01*
X144020499Y-95830247D01*
X144008868Y-95771770D01*
X144008867Y-95771769D01*
X143970990Y-95715082D01*
X143970989Y-95715081D01*
X143964553Y-95705448D01*
X143898230Y-95661132D01*
X143898229Y-95661131D01*
X143839752Y-95649500D01*
X143839748Y-95649500D01*
X142000252Y-95649500D01*
X142000247Y-95649500D01*
X141941770Y-95661131D01*
X141941769Y-95661132D01*
X141875447Y-95705447D01*
X141831132Y-95771769D01*
X141831131Y-95771770D01*
X141819500Y-95830247D01*
X125250500Y-95830247D01*
X125250500Y-92911304D01*
X132519500Y-92911304D01*
X132519500Y-93088695D01*
X132554103Y-93262658D01*
X132554106Y-93262667D01*
X132621983Y-93426540D01*
X132621990Y-93426553D01*
X132720535Y-93574034D01*
X132720538Y-93574038D01*
X132845961Y-93699461D01*
X132845965Y-93699464D01*
X132993446Y-93798009D01*
X132993459Y-93798016D01*
X133116363Y-93848923D01*
X133157334Y-93865894D01*
X133157336Y-93865894D01*
X133157341Y-93865896D01*
X133331304Y-93900499D01*
X133331307Y-93900500D01*
X133331309Y-93900500D01*
X133508693Y-93900500D01*
X133508694Y-93900499D01*
X133566682Y-93888964D01*
X133682658Y-93865896D01*
X133682661Y-93865894D01*
X133682666Y-93865894D01*
X133846547Y-93798013D01*
X133994035Y-93699464D01*
X134119464Y-93574035D01*
X134218013Y-93426547D01*
X134285894Y-93262666D01*
X134302690Y-93178230D01*
X134308964Y-93146682D01*
X134320500Y-93088691D01*
X134320500Y-92911309D01*
X134320500Y-92911306D01*
X134320499Y-92911304D01*
X137599500Y-92911304D01*
X137599500Y-93088695D01*
X137634103Y-93262658D01*
X137634106Y-93262667D01*
X137701983Y-93426540D01*
X137701990Y-93426553D01*
X137800535Y-93574034D01*
X137800538Y-93574038D01*
X137925961Y-93699461D01*
X137925965Y-93699464D01*
X138073446Y-93798009D01*
X138073459Y-93798016D01*
X138196363Y-93848923D01*
X138237334Y-93865894D01*
X138237336Y-93865894D01*
X138237341Y-93865896D01*
X138411304Y-93900499D01*
X138411307Y-93900500D01*
X138411309Y-93900500D01*
X138588693Y-93900500D01*
X138588694Y-93900499D01*
X138646682Y-93888964D01*
X138762658Y-93865896D01*
X138762661Y-93865894D01*
X138762666Y-93865894D01*
X138926547Y-93798013D01*
X139074035Y-93699464D01*
X139199464Y-93574035D01*
X139298013Y-93426547D01*
X139365894Y-93262666D01*
X139382690Y-93178230D01*
X139388964Y-93146682D01*
X139400500Y-93088691D01*
X139400500Y-92911309D01*
X139400500Y-92911306D01*
X139400499Y-92911304D01*
X139365896Y-92737341D01*
X139365893Y-92737332D01*
X139298016Y-92573459D01*
X139298009Y-92573446D01*
X139199464Y-92425965D01*
X139199461Y-92425961D01*
X139074038Y-92300538D01*
X139074034Y-92300535D01*
X138926553Y-92201990D01*
X138926540Y-92201983D01*
X138762667Y-92134106D01*
X138762658Y-92134103D01*
X138588694Y-92099500D01*
X138588691Y-92099500D01*
X138411309Y-92099500D01*
X138411306Y-92099500D01*
X138237341Y-92134103D01*
X138237332Y-92134106D01*
X138073459Y-92201983D01*
X138073446Y-92201990D01*
X137925965Y-92300535D01*
X137925961Y-92300538D01*
X137800538Y-92425961D01*
X137800535Y-92425965D01*
X137701990Y-92573446D01*
X137701983Y-92573459D01*
X137634106Y-92737332D01*
X137634103Y-92737341D01*
X137599500Y-92911304D01*
X134320499Y-92911304D01*
X134285896Y-92737341D01*
X134285893Y-92737332D01*
X134218016Y-92573459D01*
X134218009Y-92573446D01*
X134119464Y-92425965D01*
X134119461Y-92425961D01*
X133994038Y-92300538D01*
X133994034Y-92300535D01*
X133846553Y-92201990D01*
X133846540Y-92201983D01*
X133682667Y-92134106D01*
X133682658Y-92134103D01*
X133508694Y-92099500D01*
X133508691Y-92099500D01*
X133331309Y-92099500D01*
X133331306Y-92099500D01*
X133157341Y-92134103D01*
X133157332Y-92134106D01*
X132993459Y-92201983D01*
X132993446Y-92201990D01*
X132845965Y-92300535D01*
X132845961Y-92300538D01*
X132720538Y-92425961D01*
X132720535Y-92425965D01*
X132621990Y-92573446D01*
X132621983Y-92573459D01*
X132554106Y-92737332D01*
X132554103Y-92737341D01*
X132519500Y-92911304D01*
X125250500Y-92911304D01*
X125250500Y-91380247D01*
X160949500Y-91380247D01*
X160949500Y-93119752D01*
X160961131Y-93178229D01*
X160961132Y-93178230D01*
X161005447Y-93244552D01*
X161071769Y-93288867D01*
X161071770Y-93288868D01*
X161130247Y-93300499D01*
X161130250Y-93300500D01*
X161130252Y-93300500D01*
X162869750Y-93300500D01*
X162869751Y-93300499D01*
X162884568Y-93297552D01*
X162928229Y-93288868D01*
X162928229Y-93288867D01*
X162928231Y-93288867D01*
X162994552Y-93244552D01*
X163038867Y-93178231D01*
X163038867Y-93178229D01*
X163038868Y-93178229D01*
X163050499Y-93119752D01*
X163050500Y-93119750D01*
X163050500Y-91380249D01*
X163050499Y-91380247D01*
X163038868Y-91321770D01*
X163038867Y-91321769D01*
X162994552Y-91255447D01*
X162928230Y-91211132D01*
X162928229Y-91211131D01*
X162869752Y-91199500D01*
X162869748Y-91199500D01*
X161130252Y-91199500D01*
X161130247Y-91199500D01*
X161071770Y-91211131D01*
X161071769Y-91211132D01*
X161005447Y-91255447D01*
X160961132Y-91321769D01*
X160961131Y-91321770D01*
X160949500Y-91380247D01*
X125250500Y-91380247D01*
X125250500Y-85397682D01*
X131450000Y-85397682D01*
X131450000Y-85602317D01*
X131482009Y-85804417D01*
X131545244Y-85999031D01*
X131638141Y-86181350D01*
X131638147Y-86181359D01*
X131670523Y-86225921D01*
X131670524Y-86225922D01*
X132350000Y-85546446D01*
X132350000Y-85552661D01*
X132377259Y-85654394D01*
X132429920Y-85745606D01*
X132504394Y-85820080D01*
X132595606Y-85872741D01*
X132697339Y-85900000D01*
X132703553Y-85900000D01*
X132024076Y-86579474D01*
X132068650Y-86611859D01*
X132250968Y-86704755D01*
X132445576Y-86767988D01*
X132522317Y-86780142D01*
X132585452Y-86810071D01*
X132622384Y-86869383D01*
X132621386Y-86939245D01*
X132582777Y-86997478D01*
X132527113Y-87024233D01*
X132458169Y-87037947D01*
X132458160Y-87037950D01*
X132276092Y-87113364D01*
X132276079Y-87113371D01*
X132112218Y-87222860D01*
X132112214Y-87222863D01*
X131972863Y-87362214D01*
X131972860Y-87362218D01*
X131863371Y-87526079D01*
X131863364Y-87526092D01*
X131787950Y-87708160D01*
X131787947Y-87708170D01*
X131749500Y-87901456D01*
X131749500Y-87901459D01*
X131749500Y-88098541D01*
X131749500Y-88098543D01*
X131749499Y-88098543D01*
X131787947Y-88291829D01*
X131787950Y-88291839D01*
X131863364Y-88473907D01*
X131863371Y-88473920D01*
X131972860Y-88637781D01*
X131972863Y-88637785D01*
X132112214Y-88777136D01*
X132112218Y-88777139D01*
X132276079Y-88886628D01*
X132276092Y-88886635D01*
X132458160Y-88962049D01*
X132458165Y-88962051D01*
X132458169Y-88962051D01*
X132458170Y-88962052D01*
X132651456Y-89000500D01*
X132651459Y-89000500D01*
X132848543Y-89000500D01*
X132978582Y-88974632D01*
X133041835Y-88962051D01*
X133223914Y-88886632D01*
X133387782Y-88777139D01*
X133527139Y-88637782D01*
X133636632Y-88473914D01*
X133712051Y-88291835D01*
X133735765Y-88172618D01*
X133750500Y-88098543D01*
X133750500Y-87901456D01*
X133712052Y-87708170D01*
X133712051Y-87708169D01*
X133712051Y-87708165D01*
X133667018Y-87599444D01*
X133636635Y-87526092D01*
X133636628Y-87526079D01*
X133527139Y-87362218D01*
X133527136Y-87362214D01*
X133387785Y-87222863D01*
X133387781Y-87222860D01*
X133223920Y-87113371D01*
X133223907Y-87113364D01*
X133041839Y-87037950D01*
X133041830Y-87037947D01*
X132972886Y-87024233D01*
X132910976Y-86991847D01*
X132876402Y-86931131D01*
X132880143Y-86861361D01*
X132921010Y-86804690D01*
X132977682Y-86780142D01*
X133054423Y-86767988D01*
X133249031Y-86704755D01*
X133431349Y-86611859D01*
X133475921Y-86579474D01*
X132796447Y-85900000D01*
X132802661Y-85900000D01*
X132904394Y-85872741D01*
X132995606Y-85820080D01*
X133070080Y-85745606D01*
X133122741Y-85654394D01*
X133150000Y-85552661D01*
X133150000Y-85546447D01*
X133829474Y-86225921D01*
X133861859Y-86181349D01*
X133954755Y-85999031D01*
X134017990Y-85804417D01*
X134050000Y-85602317D01*
X134050000Y-85397682D01*
X134017989Y-85195581D01*
X134017988Y-85195574D01*
X134013299Y-85181145D01*
X134013296Y-85181135D01*
X134002426Y-85147682D01*
X138200000Y-85147682D01*
X138200000Y-85352317D01*
X138232009Y-85554417D01*
X138295244Y-85749031D01*
X138388141Y-85931350D01*
X138388147Y-85931359D01*
X138420523Y-85975921D01*
X138420524Y-85975922D01*
X139100000Y-85296446D01*
X139100000Y-85302661D01*
X139127259Y-85404394D01*
X139179920Y-85495606D01*
X139254394Y-85570080D01*
X139345606Y-85622741D01*
X139447339Y-85650000D01*
X139453553Y-85650000D01*
X138774076Y-86329474D01*
X138818650Y-86361859D01*
X139000968Y-86454755D01*
X139195576Y-86517988D01*
X139272317Y-86530142D01*
X139335452Y-86560071D01*
X139372384Y-86619383D01*
X139371386Y-86689245D01*
X139332777Y-86747478D01*
X139277113Y-86774233D01*
X139208169Y-86787947D01*
X139208160Y-86787950D01*
X139026092Y-86863364D01*
X139026079Y-86863371D01*
X138862218Y-86972860D01*
X138862214Y-86972863D01*
X138722863Y-87112214D01*
X138722860Y-87112218D01*
X138613371Y-87276079D01*
X138613364Y-87276092D01*
X138537950Y-87458160D01*
X138537947Y-87458170D01*
X138499500Y-87651456D01*
X138499500Y-87651459D01*
X138499500Y-87848541D01*
X138499500Y-87848543D01*
X138499499Y-87848543D01*
X138537947Y-88041829D01*
X138537950Y-88041839D01*
X138613364Y-88223907D01*
X138613371Y-88223920D01*
X138722860Y-88387781D01*
X138722863Y-88387785D01*
X138862214Y-88527136D01*
X138862218Y-88527139D01*
X139026079Y-88636628D01*
X139026092Y-88636635D01*
X139208160Y-88712049D01*
X139208165Y-88712051D01*
X139208169Y-88712051D01*
X139208170Y-88712052D01*
X139401456Y-88750500D01*
X139401459Y-88750500D01*
X139598543Y-88750500D01*
X139728582Y-88724632D01*
X139791835Y-88712051D01*
X139932655Y-88653721D01*
X139973907Y-88636635D01*
X139973907Y-88636634D01*
X139973914Y-88636632D01*
X140137782Y-88527139D01*
X140277139Y-88387782D01*
X140386632Y-88223914D01*
X140462051Y-88041835D01*
X140485253Y-87925192D01*
X140500500Y-87848543D01*
X140500500Y-87651456D01*
X140464968Y-87472830D01*
X140464967Y-87472827D01*
X140462051Y-87458165D01*
X140422307Y-87362214D01*
X140386635Y-87276092D01*
X140386628Y-87276079D01*
X140277139Y-87112218D01*
X140277136Y-87112214D01*
X140137785Y-86972863D01*
X140137781Y-86972860D01*
X139973920Y-86863371D01*
X139973907Y-86863364D01*
X139791839Y-86787950D01*
X139791830Y-86787947D01*
X139722886Y-86774233D01*
X139660976Y-86741847D01*
X139626402Y-86681131D01*
X139630143Y-86611361D01*
X139671010Y-86554690D01*
X139727682Y-86530142D01*
X139804423Y-86517988D01*
X139999031Y-86454755D01*
X140004134Y-86452155D01*
X149435000Y-86452155D01*
X149435000Y-87000000D01*
X150179670Y-87000000D01*
X150159925Y-87019745D01*
X150110556Y-87105255D01*
X150085000Y-87200630D01*
X150085000Y-87299370D01*
X150110556Y-87394745D01*
X150159925Y-87480255D01*
X150179670Y-87500000D01*
X149435000Y-87500000D01*
X149435000Y-88047844D01*
X149441401Y-88107372D01*
X149441403Y-88107379D01*
X149491645Y-88242086D01*
X149491649Y-88242093D01*
X149577809Y-88357187D01*
X149577812Y-88357190D01*
X149692906Y-88443350D01*
X149692913Y-88443354D01*
X149827620Y-88493596D01*
X149827627Y-88493598D01*
X149887155Y-88499999D01*
X149887172Y-88500000D01*
X150210000Y-88500000D01*
X150210000Y-87530330D01*
X150229745Y-87550075D01*
X150315255Y-87599444D01*
X150410630Y-87625000D01*
X150509370Y-87625000D01*
X150604745Y-87599444D01*
X150690255Y-87550075D01*
X150710000Y-87530330D01*
X150710000Y-88500000D01*
X151032828Y-88500000D01*
X151032844Y-88499999D01*
X151092372Y-88493598D01*
X151092379Y-88493596D01*
X151227086Y-88443354D01*
X151227093Y-88443350D01*
X151342187Y-88357190D01*
X151342190Y-88357187D01*
X151433669Y-88234989D01*
X151434988Y-88235976D01*
X151477124Y-88193835D01*
X151545396Y-88178979D01*
X151560750Y-88181047D01*
X151658542Y-88200500D01*
X151658545Y-88200500D01*
X151801457Y-88200500D01*
X151899250Y-88181047D01*
X151941620Y-88172619D01*
X152073653Y-88117929D01*
X152192479Y-88038532D01*
X152192482Y-88038529D01*
X152277319Y-87953693D01*
X152338642Y-87920208D01*
X152408334Y-87925192D01*
X152452681Y-87953693D01*
X152537517Y-88038529D01*
X152537521Y-88038532D01*
X152656340Y-88117925D01*
X152656346Y-88117928D01*
X152656347Y-88117929D01*
X152788380Y-88172619D01*
X152788384Y-88172619D01*
X152788385Y-88172620D01*
X152928542Y-88200500D01*
X152928545Y-88200500D01*
X153071457Y-88200500D01*
X153169250Y-88181047D01*
X153211620Y-88172619D01*
X153343653Y-88117929D01*
X153462479Y-88038532D01*
X153563532Y-87937479D01*
X153642929Y-87818653D01*
X153697619Y-87686620D01*
X153725500Y-87546455D01*
X153725500Y-86953545D01*
X153725500Y-86953542D01*
X153697620Y-86813385D01*
X153697619Y-86813384D01*
X153697619Y-86813380D01*
X153652625Y-86704755D01*
X153642930Y-86681349D01*
X153642925Y-86681340D01*
X153563532Y-86562521D01*
X153563529Y-86562517D01*
X153462482Y-86461470D01*
X153462478Y-86461467D01*
X153343659Y-86382074D01*
X153343650Y-86382069D01*
X153211620Y-86327381D01*
X153211614Y-86327379D01*
X153071457Y-86299500D01*
X153071455Y-86299500D01*
X152928545Y-86299500D01*
X152928543Y-86299500D01*
X152788385Y-86327379D01*
X152788379Y-86327381D01*
X152656349Y-86382069D01*
X152656340Y-86382074D01*
X152537521Y-86461467D01*
X152537517Y-86461470D01*
X152452681Y-86546307D01*
X152391358Y-86579792D01*
X152321666Y-86574808D01*
X152277319Y-86546307D01*
X152192482Y-86461470D01*
X152192478Y-86461467D01*
X152073659Y-86382074D01*
X152073650Y-86382069D01*
X151941620Y-86327381D01*
X151941614Y-86327379D01*
X151801457Y-86299500D01*
X151801455Y-86299500D01*
X151658545Y-86299500D01*
X151658540Y-86299500D01*
X151560749Y-86318952D01*
X151491157Y-86312725D01*
X151435980Y-86269862D01*
X151428960Y-86258721D01*
X151342190Y-86142812D01*
X151342187Y-86142809D01*
X151227093Y-86056649D01*
X151227086Y-86056645D01*
X151092379Y-86006403D01*
X151092372Y-86006401D01*
X151032844Y-86000000D01*
X150710000Y-86000000D01*
X150710000Y-86969670D01*
X150690255Y-86949925D01*
X150604745Y-86900556D01*
X150509370Y-86875000D01*
X150410630Y-86875000D01*
X150315255Y-86900556D01*
X150229745Y-86949925D01*
X150210000Y-86969670D01*
X150210000Y-86000000D01*
X149887155Y-86000000D01*
X149827627Y-86006401D01*
X149827620Y-86006403D01*
X149692913Y-86056645D01*
X149692906Y-86056649D01*
X149577812Y-86142809D01*
X149577809Y-86142812D01*
X149491649Y-86257906D01*
X149491645Y-86257913D01*
X149441403Y-86392620D01*
X149441401Y-86392627D01*
X149435000Y-86452155D01*
X140004134Y-86452155D01*
X140181349Y-86361859D01*
X140199690Y-86348534D01*
X140225922Y-86329474D01*
X139546447Y-85650000D01*
X139552661Y-85650000D01*
X139654394Y-85622741D01*
X139745606Y-85570080D01*
X139820080Y-85495606D01*
X139872741Y-85404394D01*
X139900000Y-85302661D01*
X139900000Y-85296448D01*
X140579474Y-85975922D01*
X140579474Y-85975921D01*
X140611859Y-85931349D01*
X140704755Y-85749031D01*
X140733260Y-85661304D01*
X157309500Y-85661304D01*
X157309500Y-85838695D01*
X157344103Y-86012658D01*
X157344106Y-86012667D01*
X157411983Y-86176540D01*
X157411990Y-86176553D01*
X157510535Y-86324034D01*
X157510538Y-86324038D01*
X157635961Y-86449461D01*
X157635965Y-86449464D01*
X157783446Y-86548009D01*
X157783459Y-86548016D01*
X157859407Y-86579474D01*
X157947334Y-86615894D01*
X157947336Y-86615894D01*
X157947341Y-86615896D01*
X158121304Y-86650499D01*
X158121307Y-86650500D01*
X158121309Y-86650500D01*
X158298693Y-86650500D01*
X158298694Y-86650499D01*
X158376770Y-86634969D01*
X158472658Y-86615896D01*
X158472661Y-86615894D01*
X158472666Y-86615894D01*
X158636547Y-86548013D01*
X158784035Y-86449464D01*
X158909464Y-86324035D01*
X159008013Y-86176547D01*
X159075894Y-86012666D01*
X159077141Y-86006401D01*
X159110499Y-85838695D01*
X159110500Y-85838693D01*
X159110500Y-85661306D01*
X159110499Y-85661304D01*
X162389500Y-85661304D01*
X162389500Y-85838695D01*
X162424103Y-86012658D01*
X162424106Y-86012667D01*
X162491983Y-86176540D01*
X162491990Y-86176553D01*
X162590535Y-86324034D01*
X162590538Y-86324038D01*
X162715961Y-86449461D01*
X162715965Y-86449464D01*
X162863446Y-86548009D01*
X162863459Y-86548016D01*
X162939407Y-86579474D01*
X163027334Y-86615894D01*
X163027336Y-86615894D01*
X163027341Y-86615896D01*
X163201304Y-86650499D01*
X163201307Y-86650500D01*
X163201309Y-86650500D01*
X163378693Y-86650500D01*
X163378694Y-86650499D01*
X163456770Y-86634969D01*
X163552658Y-86615896D01*
X163552661Y-86615894D01*
X163552666Y-86615894D01*
X163716547Y-86548013D01*
X163864035Y-86449464D01*
X163989464Y-86324035D01*
X164088013Y-86176547D01*
X164155894Y-86012666D01*
X164157141Y-86006401D01*
X164190499Y-85838695D01*
X164190500Y-85838693D01*
X164190500Y-85661306D01*
X164190499Y-85661304D01*
X164155896Y-85487341D01*
X164155893Y-85487332D01*
X164088016Y-85323459D01*
X164088009Y-85323446D01*
X163989464Y-85175965D01*
X163989461Y-85175961D01*
X163864038Y-85050538D01*
X163864034Y-85050535D01*
X163716553Y-84951990D01*
X163716540Y-84951983D01*
X163552667Y-84884106D01*
X163552658Y-84884103D01*
X163378694Y-84849500D01*
X163378691Y-84849500D01*
X163201309Y-84849500D01*
X163201306Y-84849500D01*
X163027341Y-84884103D01*
X163027332Y-84884106D01*
X162863459Y-84951983D01*
X162863446Y-84951990D01*
X162715965Y-85050535D01*
X162715961Y-85050538D01*
X162590538Y-85175961D01*
X162590535Y-85175965D01*
X162491990Y-85323446D01*
X162491983Y-85323459D01*
X162424106Y-85487332D01*
X162424103Y-85487341D01*
X162389500Y-85661304D01*
X159110499Y-85661304D01*
X159075896Y-85487341D01*
X159075893Y-85487332D01*
X159008016Y-85323459D01*
X159008009Y-85323446D01*
X158909464Y-85175965D01*
X158909461Y-85175961D01*
X158784038Y-85050538D01*
X158784034Y-85050535D01*
X158636553Y-84951990D01*
X158636540Y-84951983D01*
X158472667Y-84884106D01*
X158472658Y-84884103D01*
X158298694Y-84849500D01*
X158298691Y-84849500D01*
X158121309Y-84849500D01*
X158121306Y-84849500D01*
X157947341Y-84884103D01*
X157947332Y-84884106D01*
X157783459Y-84951983D01*
X157783446Y-84951990D01*
X157635965Y-85050535D01*
X157635961Y-85050538D01*
X157510538Y-85175961D01*
X157510535Y-85175965D01*
X157411990Y-85323446D01*
X157411983Y-85323459D01*
X157344106Y-85487332D01*
X157344103Y-85487341D01*
X157309500Y-85661304D01*
X140733260Y-85661304D01*
X140747689Y-85616898D01*
X140747689Y-85616897D01*
X140767989Y-85554421D01*
X140767989Y-85554418D01*
X140800000Y-85352317D01*
X140800000Y-85147682D01*
X140767990Y-84945582D01*
X140704755Y-84750968D01*
X140611859Y-84568650D01*
X140579474Y-84524077D01*
X140579474Y-84524076D01*
X139900000Y-85203551D01*
X139900000Y-85197339D01*
X139872741Y-85095606D01*
X139820080Y-85004394D01*
X139745606Y-84929920D01*
X139654394Y-84877259D01*
X139552661Y-84850000D01*
X139546446Y-84850000D01*
X140225922Y-84170524D01*
X140225921Y-84170523D01*
X140181359Y-84138147D01*
X140181350Y-84138141D01*
X139999031Y-84045244D01*
X139804417Y-83982009D01*
X139602317Y-83950000D01*
X139397683Y-83950000D01*
X139195582Y-83982009D01*
X139000968Y-84045244D01*
X138818644Y-84138143D01*
X138774077Y-84170523D01*
X138774077Y-84170524D01*
X139453554Y-84850000D01*
X139447339Y-84850000D01*
X139345606Y-84877259D01*
X139254394Y-84929920D01*
X139179920Y-85004394D01*
X139127259Y-85095606D01*
X139100000Y-85197339D01*
X139100000Y-85203553D01*
X138420524Y-84524077D01*
X138420523Y-84524077D01*
X138388143Y-84568644D01*
X138295244Y-84750968D01*
X138232009Y-84945582D01*
X138200000Y-85147682D01*
X134002426Y-85147682D01*
X133954755Y-85000968D01*
X133861859Y-84818650D01*
X133829474Y-84774077D01*
X133829474Y-84774076D01*
X133150000Y-85453551D01*
X133150000Y-85447339D01*
X133122741Y-85345606D01*
X133070080Y-85254394D01*
X132995606Y-85179920D01*
X132904394Y-85127259D01*
X132802661Y-85100000D01*
X132796446Y-85100000D01*
X133475922Y-84420524D01*
X133475921Y-84420523D01*
X133431359Y-84388147D01*
X133431350Y-84388141D01*
X133313842Y-84328268D01*
X133249031Y-84295244D01*
X133054417Y-84232009D01*
X132852317Y-84200000D01*
X132647683Y-84200000D01*
X132445582Y-84232009D01*
X132250968Y-84295244D01*
X132068644Y-84388143D01*
X132024077Y-84420523D01*
X132024077Y-84420524D01*
X132703554Y-85100000D01*
X132697339Y-85100000D01*
X132595606Y-85127259D01*
X132504394Y-85179920D01*
X132429920Y-85254394D01*
X132377259Y-85345606D01*
X132350000Y-85447339D01*
X132350000Y-85453553D01*
X131670524Y-84774077D01*
X131670523Y-84774077D01*
X131638143Y-84818644D01*
X131545244Y-85000968D01*
X131482009Y-85195582D01*
X131450000Y-85397682D01*
X125250500Y-85397682D01*
X125250500Y-78431902D01*
X126999500Y-78431902D01*
X126999500Y-78668097D01*
X127036446Y-78901368D01*
X127109433Y-79125996D01*
X127216657Y-79336433D01*
X127355483Y-79527510D01*
X127522490Y-79694517D01*
X127713567Y-79833343D01*
X127812991Y-79884002D01*
X127924003Y-79940566D01*
X127924005Y-79940566D01*
X127924008Y-79940568D01*
X128044412Y-79979689D01*
X128148631Y-80013553D01*
X128381903Y-80050500D01*
X128381908Y-80050500D01*
X128618097Y-80050500D01*
X128851368Y-80013553D01*
X129075992Y-79940568D01*
X129286433Y-79833343D01*
X129477510Y-79694517D01*
X129644517Y-79527510D01*
X129783343Y-79336433D01*
X129890568Y-79125992D01*
X129963553Y-78901368D01*
X129984611Y-78768412D01*
X129995447Y-78700000D01*
X134925000Y-78700000D01*
X137015000Y-78700000D01*
X137015000Y-76800000D01*
X134925000Y-76800000D01*
X134925000Y-78700000D01*
X129995447Y-78700000D01*
X130000500Y-78668097D01*
X130000500Y-78431902D01*
X129963553Y-78198631D01*
X129890566Y-77974003D01*
X129783342Y-77763566D01*
X129779659Y-77758497D01*
X129644517Y-77572490D01*
X129477510Y-77405483D01*
X129286433Y-77266657D01*
X129075996Y-77159433D01*
X128851368Y-77086446D01*
X128618097Y-77049500D01*
X128618092Y-77049500D01*
X128381908Y-77049500D01*
X128381903Y-77049500D01*
X128148631Y-77086446D01*
X127924003Y-77159433D01*
X127713566Y-77266657D01*
X127604550Y-77345862D01*
X127522490Y-77405483D01*
X127522488Y-77405485D01*
X127522487Y-77405485D01*
X127355485Y-77572487D01*
X127355485Y-77572488D01*
X127355483Y-77572490D01*
X127295862Y-77654550D01*
X127216657Y-77763566D01*
X127109433Y-77974003D01*
X127036446Y-78198631D01*
X126999500Y-78431902D01*
X125250500Y-78431902D01*
X125250500Y-76570730D01*
X152699500Y-76570730D01*
X152699500Y-77929269D01*
X152702353Y-77959699D01*
X152702353Y-77959701D01*
X152734357Y-78051160D01*
X152747207Y-78087882D01*
X152827850Y-78197150D01*
X152937118Y-78277793D01*
X152979845Y-78292744D01*
X153065299Y-78322646D01*
X153095730Y-78325500D01*
X153095734Y-78325500D01*
X153904270Y-78325500D01*
X153934699Y-78322646D01*
X153934701Y-78322646D01*
X153998790Y-78300219D01*
X154062882Y-78277793D01*
X154172150Y-78197150D01*
X154252793Y-78087882D01*
X154275219Y-78023790D01*
X154297646Y-77959701D01*
X154297646Y-77959699D01*
X154300500Y-77929269D01*
X154300500Y-76896153D01*
X154699500Y-76896153D01*
X154699500Y-77603846D01*
X154730261Y-77758489D01*
X154730264Y-77758501D01*
X154790602Y-77904172D01*
X154790609Y-77904185D01*
X154878210Y-78035288D01*
X154878213Y-78035292D01*
X154989707Y-78146786D01*
X154989711Y-78146789D01*
X155120814Y-78234390D01*
X155120827Y-78234397D01*
X155225596Y-78277793D01*
X155266503Y-78294737D01*
X155406810Y-78322646D01*
X155421153Y-78325499D01*
X155421156Y-78325500D01*
X155421158Y-78325500D01*
X155578844Y-78325500D01*
X155578845Y-78325499D01*
X155733497Y-78294737D01*
X155879179Y-78234394D01*
X156010289Y-78146789D01*
X156013365Y-78143713D01*
X160399500Y-78143713D01*
X160399500Y-78356287D01*
X160432754Y-78566243D01*
X160476214Y-78700000D01*
X160498444Y-78768414D01*
X160594951Y-78957820D01*
X160719890Y-79129786D01*
X160870213Y-79280109D01*
X161042179Y-79405048D01*
X161042181Y-79405049D01*
X161042184Y-79405051D01*
X161231588Y-79501557D01*
X161433757Y-79567246D01*
X161643713Y-79600500D01*
X161643714Y-79600500D01*
X161856286Y-79600500D01*
X161856287Y-79600500D01*
X162066243Y-79567246D01*
X162268412Y-79501557D01*
X162457816Y-79405051D01*
X162479789Y-79389086D01*
X162629786Y-79280109D01*
X162629788Y-79280106D01*
X162629792Y-79280104D01*
X162780104Y-79129792D01*
X162780106Y-79129788D01*
X162780109Y-79129786D01*
X162905048Y-78957820D01*
X162905047Y-78957820D01*
X162905051Y-78957816D01*
X163001557Y-78768412D01*
X163067246Y-78566243D01*
X163100500Y-78356287D01*
X163100500Y-78143713D01*
X163067246Y-77933757D01*
X163001557Y-77731588D01*
X162905051Y-77542184D01*
X162905049Y-77542181D01*
X162905048Y-77542179D01*
X162780109Y-77370213D01*
X162629786Y-77219890D01*
X162457820Y-77094951D01*
X162268414Y-76998444D01*
X162268413Y-76998443D01*
X162268412Y-76998443D01*
X162066243Y-76932754D01*
X162066241Y-76932753D01*
X162066240Y-76932753D01*
X161904957Y-76907208D01*
X161856287Y-76899500D01*
X161643713Y-76899500D01*
X161595042Y-76907208D01*
X161433760Y-76932753D01*
X161231585Y-76998444D01*
X161042179Y-77094951D01*
X160870213Y-77219890D01*
X160719890Y-77370213D01*
X160594951Y-77542179D01*
X160498444Y-77731585D01*
X160432753Y-77933760D01*
X160416673Y-78035288D01*
X160399500Y-78143713D01*
X156013365Y-78143713D01*
X156105919Y-78051160D01*
X156121786Y-78035292D01*
X156121789Y-78035289D01*
X156209394Y-77904179D01*
X156269737Y-77758497D01*
X156300500Y-77603842D01*
X156300500Y-76896158D01*
X156300500Y-76896155D01*
X156300499Y-76896153D01*
X156269738Y-76741510D01*
X156269737Y-76741503D01*
X156269735Y-76741498D01*
X156209397Y-76595827D01*
X156209390Y-76595814D01*
X156121789Y-76464711D01*
X156121786Y-76464707D01*
X156010292Y-76353213D01*
X156010288Y-76353210D01*
X155879185Y-76265609D01*
X155879172Y-76265602D01*
X155733501Y-76205264D01*
X155733489Y-76205261D01*
X155578845Y-76174500D01*
X155578842Y-76174500D01*
X155421158Y-76174500D01*
X155421155Y-76174500D01*
X155266510Y-76205261D01*
X155266498Y-76205264D01*
X155120827Y-76265602D01*
X155120814Y-76265609D01*
X154989711Y-76353210D01*
X154989707Y-76353213D01*
X154878213Y-76464707D01*
X154878210Y-76464711D01*
X154790609Y-76595814D01*
X154790602Y-76595827D01*
X154730264Y-76741498D01*
X154730261Y-76741510D01*
X154699500Y-76896153D01*
X154300500Y-76896153D01*
X154300500Y-76570730D01*
X154297646Y-76540300D01*
X154297646Y-76540298D01*
X154252793Y-76412119D01*
X154252792Y-76412117D01*
X154209319Y-76353213D01*
X154172150Y-76302850D01*
X154062882Y-76222207D01*
X154062880Y-76222206D01*
X153934700Y-76177353D01*
X153904270Y-76174500D01*
X153904266Y-76174500D01*
X153095734Y-76174500D01*
X153095730Y-76174500D01*
X153065300Y-76177353D01*
X153065298Y-76177353D01*
X152937119Y-76222206D01*
X152937117Y-76222207D01*
X152827850Y-76302850D01*
X152747207Y-76412117D01*
X152747206Y-76412119D01*
X152702353Y-76540298D01*
X152702353Y-76540300D01*
X152699500Y-76570730D01*
X125250500Y-76570730D01*
X125250500Y-73374500D01*
X125270185Y-73307461D01*
X125322989Y-73261706D01*
X125374500Y-73250500D01*
X164375500Y-73250500D01*
X164442539Y-73270185D01*
G37*
%TD.AperFunction*%
%TD*%
M02*
